M48
;GenerationSoftware,Autodesk,EAGLE,9.6.2*%
;CreationDate,2023-04-27T13:39:18Z*%
FMAT,2
ICI,OFF
METRIC,TZ,000.000
T7C0.200
T6C0.813
T5C0.850
T4C0.920
T3C1.020
T2C2.300
T1C3.500
%
G90
M71
T1
X25705Y66142
X25019Y5359
X106248Y24333
X78080Y66218
T2
X7158Y12152
X7158Y3652
X7158Y29932
X7158Y21432
X7158Y47712
X7158Y39212
X7158Y65492
X7158Y56992
X100285Y2712
X100285Y14752
T3
X10338Y45212
X10338Y6152
X10338Y9652
X5738Y6152
X5738Y9652
X10338Y23932
X10338Y27432
X5738Y23932
X5738Y27432
X10338Y41712
X5738Y41712
X5738Y45212
X10338Y59492
X10338Y62992
X5738Y59492
X5738Y62992
T4
X97575Y9982
X95575Y7482
X97575Y7482
X95575Y9982
T5
X44461Y50394
X39461Y50394
T6
X7772Y8306
X21539Y2464
X21565Y6604
X29286Y2540
X35306Y2159
X40767Y4801
X44221Y2438
X34544Y21692
X33096Y25781
X45136Y33020
X43891Y30124
X43383Y27788
X42926Y36271
X40767Y40284
X44221Y41986
X48793Y44171
X51257Y47803
X54000Y44450
X34900Y43155
X28296Y50698
X30099Y64389
X38075Y68351
X38252Y64211
X50038Y52121
X56769Y51943
X62535Y51079
X66396Y44526
X72060Y47117
X69850Y51791
X65583Y51511
X59131Y51994
X54178Y52146
X71120Y56947
X72390Y62967
X65557Y63703
X75997Y61366
X82398Y67310
X87046Y67843
X83642Y62408
X86563Y56286
X94844Y54153
X94386Y57302
X95987Y52248
X88240Y49809
X86055Y49530
X78562Y52934
X94717Y43053
X84328Y41351
X74981Y41808
X66802Y49403
X64338Y44882
X83490Y37135
X73076Y31572
X68707Y31191
X61493Y30886
X57785Y30912
X51943Y30048
X57480Y34188
X59080Y37567
X59842Y16307
X49606Y9601
X54127Y9144
X58166Y9347
X59995Y13487
X48895Y15926
X50902Y23774
X55702Y23622
X59309Y23825
X43383Y6325
X40411Y2616
X31623Y11532
X28626Y10871
X31801Y32233
X37821Y32436
X25603Y39878
X23774Y43840
X23673Y37135
X21158Y57226
X22352Y60147
X21336Y63449
X15900Y61366
X26162Y51791
X29159Y58115
X34925Y59030
X41681Y61036
X38100Y61087
X32385Y61036
X41300Y53315
X42316Y47701
X69342Y25451
X73177Y29515
X75184Y26111
X71501Y21971
X81458Y35179
X81128Y16662
X80670Y19101
X81280Y22123
X76683Y17450
X76556Y12827
X77419Y11506
X78080Y9296
X76022Y10592
X82779Y7696
X85623Y7696
X89078Y7874
X89433Y5105
X86512Y4775
X83490Y4801
X74752Y1778
X72365Y3327
X69367Y3962
X72085Y1778
X69190Y1600
X67107Y1753
X65100Y2261
X65100Y4191
X64592Y6553
X87986Y14199
X86538Y16535
X89992Y16027
X92583Y12040
X104978Y5182
X103530Y9525
X107798Y12979
X109677Y6883
X109982Y17628
X105512Y16764
X103175Y20701
X103480Y27889
X102591Y25171
X110211Y28778
X95453Y33071
X100406Y32029
X101524Y35027
X99416Y36093
X96164Y37973
X94056Y37567
X87782Y34722
X99619Y54966
X107569Y67132
X108509Y38557
X92024Y20117
X84658Y24409
X87782Y22682
X93472Y23851
X94767Y27711
X98831Y22301
X109957Y25552
X109880Y21387
X107772Y19837
X107493Y28448
X11684Y17018
X1829Y15469
X1803Y18136
X1778Y20828
X1981Y23241
X1956Y5461
X1829Y35839
X1956Y40919
X1956Y58852
X104419Y47422
X105029Y51029
X104318Y55728
X105207Y59157
X98450Y62078
X93396Y62763
X86335Y63017
X86004Y60528
X92456Y53569
X95758Y49936
X89002Y56947
X86411Y53746
X73939Y58166
X52984Y37897
X48489Y37948
X63195Y8484
X16053Y68555
X13767Y68758
X9881Y68732
X5867Y69164
X2921Y68732
X7976Y61290
X2083Y53238
X1956Y2921
X24917Y1829
X14580Y1778
X10516Y1803
X32207Y1829
X38024Y1930
X95885Y1524
X94031Y1524
X104369Y1676
X107061Y1626
X109271Y9474
X104470Y12598
X106858Y8585
X108585Y4293
X101016Y7137
X103429Y18339
X60122Y33376
X110261Y65583
X110338Y62509
X109626Y49530
X108737Y51892
X19710Y67945
X54686Y30658
X62509Y43358
X67615Y40869
X61519Y40869
X73406Y40869
X81636Y42088
X84684Y46050
X86817Y45745
X89256Y45441
X74930Y15875
X88392Y31699
X71882Y6121
X74803Y3023
X33045Y13081
X29997Y19482
X32131Y21311
X38227Y19177
X38227Y21920
X38532Y26187
X39853Y16383
X78689Y15900
X84734Y20676
X39853Y35052
X40081Y11608
X67437Y10490
X13208Y52908
X21184Y31979
X36652Y23698
X85725Y28727
X93243Y32817
X76225Y29667
X51435Y20701
X70663Y29591
X49073Y21793
X82652Y12446
X92230Y44120
X67158Y16840
X70161Y11156
X69698Y17780
X71539Y12967
X46076Y28524
X81483Y39218
X100254Y28016
X95072Y60735
X29845Y15062
X29540Y35154
X21158Y13132
X93396Y28727
X27000Y60681
X33350Y66472
X42088Y65938
X71882Y8255
X34798Y61849
X33020Y57201
X27356Y55575
X32106Y53035
X32461Y46965
X23165Y54762
X14605Y64694
X14046Y46939
X19787Y44958
X14884Y43840
X8280Y43155
X11024Y39065
X23597Y40665
X19507Y35992
X10414Y35179
X6172Y34849
X21006Y29997
X22962Y26467
X23876Y21971
X30175Y27178
X16002Y28118
X16104Y23571
X7976Y25578
X5817Y16942
X9322Y16637
X15621Y15926
X20091Y17348
X24841Y19456
X22454Y9576
X15367Y10287
X15494Y4699
T7
X56375Y17828
X54540Y17828
X56375Y14158
X57293Y15075
X55458Y15075
X53623Y15075
X56375Y15993
X54540Y15993
X57293Y16911
X55458Y16911
X53623Y16911
X54540Y14158
M30