G04 EAGLE Gerber RS-274X export*
G75*
%MOMM*%
%FSLAX34Y34*%
%LPD*%
%IN*%
%IPPOS*%
%AMOC8*
5,1,8,0,0,1.08239X$1,22.5*%
G01*
%ADD10C,0.254000*%


D10*
X0Y32255D02*
X123Y29444D01*
X490Y26654D01*
X1099Y23907D01*
X1945Y21223D01*
X3022Y18624D01*
X4321Y16128D01*
X5833Y13755D01*
X7546Y11522D01*
X9447Y9447D01*
X11522Y7546D01*
X13755Y5833D01*
X16128Y4321D01*
X18624Y3022D01*
X21223Y1945D01*
X23907Y1099D01*
X26654Y490D01*
X29444Y123D01*
X32255Y0D01*
X1078532Y0D01*
X1082163Y159D01*
X1085767Y633D01*
X1089315Y1420D01*
X1092782Y2513D01*
X1096139Y3903D01*
X1099363Y5582D01*
X1102429Y7534D01*
X1105312Y9747D01*
X1107992Y12202D01*
X1110447Y14882D01*
X1112660Y17765D01*
X1114612Y20831D01*
X1116291Y24055D01*
X1117682Y27412D01*
X1118774Y30879D01*
X1119561Y34427D01*
X1120035Y38031D01*
X1120194Y41662D01*
X1120194Y665701D01*
X1120040Y669228D01*
X1119579Y672728D01*
X1118815Y676175D01*
X1117754Y679541D01*
X1116403Y682803D01*
X1114772Y685934D01*
X1112876Y688912D01*
X1110727Y691713D01*
X1108342Y694315D01*
X1105739Y696700D01*
X1102938Y698849D01*
X1099961Y700746D01*
X1096829Y702376D01*
X1093568Y703727D01*
X1090201Y704789D01*
X1086754Y705553D01*
X1083254Y706014D01*
X1079773Y706168D01*
X43693Y707342D01*
X39890Y707181D01*
X36115Y706689D01*
X32397Y705870D01*
X28765Y704729D01*
X25246Y703277D01*
X21867Y701523D01*
X18653Y699482D01*
X15630Y697168D01*
X12820Y694600D01*
X10245Y691796D01*
X7923Y688779D01*
X5874Y685570D01*
X4112Y682196D01*
X2650Y678680D01*
X1501Y675051D01*
X672Y671335D01*
X171Y667561D01*
X0Y663758D01*
X0Y663699D01*
X0Y32255D01*
X274548Y660843D02*
X274473Y659700D01*
X274324Y658564D01*
X274100Y657440D01*
X273803Y656333D01*
X273435Y655248D01*
X272997Y654190D01*
X272490Y653162D01*
X271917Y652170D01*
X271280Y651217D01*
X270583Y650308D01*
X269827Y649447D01*
X269017Y648637D01*
X268156Y647881D01*
X267247Y647184D01*
X266294Y646547D01*
X265302Y645974D01*
X264274Y645467D01*
X263216Y645029D01*
X262131Y644661D01*
X261024Y644364D01*
X259900Y644141D01*
X258764Y643991D01*
X257621Y643916D01*
X256475Y643916D01*
X255332Y643991D01*
X254196Y644141D01*
X253072Y644364D01*
X251965Y644661D01*
X250880Y645029D01*
X249822Y645467D01*
X248794Y645974D01*
X247802Y646547D01*
X246849Y647184D01*
X245940Y647881D01*
X245079Y648637D01*
X244269Y649447D01*
X243513Y650308D01*
X242816Y651217D01*
X242179Y652170D01*
X241606Y653162D01*
X241099Y654190D01*
X240661Y655248D01*
X240293Y656333D01*
X239996Y657440D01*
X239773Y658564D01*
X239623Y659700D01*
X239548Y660843D01*
X239548Y661989D01*
X239623Y663132D01*
X239773Y664268D01*
X239996Y665392D01*
X240293Y666499D01*
X240661Y667584D01*
X241099Y668642D01*
X241606Y669670D01*
X242179Y670662D01*
X242816Y671615D01*
X243513Y672524D01*
X244269Y673385D01*
X245079Y674195D01*
X245940Y674951D01*
X246849Y675648D01*
X247802Y676285D01*
X248794Y676858D01*
X249822Y677365D01*
X250880Y677803D01*
X251965Y678171D01*
X253072Y678468D01*
X254196Y678692D01*
X255332Y678841D01*
X256475Y678916D01*
X257621Y678916D01*
X258764Y678841D01*
X259900Y678692D01*
X261024Y678468D01*
X262131Y678171D01*
X263216Y677803D01*
X264274Y677365D01*
X265302Y676858D01*
X266294Y676285D01*
X267247Y675648D01*
X268156Y674951D01*
X269017Y674195D01*
X269827Y673385D01*
X270583Y672524D01*
X271280Y671615D01*
X271917Y670662D01*
X272490Y669670D01*
X272997Y668642D01*
X273435Y667584D01*
X273803Y666499D01*
X274100Y665392D01*
X274324Y664268D01*
X274473Y663132D01*
X274548Y661989D01*
X274548Y660843D01*
X267690Y53021D02*
X267615Y51878D01*
X267466Y50742D01*
X267242Y49618D01*
X266945Y48511D01*
X266577Y47426D01*
X266139Y46368D01*
X265632Y45340D01*
X265059Y44348D01*
X264422Y43395D01*
X263725Y42486D01*
X262969Y41625D01*
X262159Y40815D01*
X261298Y40059D01*
X260389Y39362D01*
X259436Y38725D01*
X258444Y38152D01*
X257416Y37645D01*
X256358Y37207D01*
X255273Y36839D01*
X254166Y36542D01*
X253042Y36319D01*
X251906Y36169D01*
X250763Y36094D01*
X249617Y36094D01*
X248474Y36169D01*
X247338Y36319D01*
X246214Y36542D01*
X245107Y36839D01*
X244022Y37207D01*
X242964Y37645D01*
X241936Y38152D01*
X240944Y38725D01*
X239991Y39362D01*
X239082Y40059D01*
X238221Y40815D01*
X237411Y41625D01*
X236655Y42486D01*
X235958Y43395D01*
X235321Y44348D01*
X234748Y45340D01*
X234241Y46368D01*
X233803Y47426D01*
X233435Y48511D01*
X233138Y49618D01*
X232915Y50742D01*
X232765Y51878D01*
X232690Y53021D01*
X232690Y54167D01*
X232765Y55310D01*
X232915Y56446D01*
X233138Y57570D01*
X233435Y58677D01*
X233803Y59762D01*
X234241Y60820D01*
X234748Y61848D01*
X235321Y62840D01*
X235958Y63793D01*
X236655Y64702D01*
X237411Y65563D01*
X238221Y66373D01*
X239082Y67129D01*
X239991Y67826D01*
X240944Y68463D01*
X241936Y69036D01*
X242964Y69543D01*
X244022Y69981D01*
X245107Y70349D01*
X246214Y70646D01*
X247338Y70870D01*
X248474Y71019D01*
X249617Y71094D01*
X250763Y71094D01*
X251906Y71019D01*
X253042Y70870D01*
X254166Y70646D01*
X255273Y70349D01*
X256358Y69981D01*
X257416Y69543D01*
X258444Y69036D01*
X259436Y68463D01*
X260389Y67826D01*
X261298Y67129D01*
X262159Y66373D01*
X262969Y65563D01*
X263725Y64702D01*
X264422Y63793D01*
X265059Y62840D01*
X265632Y61848D01*
X266139Y60820D01*
X266577Y59762D01*
X266945Y58677D01*
X267242Y57570D01*
X267466Y56446D01*
X267615Y55310D01*
X267690Y54167D01*
X267690Y53021D01*
X1079982Y242759D02*
X1079907Y241616D01*
X1079758Y240480D01*
X1079534Y239356D01*
X1079237Y238249D01*
X1078869Y237164D01*
X1078431Y236106D01*
X1077924Y235078D01*
X1077351Y234086D01*
X1076714Y233133D01*
X1076017Y232224D01*
X1075261Y231363D01*
X1074451Y230553D01*
X1073590Y229797D01*
X1072681Y229100D01*
X1071728Y228463D01*
X1070736Y227890D01*
X1069708Y227383D01*
X1068650Y226945D01*
X1067565Y226577D01*
X1066458Y226280D01*
X1065334Y226057D01*
X1064198Y225907D01*
X1063055Y225832D01*
X1061909Y225832D01*
X1060766Y225907D01*
X1059630Y226057D01*
X1058506Y226280D01*
X1057399Y226577D01*
X1056314Y226945D01*
X1055256Y227383D01*
X1054228Y227890D01*
X1053236Y228463D01*
X1052283Y229100D01*
X1051374Y229797D01*
X1050513Y230553D01*
X1049703Y231363D01*
X1048947Y232224D01*
X1048250Y233133D01*
X1047613Y234086D01*
X1047040Y235078D01*
X1046533Y236106D01*
X1046095Y237164D01*
X1045727Y238249D01*
X1045430Y239356D01*
X1045207Y240480D01*
X1045057Y241616D01*
X1044982Y242759D01*
X1044982Y243905D01*
X1045057Y245048D01*
X1045207Y246184D01*
X1045430Y247308D01*
X1045727Y248415D01*
X1046095Y249500D01*
X1046533Y250558D01*
X1047040Y251586D01*
X1047613Y252578D01*
X1048250Y253531D01*
X1048947Y254440D01*
X1049703Y255301D01*
X1050513Y256111D01*
X1051374Y256867D01*
X1052283Y257564D01*
X1053236Y258201D01*
X1054228Y258774D01*
X1055256Y259281D01*
X1056314Y259719D01*
X1057399Y260087D01*
X1058506Y260384D01*
X1059630Y260608D01*
X1060766Y260757D01*
X1061909Y260832D01*
X1063055Y260832D01*
X1064198Y260757D01*
X1065334Y260608D01*
X1066458Y260384D01*
X1067565Y260087D01*
X1068650Y259719D01*
X1069708Y259281D01*
X1070736Y258774D01*
X1071728Y258201D01*
X1072681Y257564D01*
X1073590Y256867D01*
X1074451Y256111D01*
X1075261Y255301D01*
X1076017Y254440D01*
X1076714Y253531D01*
X1077351Y252578D01*
X1077924Y251586D01*
X1078431Y250558D01*
X1078869Y249500D01*
X1079237Y248415D01*
X1079534Y247308D01*
X1079758Y246184D01*
X1079907Y245048D01*
X1079982Y243905D01*
X1079982Y242759D01*
X798296Y661605D02*
X798221Y660462D01*
X798072Y659326D01*
X797848Y658202D01*
X797551Y657095D01*
X797183Y656010D01*
X796745Y654952D01*
X796238Y653924D01*
X795665Y652932D01*
X795028Y651979D01*
X794331Y651070D01*
X793575Y650209D01*
X792765Y649399D01*
X791904Y648643D01*
X790995Y647946D01*
X790042Y647309D01*
X789050Y646736D01*
X788022Y646229D01*
X786964Y645791D01*
X785879Y645423D01*
X784772Y645126D01*
X783648Y644903D01*
X782512Y644753D01*
X781369Y644678D01*
X780223Y644678D01*
X779080Y644753D01*
X777944Y644903D01*
X776820Y645126D01*
X775713Y645423D01*
X774628Y645791D01*
X773570Y646229D01*
X772542Y646736D01*
X771550Y647309D01*
X770597Y647946D01*
X769688Y648643D01*
X768827Y649399D01*
X768017Y650209D01*
X767261Y651070D01*
X766564Y651979D01*
X765927Y652932D01*
X765354Y653924D01*
X764847Y654952D01*
X764409Y656010D01*
X764041Y657095D01*
X763744Y658202D01*
X763521Y659326D01*
X763371Y660462D01*
X763296Y661605D01*
X763296Y662751D01*
X763371Y663894D01*
X763521Y665030D01*
X763744Y666154D01*
X764041Y667261D01*
X764409Y668346D01*
X764847Y669404D01*
X765354Y670432D01*
X765927Y671424D01*
X766564Y672377D01*
X767261Y673286D01*
X768017Y674147D01*
X768827Y674957D01*
X769688Y675713D01*
X770597Y676410D01*
X771550Y677047D01*
X772542Y677620D01*
X773570Y678127D01*
X774628Y678565D01*
X775713Y678933D01*
X776820Y679230D01*
X777944Y679454D01*
X779080Y679603D01*
X780223Y679678D01*
X781369Y679678D01*
X782512Y679603D01*
X783648Y679454D01*
X784772Y679230D01*
X785879Y678933D01*
X786964Y678565D01*
X788022Y678127D01*
X789050Y677620D01*
X790042Y677047D01*
X790995Y676410D01*
X791904Y675713D01*
X792765Y674957D01*
X793575Y674147D01*
X794331Y673286D01*
X795028Y672377D01*
X795665Y671424D01*
X796238Y670432D01*
X796745Y669404D01*
X797183Y668346D01*
X797551Y667261D01*
X797848Y666154D01*
X798072Y665030D01*
X798221Y663894D01*
X798296Y662751D01*
X798296Y661605D01*
M02*
