G04 EAGLE Gerber RS-274X export*
G75*
%MOMM*%
%FSLAX34Y34*%
%LPD*%
%INSilkscreen Bottom*%
%IPPOS*%
%AMOC8*
5,1,8,0,0,1.08239X$1,22.5*%
G01*
%ADD10C,0.127000*%
%ADD11C,0.203200*%


D10*
X11098Y467340D02*
X11098Y400340D01*
X33098Y400340D01*
X33098Y467340D01*
X11098Y467340D01*
D11*
X15494Y478105D02*
X15494Y480476D01*
X15494Y478105D02*
X15496Y478010D01*
X15502Y477914D01*
X15511Y477819D01*
X15525Y477725D01*
X15542Y477631D01*
X15563Y477538D01*
X15588Y477445D01*
X15616Y477354D01*
X15648Y477264D01*
X15684Y477176D01*
X15723Y477089D01*
X15766Y477003D01*
X15812Y476920D01*
X15861Y476838D01*
X15914Y476758D01*
X15970Y476681D01*
X16028Y476605D01*
X16090Y476533D01*
X16155Y476463D01*
X16223Y476395D01*
X16293Y476330D01*
X16365Y476268D01*
X16441Y476210D01*
X16518Y476154D01*
X16598Y476101D01*
X16679Y476052D01*
X16763Y476006D01*
X16849Y475963D01*
X16936Y475924D01*
X17024Y475888D01*
X17114Y475856D01*
X17205Y475828D01*
X17298Y475803D01*
X17391Y475782D01*
X17485Y475765D01*
X17579Y475751D01*
X17674Y475742D01*
X17770Y475736D01*
X17865Y475734D01*
X17865Y475735D02*
X23791Y475735D01*
X23791Y475734D02*
X23886Y475736D01*
X23982Y475742D01*
X24077Y475751D01*
X24171Y475765D01*
X24265Y475782D01*
X24358Y475803D01*
X24451Y475828D01*
X24542Y475856D01*
X24632Y475888D01*
X24720Y475924D01*
X24807Y475963D01*
X24893Y476006D01*
X24976Y476052D01*
X25058Y476101D01*
X25138Y476154D01*
X25215Y476210D01*
X25291Y476268D01*
X25363Y476330D01*
X25433Y476395D01*
X25501Y476463D01*
X25566Y476533D01*
X25628Y476605D01*
X25686Y476681D01*
X25742Y476758D01*
X25795Y476838D01*
X25844Y476919D01*
X25890Y477003D01*
X25933Y477089D01*
X25972Y477176D01*
X26008Y477264D01*
X26040Y477354D01*
X26068Y477445D01*
X26093Y477538D01*
X26114Y477631D01*
X26131Y477725D01*
X26145Y477819D01*
X26154Y477914D01*
X26160Y478009D01*
X26162Y478105D01*
X26162Y480476D01*
X20235Y487680D02*
X20235Y491236D01*
X20235Y487680D02*
X20237Y487585D01*
X20243Y487489D01*
X20252Y487394D01*
X20266Y487300D01*
X20283Y487206D01*
X20304Y487113D01*
X20329Y487020D01*
X20357Y486929D01*
X20389Y486839D01*
X20425Y486751D01*
X20464Y486664D01*
X20507Y486578D01*
X20553Y486495D01*
X20602Y486413D01*
X20655Y486333D01*
X20711Y486256D01*
X20769Y486180D01*
X20831Y486108D01*
X20896Y486038D01*
X20964Y485970D01*
X21034Y485905D01*
X21106Y485843D01*
X21182Y485785D01*
X21259Y485729D01*
X21339Y485676D01*
X21420Y485627D01*
X21504Y485581D01*
X21590Y485538D01*
X21677Y485499D01*
X21765Y485463D01*
X21855Y485431D01*
X21946Y485403D01*
X22039Y485378D01*
X22132Y485357D01*
X22226Y485340D01*
X22320Y485326D01*
X22415Y485317D01*
X22511Y485311D01*
X22606Y485309D01*
X23199Y485309D01*
X23199Y485310D02*
X23306Y485312D01*
X23413Y485318D01*
X23519Y485327D01*
X23625Y485341D01*
X23731Y485358D01*
X23836Y485379D01*
X23940Y485404D01*
X24043Y485433D01*
X24145Y485465D01*
X24246Y485501D01*
X24345Y485541D01*
X24443Y485584D01*
X24539Y485631D01*
X24634Y485681D01*
X24727Y485734D01*
X24817Y485791D01*
X24906Y485851D01*
X24992Y485914D01*
X25076Y485980D01*
X25158Y486050D01*
X25237Y486122D01*
X25313Y486197D01*
X25387Y486275D01*
X25457Y486355D01*
X25525Y486438D01*
X25590Y486523D01*
X25651Y486610D01*
X25710Y486700D01*
X25765Y486792D01*
X25817Y486885D01*
X25865Y486981D01*
X25910Y487078D01*
X25952Y487176D01*
X25989Y487276D01*
X26024Y487378D01*
X26054Y487480D01*
X26081Y487584D01*
X26104Y487688D01*
X26123Y487794D01*
X26138Y487900D01*
X26150Y488006D01*
X26158Y488113D01*
X26162Y488220D01*
X26162Y488326D01*
X26158Y488433D01*
X26150Y488540D01*
X26138Y488646D01*
X26123Y488752D01*
X26104Y488858D01*
X26081Y488962D01*
X26054Y489066D01*
X26024Y489168D01*
X25989Y489270D01*
X25952Y489370D01*
X25910Y489468D01*
X25865Y489565D01*
X25817Y489661D01*
X25765Y489755D01*
X25710Y489846D01*
X25651Y489936D01*
X25590Y490023D01*
X25525Y490108D01*
X25457Y490191D01*
X25387Y490271D01*
X25313Y490349D01*
X25237Y490424D01*
X25158Y490496D01*
X25076Y490566D01*
X24992Y490632D01*
X24906Y490695D01*
X24817Y490755D01*
X24727Y490812D01*
X24634Y490865D01*
X24539Y490915D01*
X24443Y490962D01*
X24345Y491005D01*
X24246Y491045D01*
X24145Y491081D01*
X24043Y491113D01*
X23940Y491142D01*
X23836Y491167D01*
X23731Y491188D01*
X23625Y491205D01*
X23519Y491219D01*
X23413Y491228D01*
X23306Y491234D01*
X23199Y491236D01*
X20235Y491236D01*
X20100Y491234D01*
X19964Y491228D01*
X19829Y491219D01*
X19695Y491205D01*
X19560Y491188D01*
X19427Y491167D01*
X19293Y491142D01*
X19161Y491113D01*
X19030Y491080D01*
X18899Y491044D01*
X18770Y491004D01*
X18642Y490960D01*
X18515Y490913D01*
X18389Y490862D01*
X18266Y490808D01*
X18143Y490750D01*
X18023Y490688D01*
X17904Y490623D01*
X17787Y490555D01*
X17672Y490483D01*
X17559Y490409D01*
X17448Y490331D01*
X17340Y490249D01*
X17234Y490165D01*
X17130Y490078D01*
X17029Y489988D01*
X16931Y489895D01*
X16835Y489799D01*
X16742Y489701D01*
X16652Y489600D01*
X16565Y489496D01*
X16481Y489390D01*
X16399Y489282D01*
X16321Y489171D01*
X16247Y489058D01*
X16175Y488943D01*
X16107Y488826D01*
X16042Y488707D01*
X15980Y488587D01*
X15922Y488464D01*
X15868Y488341D01*
X15817Y488215D01*
X15770Y488088D01*
X15726Y487960D01*
X15686Y487831D01*
X15650Y487700D01*
X15617Y487569D01*
X15588Y487437D01*
X15563Y487303D01*
X15542Y487170D01*
X15525Y487035D01*
X15511Y486901D01*
X15502Y486766D01*
X15496Y486630D01*
X15494Y486495D01*
D10*
X11098Y578140D02*
X11098Y645140D01*
X11098Y578140D02*
X33098Y578140D01*
X33098Y645140D01*
X11098Y645140D01*
D11*
X14986Y651849D02*
X14986Y654219D01*
X14986Y651849D02*
X14988Y651754D01*
X14994Y651658D01*
X15003Y651563D01*
X15017Y651469D01*
X15034Y651375D01*
X15055Y651282D01*
X15080Y651189D01*
X15108Y651098D01*
X15140Y651008D01*
X15176Y650920D01*
X15215Y650833D01*
X15258Y650747D01*
X15304Y650664D01*
X15353Y650582D01*
X15406Y650502D01*
X15462Y650425D01*
X15520Y650349D01*
X15582Y650277D01*
X15647Y650207D01*
X15715Y650139D01*
X15785Y650074D01*
X15857Y650012D01*
X15933Y649954D01*
X16010Y649898D01*
X16090Y649845D01*
X16171Y649796D01*
X16255Y649750D01*
X16341Y649707D01*
X16428Y649668D01*
X16516Y649632D01*
X16606Y649600D01*
X16697Y649572D01*
X16790Y649547D01*
X16883Y649526D01*
X16977Y649509D01*
X17071Y649495D01*
X17166Y649486D01*
X17262Y649480D01*
X17357Y649478D01*
X23283Y649478D01*
X23378Y649480D01*
X23474Y649486D01*
X23569Y649495D01*
X23663Y649509D01*
X23757Y649526D01*
X23850Y649547D01*
X23943Y649572D01*
X24034Y649600D01*
X24124Y649632D01*
X24212Y649668D01*
X24299Y649707D01*
X24385Y649750D01*
X24468Y649796D01*
X24550Y649845D01*
X24630Y649898D01*
X24707Y649954D01*
X24783Y650012D01*
X24855Y650074D01*
X24925Y650139D01*
X24993Y650207D01*
X25058Y650277D01*
X25120Y650349D01*
X25178Y650425D01*
X25234Y650502D01*
X25287Y650582D01*
X25336Y650663D01*
X25382Y650747D01*
X25425Y650833D01*
X25464Y650920D01*
X25500Y651008D01*
X25532Y651098D01*
X25560Y651189D01*
X25585Y651282D01*
X25606Y651375D01*
X25623Y651469D01*
X25637Y651563D01*
X25646Y651658D01*
X25652Y651753D01*
X25654Y651849D01*
X25654Y654219D01*
X23283Y659053D02*
X25654Y662016D01*
X14986Y662016D01*
X14986Y659053D02*
X14986Y664979D01*
X20320Y670483D02*
X20530Y670486D01*
X20740Y670493D01*
X20949Y670506D01*
X21158Y670523D01*
X21367Y670546D01*
X21575Y670573D01*
X21782Y670605D01*
X21989Y670643D01*
X22194Y670685D01*
X22399Y670732D01*
X22602Y670784D01*
X22804Y670841D01*
X23005Y670903D01*
X23204Y670969D01*
X23401Y671041D01*
X23597Y671117D01*
X23791Y671197D01*
X23983Y671282D01*
X24172Y671372D01*
X24257Y671403D01*
X24341Y671437D01*
X24423Y671475D01*
X24504Y671517D01*
X24583Y671562D01*
X24660Y671610D01*
X24735Y671661D01*
X24807Y671715D01*
X24878Y671772D01*
X24946Y671832D01*
X25011Y671895D01*
X25074Y671960D01*
X25134Y672028D01*
X25191Y672099D01*
X25245Y672171D01*
X25297Y672246D01*
X25345Y672323D01*
X25390Y672402D01*
X25431Y672483D01*
X25469Y672565D01*
X25504Y672649D01*
X25535Y672734D01*
X25563Y672820D01*
X25587Y672907D01*
X25607Y672996D01*
X25624Y673085D01*
X25637Y673175D01*
X25647Y673265D01*
X25652Y673355D01*
X25654Y673446D01*
X25652Y673537D01*
X25647Y673627D01*
X25637Y673717D01*
X25624Y673807D01*
X25607Y673896D01*
X25587Y673985D01*
X25563Y674072D01*
X25535Y674158D01*
X25504Y674243D01*
X25469Y674327D01*
X25431Y674409D01*
X25390Y674490D01*
X25345Y674569D01*
X25297Y674646D01*
X25246Y674721D01*
X25191Y674793D01*
X25134Y674864D01*
X25074Y674932D01*
X25011Y674997D01*
X24946Y675060D01*
X24878Y675120D01*
X24807Y675177D01*
X24735Y675231D01*
X24660Y675282D01*
X24583Y675330D01*
X24504Y675375D01*
X24423Y675417D01*
X24341Y675455D01*
X24257Y675489D01*
X24172Y675520D01*
X23983Y675610D01*
X23791Y675695D01*
X23597Y675775D01*
X23401Y675851D01*
X23204Y675923D01*
X23005Y675989D01*
X22804Y676051D01*
X22602Y676108D01*
X22399Y676160D01*
X22194Y676207D01*
X21989Y676249D01*
X21782Y676287D01*
X21575Y676319D01*
X21367Y676346D01*
X21158Y676369D01*
X20949Y676386D01*
X20740Y676399D01*
X20530Y676406D01*
X20320Y676409D01*
X20320Y670483D02*
X20110Y670486D01*
X19900Y670493D01*
X19691Y670506D01*
X19482Y670523D01*
X19273Y670546D01*
X19065Y670573D01*
X18858Y670605D01*
X18651Y670643D01*
X18446Y670685D01*
X18241Y670732D01*
X18038Y670784D01*
X17836Y670841D01*
X17635Y670903D01*
X17436Y670969D01*
X17239Y671041D01*
X17043Y671117D01*
X16849Y671197D01*
X16658Y671282D01*
X16468Y671372D01*
X16383Y671403D01*
X16299Y671437D01*
X16217Y671475D01*
X16136Y671517D01*
X16057Y671562D01*
X15980Y671610D01*
X15905Y671661D01*
X15833Y671715D01*
X15762Y671772D01*
X15694Y671832D01*
X15629Y671895D01*
X15566Y671960D01*
X15506Y672028D01*
X15449Y672099D01*
X15394Y672171D01*
X15343Y672246D01*
X15295Y672323D01*
X15250Y672402D01*
X15209Y672483D01*
X15171Y672565D01*
X15136Y672649D01*
X15105Y672734D01*
X15077Y672820D01*
X15053Y672907D01*
X15033Y672996D01*
X15016Y673085D01*
X15003Y673175D01*
X14993Y673265D01*
X14988Y673355D01*
X14986Y673446D01*
X16468Y675520D02*
X16658Y675610D01*
X16849Y675695D01*
X17043Y675775D01*
X17239Y675851D01*
X17436Y675923D01*
X17635Y675989D01*
X17836Y676051D01*
X18038Y676108D01*
X18241Y676160D01*
X18446Y676207D01*
X18651Y676249D01*
X18858Y676287D01*
X19065Y676319D01*
X19273Y676346D01*
X19482Y676369D01*
X19691Y676386D01*
X19900Y676399D01*
X20110Y676406D01*
X20320Y676409D01*
X16468Y675520D02*
X16383Y675489D01*
X16299Y675455D01*
X16217Y675417D01*
X16136Y675375D01*
X16057Y675330D01*
X15980Y675282D01*
X15905Y675231D01*
X15833Y675177D01*
X15762Y675120D01*
X15694Y675060D01*
X15629Y674997D01*
X15566Y674932D01*
X15506Y674864D01*
X15449Y674793D01*
X15394Y674721D01*
X15343Y674646D01*
X15295Y674569D01*
X15250Y674490D01*
X15209Y674409D01*
X15171Y674327D01*
X15136Y674243D01*
X15105Y674158D01*
X15077Y674072D01*
X15053Y673985D01*
X15033Y673896D01*
X15016Y673807D01*
X15003Y673717D01*
X14993Y673627D01*
X14988Y673537D01*
X14986Y673446D01*
X17357Y671075D02*
X23283Y675817D01*
D10*
X11098Y289540D02*
X11098Y222540D01*
X33098Y222540D01*
X33098Y289540D01*
X11098Y289540D01*
D11*
X14478Y296749D02*
X14478Y299120D01*
X14478Y296749D02*
X14480Y296654D01*
X14486Y296558D01*
X14495Y296463D01*
X14509Y296369D01*
X14526Y296275D01*
X14547Y296182D01*
X14572Y296089D01*
X14600Y295998D01*
X14632Y295908D01*
X14668Y295820D01*
X14707Y295733D01*
X14750Y295647D01*
X14796Y295564D01*
X14845Y295482D01*
X14898Y295402D01*
X14954Y295325D01*
X15012Y295249D01*
X15074Y295177D01*
X15139Y295107D01*
X15207Y295039D01*
X15277Y294974D01*
X15349Y294912D01*
X15425Y294854D01*
X15502Y294798D01*
X15582Y294745D01*
X15663Y294696D01*
X15747Y294650D01*
X15833Y294607D01*
X15920Y294568D01*
X16008Y294532D01*
X16098Y294500D01*
X16189Y294472D01*
X16282Y294447D01*
X16375Y294426D01*
X16469Y294409D01*
X16563Y294395D01*
X16658Y294386D01*
X16754Y294380D01*
X16849Y294378D01*
X16849Y294379D02*
X22775Y294379D01*
X22775Y294378D02*
X22870Y294380D01*
X22966Y294386D01*
X23061Y294395D01*
X23155Y294409D01*
X23249Y294426D01*
X23342Y294447D01*
X23435Y294472D01*
X23526Y294500D01*
X23616Y294532D01*
X23704Y294568D01*
X23791Y294607D01*
X23877Y294650D01*
X23960Y294696D01*
X24042Y294745D01*
X24122Y294798D01*
X24199Y294854D01*
X24275Y294912D01*
X24347Y294974D01*
X24417Y295039D01*
X24485Y295107D01*
X24550Y295177D01*
X24612Y295249D01*
X24670Y295325D01*
X24726Y295402D01*
X24779Y295482D01*
X24828Y295563D01*
X24874Y295647D01*
X24917Y295733D01*
X24956Y295820D01*
X24992Y295908D01*
X25024Y295998D01*
X25052Y296089D01*
X25077Y296182D01*
X25098Y296275D01*
X25115Y296369D01*
X25129Y296463D01*
X25138Y296558D01*
X25144Y296653D01*
X25146Y296749D01*
X25146Y299120D01*
X22775Y303953D02*
X25146Y306917D01*
X14478Y306917D01*
X14478Y309880D02*
X14478Y303953D01*
X22775Y315383D02*
X25146Y318347D01*
X14478Y318347D01*
X14478Y321310D02*
X14478Y315383D01*
D10*
X11098Y111740D02*
X11098Y44740D01*
X33098Y44740D01*
X33098Y111740D01*
X11098Y111740D01*
D11*
X12192Y119965D02*
X12192Y122336D01*
X12192Y119965D02*
X12194Y119870D01*
X12200Y119774D01*
X12209Y119679D01*
X12223Y119585D01*
X12240Y119491D01*
X12261Y119398D01*
X12286Y119305D01*
X12314Y119214D01*
X12346Y119124D01*
X12382Y119036D01*
X12421Y118949D01*
X12464Y118863D01*
X12510Y118780D01*
X12559Y118698D01*
X12612Y118618D01*
X12668Y118541D01*
X12726Y118465D01*
X12788Y118393D01*
X12853Y118323D01*
X12921Y118255D01*
X12991Y118190D01*
X13063Y118128D01*
X13139Y118070D01*
X13216Y118014D01*
X13296Y117961D01*
X13377Y117912D01*
X13461Y117866D01*
X13547Y117823D01*
X13634Y117784D01*
X13722Y117748D01*
X13812Y117716D01*
X13903Y117688D01*
X13996Y117663D01*
X14089Y117642D01*
X14183Y117625D01*
X14277Y117611D01*
X14372Y117602D01*
X14468Y117596D01*
X14563Y117594D01*
X14563Y117595D02*
X20489Y117595D01*
X20489Y117594D02*
X20584Y117596D01*
X20680Y117602D01*
X20775Y117611D01*
X20869Y117625D01*
X20963Y117642D01*
X21056Y117663D01*
X21149Y117688D01*
X21240Y117716D01*
X21330Y117748D01*
X21418Y117784D01*
X21505Y117823D01*
X21591Y117866D01*
X21674Y117912D01*
X21756Y117961D01*
X21836Y118014D01*
X21913Y118070D01*
X21989Y118128D01*
X22061Y118190D01*
X22131Y118255D01*
X22199Y118323D01*
X22264Y118393D01*
X22326Y118465D01*
X22384Y118541D01*
X22440Y118618D01*
X22493Y118698D01*
X22542Y118779D01*
X22588Y118863D01*
X22631Y118949D01*
X22670Y119036D01*
X22706Y119124D01*
X22738Y119214D01*
X22766Y119305D01*
X22791Y119398D01*
X22812Y119491D01*
X22829Y119585D01*
X22843Y119679D01*
X22852Y119774D01*
X22858Y119869D01*
X22860Y119965D01*
X22860Y122336D01*
X20489Y127169D02*
X22860Y130133D01*
X12192Y130133D01*
X12192Y133096D02*
X12192Y127169D01*
X22860Y141859D02*
X22858Y141961D01*
X22852Y142063D01*
X22842Y142165D01*
X22829Y142266D01*
X22811Y142367D01*
X22790Y142467D01*
X22765Y142566D01*
X22736Y142664D01*
X22703Y142761D01*
X22667Y142856D01*
X22627Y142950D01*
X22583Y143042D01*
X22536Y143133D01*
X22485Y143222D01*
X22432Y143309D01*
X22374Y143393D01*
X22314Y143476D01*
X22251Y143556D01*
X22184Y143633D01*
X22115Y143708D01*
X22042Y143781D01*
X21967Y143850D01*
X21890Y143917D01*
X21810Y143980D01*
X21727Y144040D01*
X21643Y144098D01*
X21556Y144151D01*
X21467Y144202D01*
X21376Y144249D01*
X21284Y144293D01*
X21190Y144333D01*
X21094Y144369D01*
X20998Y144402D01*
X20900Y144431D01*
X20801Y144456D01*
X20701Y144477D01*
X20600Y144495D01*
X20499Y144508D01*
X20397Y144518D01*
X20295Y144524D01*
X20193Y144526D01*
X22860Y141859D02*
X22858Y141743D01*
X22852Y141626D01*
X22842Y141510D01*
X22828Y141395D01*
X22811Y141280D01*
X22789Y141165D01*
X22763Y141052D01*
X22734Y140939D01*
X22701Y140827D01*
X22664Y140717D01*
X22623Y140608D01*
X22579Y140500D01*
X22531Y140394D01*
X22479Y140290D01*
X22424Y140187D01*
X22366Y140086D01*
X22304Y139988D01*
X22239Y139891D01*
X22170Y139797D01*
X22098Y139705D01*
X22024Y139616D01*
X21946Y139529D01*
X21865Y139445D01*
X21782Y139364D01*
X21696Y139286D01*
X21607Y139210D01*
X21516Y139138D01*
X21422Y139069D01*
X21326Y139003D01*
X21228Y138940D01*
X21128Y138881D01*
X21026Y138825D01*
X20922Y138773D01*
X20816Y138724D01*
X20708Y138679D01*
X20600Y138637D01*
X20490Y138600D01*
X18118Y143638D02*
X18192Y143713D01*
X18269Y143785D01*
X18349Y143854D01*
X18431Y143921D01*
X18515Y143984D01*
X18602Y144044D01*
X18690Y144101D01*
X18781Y144155D01*
X18874Y144205D01*
X18968Y144252D01*
X19064Y144295D01*
X19162Y144335D01*
X19261Y144371D01*
X19361Y144404D01*
X19463Y144432D01*
X19565Y144457D01*
X19669Y144479D01*
X19773Y144496D01*
X19877Y144510D01*
X19982Y144519D01*
X20088Y144525D01*
X20193Y144527D01*
X18119Y143637D02*
X12192Y138599D01*
X12192Y144526D01*
M02*
