G04 EAGLE Gerber RS-274X export*
G75*
%MOMM*%
%FSLAX34Y34*%
%LPD*%
%INSoldermask Bottom*%
%IPPOS*%
%AMOC8*
5,1,8,0,0,1.08239X$1,22.5*%
G01*
%ADD10C,3.703200*%
%ADD11C,0.911200*%
%ADD12C,0.836200*%
%ADD13R,1.672400X1.672400*%
%ADD14C,1.476200*%
%ADD15C,1.561200*%
%ADD16R,2.003200X2.703200*%
%ADD17C,3.519200*%
%ADD18C,1.631200*%
%ADD19R,1.631200X1.631200*%
%ADD20C,1.422400*%


D10*
X257048Y661416D03*
X250190Y53594D03*
X1062482Y243332D03*
X780796Y662178D03*
D11*
X563755Y141580D03*
X545405Y141580D03*
X572930Y150755D03*
X554580Y150755D03*
X536230Y150755D03*
X563755Y159930D03*
X545405Y159930D03*
X572930Y169105D03*
X554580Y169105D03*
X536230Y169105D03*
X563755Y178280D03*
X545405Y178280D03*
D12*
X99197Y61520D02*
X99199Y61649D01*
X99205Y61777D01*
X99215Y61906D01*
X99229Y62034D01*
X99246Y62161D01*
X99268Y62288D01*
X99294Y62414D01*
X99323Y62540D01*
X99357Y62664D01*
X99394Y62787D01*
X99435Y62910D01*
X99479Y63030D01*
X99528Y63150D01*
X99580Y63267D01*
X99635Y63384D01*
X99694Y63498D01*
X99757Y63610D01*
X99823Y63721D01*
X99893Y63829D01*
X99965Y63936D01*
X100041Y64040D01*
X100121Y64141D01*
X100203Y64240D01*
X100288Y64337D01*
X100376Y64431D01*
X100467Y64522D01*
X100561Y64610D01*
X100658Y64695D01*
X100757Y64777D01*
X100858Y64857D01*
X100962Y64933D01*
X101069Y65005D01*
X101177Y65075D01*
X101287Y65141D01*
X101400Y65204D01*
X101514Y65263D01*
X101631Y65318D01*
X101748Y65370D01*
X101868Y65419D01*
X101988Y65463D01*
X102111Y65504D01*
X102234Y65541D01*
X102358Y65575D01*
X102484Y65604D01*
X102610Y65630D01*
X102737Y65652D01*
X102864Y65669D01*
X102992Y65683D01*
X103121Y65693D01*
X103249Y65699D01*
X103378Y65701D01*
X103507Y65699D01*
X103635Y65693D01*
X103764Y65683D01*
X103892Y65669D01*
X104019Y65652D01*
X104146Y65630D01*
X104272Y65604D01*
X104398Y65575D01*
X104522Y65541D01*
X104645Y65504D01*
X104768Y65463D01*
X104888Y65419D01*
X105008Y65370D01*
X105125Y65318D01*
X105242Y65263D01*
X105356Y65204D01*
X105468Y65141D01*
X105579Y65075D01*
X105687Y65005D01*
X105794Y64933D01*
X105898Y64857D01*
X105999Y64777D01*
X106098Y64695D01*
X106195Y64610D01*
X106289Y64522D01*
X106380Y64431D01*
X106468Y64337D01*
X106553Y64240D01*
X106635Y64141D01*
X106715Y64040D01*
X106791Y63936D01*
X106863Y63829D01*
X106933Y63721D01*
X106999Y63610D01*
X107062Y63498D01*
X107121Y63384D01*
X107176Y63267D01*
X107228Y63150D01*
X107277Y63030D01*
X107321Y62910D01*
X107362Y62787D01*
X107399Y62664D01*
X107433Y62540D01*
X107462Y62414D01*
X107488Y62288D01*
X107510Y62161D01*
X107527Y62034D01*
X107541Y61906D01*
X107551Y61777D01*
X107557Y61649D01*
X107559Y61520D01*
X107557Y61391D01*
X107551Y61263D01*
X107541Y61134D01*
X107527Y61006D01*
X107510Y60879D01*
X107488Y60752D01*
X107462Y60626D01*
X107433Y60500D01*
X107399Y60376D01*
X107362Y60253D01*
X107321Y60130D01*
X107277Y60010D01*
X107228Y59890D01*
X107176Y59773D01*
X107121Y59656D01*
X107062Y59542D01*
X106999Y59430D01*
X106933Y59319D01*
X106863Y59211D01*
X106791Y59104D01*
X106715Y59000D01*
X106635Y58899D01*
X106553Y58800D01*
X106468Y58703D01*
X106380Y58609D01*
X106289Y58518D01*
X106195Y58430D01*
X106098Y58345D01*
X105999Y58263D01*
X105898Y58183D01*
X105794Y58107D01*
X105687Y58035D01*
X105579Y57965D01*
X105469Y57899D01*
X105356Y57836D01*
X105242Y57777D01*
X105125Y57722D01*
X105008Y57670D01*
X104888Y57621D01*
X104768Y57577D01*
X104645Y57536D01*
X104522Y57499D01*
X104398Y57465D01*
X104272Y57436D01*
X104146Y57410D01*
X104019Y57388D01*
X103892Y57371D01*
X103764Y57357D01*
X103635Y57347D01*
X103507Y57341D01*
X103378Y57339D01*
X103249Y57341D01*
X103121Y57347D01*
X102992Y57357D01*
X102864Y57371D01*
X102737Y57388D01*
X102610Y57410D01*
X102484Y57436D01*
X102358Y57465D01*
X102234Y57499D01*
X102111Y57536D01*
X101988Y57577D01*
X101868Y57621D01*
X101748Y57670D01*
X101631Y57722D01*
X101514Y57777D01*
X101400Y57836D01*
X101287Y57899D01*
X101177Y57965D01*
X101069Y58035D01*
X100962Y58107D01*
X100858Y58183D01*
X100757Y58263D01*
X100658Y58345D01*
X100561Y58430D01*
X100467Y58518D01*
X100376Y58609D01*
X100288Y58703D01*
X100203Y58800D01*
X100121Y58899D01*
X100041Y59000D01*
X99965Y59104D01*
X99893Y59211D01*
X99823Y59319D01*
X99757Y59429D01*
X99694Y59542D01*
X99635Y59656D01*
X99580Y59773D01*
X99528Y59890D01*
X99479Y60010D01*
X99435Y60130D01*
X99394Y60253D01*
X99357Y60376D01*
X99323Y60500D01*
X99294Y60626D01*
X99268Y60752D01*
X99246Y60879D01*
X99229Y61006D01*
X99215Y61134D01*
X99205Y61263D01*
X99199Y61391D01*
X99197Y61520D01*
D13*
X103378Y96520D03*
D12*
X53197Y61520D02*
X53199Y61649D01*
X53205Y61777D01*
X53215Y61906D01*
X53229Y62034D01*
X53246Y62161D01*
X53268Y62288D01*
X53294Y62414D01*
X53323Y62540D01*
X53357Y62664D01*
X53394Y62787D01*
X53435Y62910D01*
X53479Y63030D01*
X53528Y63150D01*
X53580Y63267D01*
X53635Y63384D01*
X53694Y63498D01*
X53757Y63610D01*
X53823Y63721D01*
X53893Y63829D01*
X53965Y63936D01*
X54041Y64040D01*
X54121Y64141D01*
X54203Y64240D01*
X54288Y64337D01*
X54376Y64431D01*
X54467Y64522D01*
X54561Y64610D01*
X54658Y64695D01*
X54757Y64777D01*
X54858Y64857D01*
X54962Y64933D01*
X55069Y65005D01*
X55177Y65075D01*
X55287Y65141D01*
X55400Y65204D01*
X55514Y65263D01*
X55631Y65318D01*
X55748Y65370D01*
X55868Y65419D01*
X55988Y65463D01*
X56111Y65504D01*
X56234Y65541D01*
X56358Y65575D01*
X56484Y65604D01*
X56610Y65630D01*
X56737Y65652D01*
X56864Y65669D01*
X56992Y65683D01*
X57121Y65693D01*
X57249Y65699D01*
X57378Y65701D01*
X57507Y65699D01*
X57635Y65693D01*
X57764Y65683D01*
X57892Y65669D01*
X58019Y65652D01*
X58146Y65630D01*
X58272Y65604D01*
X58398Y65575D01*
X58522Y65541D01*
X58645Y65504D01*
X58768Y65463D01*
X58888Y65419D01*
X59008Y65370D01*
X59125Y65318D01*
X59242Y65263D01*
X59356Y65204D01*
X59468Y65141D01*
X59579Y65075D01*
X59687Y65005D01*
X59794Y64933D01*
X59898Y64857D01*
X59999Y64777D01*
X60098Y64695D01*
X60195Y64610D01*
X60289Y64522D01*
X60380Y64431D01*
X60468Y64337D01*
X60553Y64240D01*
X60635Y64141D01*
X60715Y64040D01*
X60791Y63936D01*
X60863Y63829D01*
X60933Y63721D01*
X60999Y63610D01*
X61062Y63498D01*
X61121Y63384D01*
X61176Y63267D01*
X61228Y63150D01*
X61277Y63030D01*
X61321Y62910D01*
X61362Y62787D01*
X61399Y62664D01*
X61433Y62540D01*
X61462Y62414D01*
X61488Y62288D01*
X61510Y62161D01*
X61527Y62034D01*
X61541Y61906D01*
X61551Y61777D01*
X61557Y61649D01*
X61559Y61520D01*
X61557Y61391D01*
X61551Y61263D01*
X61541Y61134D01*
X61527Y61006D01*
X61510Y60879D01*
X61488Y60752D01*
X61462Y60626D01*
X61433Y60500D01*
X61399Y60376D01*
X61362Y60253D01*
X61321Y60130D01*
X61277Y60010D01*
X61228Y59890D01*
X61176Y59773D01*
X61121Y59656D01*
X61062Y59542D01*
X60999Y59430D01*
X60933Y59319D01*
X60863Y59211D01*
X60791Y59104D01*
X60715Y59000D01*
X60635Y58899D01*
X60553Y58800D01*
X60468Y58703D01*
X60380Y58609D01*
X60289Y58518D01*
X60195Y58430D01*
X60098Y58345D01*
X59999Y58263D01*
X59898Y58183D01*
X59794Y58107D01*
X59687Y58035D01*
X59579Y57965D01*
X59469Y57899D01*
X59356Y57836D01*
X59242Y57777D01*
X59125Y57722D01*
X59008Y57670D01*
X58888Y57621D01*
X58768Y57577D01*
X58645Y57536D01*
X58522Y57499D01*
X58398Y57465D01*
X58272Y57436D01*
X58146Y57410D01*
X58019Y57388D01*
X57892Y57371D01*
X57764Y57357D01*
X57635Y57347D01*
X57507Y57341D01*
X57378Y57339D01*
X57249Y57341D01*
X57121Y57347D01*
X56992Y57357D01*
X56864Y57371D01*
X56737Y57388D01*
X56610Y57410D01*
X56484Y57436D01*
X56358Y57465D01*
X56234Y57499D01*
X56111Y57536D01*
X55988Y57577D01*
X55868Y57621D01*
X55748Y57670D01*
X55631Y57722D01*
X55514Y57777D01*
X55400Y57836D01*
X55287Y57899D01*
X55177Y57965D01*
X55069Y58035D01*
X54962Y58107D01*
X54858Y58183D01*
X54757Y58263D01*
X54658Y58345D01*
X54561Y58430D01*
X54467Y58518D01*
X54376Y58609D01*
X54288Y58703D01*
X54203Y58800D01*
X54121Y58899D01*
X54041Y59000D01*
X53965Y59104D01*
X53893Y59211D01*
X53823Y59319D01*
X53757Y59429D01*
X53694Y59542D01*
X53635Y59656D01*
X53580Y59773D01*
X53528Y59890D01*
X53479Y60010D01*
X53435Y60130D01*
X53394Y60253D01*
X53357Y60376D01*
X53323Y60500D01*
X53294Y60626D01*
X53268Y60752D01*
X53246Y60879D01*
X53229Y61006D01*
X53215Y61134D01*
X53205Y61263D01*
X53199Y61391D01*
X53197Y61520D01*
X53197Y96520D02*
X53199Y96649D01*
X53205Y96777D01*
X53215Y96906D01*
X53229Y97034D01*
X53246Y97161D01*
X53268Y97288D01*
X53294Y97414D01*
X53323Y97540D01*
X53357Y97664D01*
X53394Y97787D01*
X53435Y97910D01*
X53479Y98030D01*
X53528Y98150D01*
X53580Y98267D01*
X53635Y98384D01*
X53694Y98498D01*
X53757Y98610D01*
X53823Y98721D01*
X53893Y98829D01*
X53965Y98936D01*
X54041Y99040D01*
X54121Y99141D01*
X54203Y99240D01*
X54288Y99337D01*
X54376Y99431D01*
X54467Y99522D01*
X54561Y99610D01*
X54658Y99695D01*
X54757Y99777D01*
X54858Y99857D01*
X54962Y99933D01*
X55069Y100005D01*
X55177Y100075D01*
X55287Y100141D01*
X55400Y100204D01*
X55514Y100263D01*
X55631Y100318D01*
X55748Y100370D01*
X55868Y100419D01*
X55988Y100463D01*
X56111Y100504D01*
X56234Y100541D01*
X56358Y100575D01*
X56484Y100604D01*
X56610Y100630D01*
X56737Y100652D01*
X56864Y100669D01*
X56992Y100683D01*
X57121Y100693D01*
X57249Y100699D01*
X57378Y100701D01*
X57507Y100699D01*
X57635Y100693D01*
X57764Y100683D01*
X57892Y100669D01*
X58019Y100652D01*
X58146Y100630D01*
X58272Y100604D01*
X58398Y100575D01*
X58522Y100541D01*
X58645Y100504D01*
X58768Y100463D01*
X58888Y100419D01*
X59008Y100370D01*
X59125Y100318D01*
X59242Y100263D01*
X59356Y100204D01*
X59468Y100141D01*
X59579Y100075D01*
X59687Y100005D01*
X59794Y99933D01*
X59898Y99857D01*
X59999Y99777D01*
X60098Y99695D01*
X60195Y99610D01*
X60289Y99522D01*
X60380Y99431D01*
X60468Y99337D01*
X60553Y99240D01*
X60635Y99141D01*
X60715Y99040D01*
X60791Y98936D01*
X60863Y98829D01*
X60933Y98721D01*
X60999Y98610D01*
X61062Y98498D01*
X61121Y98384D01*
X61176Y98267D01*
X61228Y98150D01*
X61277Y98030D01*
X61321Y97910D01*
X61362Y97787D01*
X61399Y97664D01*
X61433Y97540D01*
X61462Y97414D01*
X61488Y97288D01*
X61510Y97161D01*
X61527Y97034D01*
X61541Y96906D01*
X61551Y96777D01*
X61557Y96649D01*
X61559Y96520D01*
X61557Y96391D01*
X61551Y96263D01*
X61541Y96134D01*
X61527Y96006D01*
X61510Y95879D01*
X61488Y95752D01*
X61462Y95626D01*
X61433Y95500D01*
X61399Y95376D01*
X61362Y95253D01*
X61321Y95130D01*
X61277Y95010D01*
X61228Y94890D01*
X61176Y94773D01*
X61121Y94656D01*
X61062Y94542D01*
X60999Y94430D01*
X60933Y94319D01*
X60863Y94211D01*
X60791Y94104D01*
X60715Y94000D01*
X60635Y93899D01*
X60553Y93800D01*
X60468Y93703D01*
X60380Y93609D01*
X60289Y93518D01*
X60195Y93430D01*
X60098Y93345D01*
X59999Y93263D01*
X59898Y93183D01*
X59794Y93107D01*
X59687Y93035D01*
X59579Y92965D01*
X59469Y92899D01*
X59356Y92836D01*
X59242Y92777D01*
X59125Y92722D01*
X59008Y92670D01*
X58888Y92621D01*
X58768Y92577D01*
X58645Y92536D01*
X58522Y92499D01*
X58398Y92465D01*
X58272Y92436D01*
X58146Y92410D01*
X58019Y92388D01*
X57892Y92371D01*
X57764Y92357D01*
X57635Y92347D01*
X57507Y92341D01*
X57378Y92339D01*
X57249Y92341D01*
X57121Y92347D01*
X56992Y92357D01*
X56864Y92371D01*
X56737Y92388D01*
X56610Y92410D01*
X56484Y92436D01*
X56358Y92465D01*
X56234Y92499D01*
X56111Y92536D01*
X55988Y92577D01*
X55868Y92621D01*
X55748Y92670D01*
X55631Y92722D01*
X55514Y92777D01*
X55400Y92836D01*
X55287Y92899D01*
X55177Y92965D01*
X55069Y93035D01*
X54962Y93107D01*
X54858Y93183D01*
X54757Y93263D01*
X54658Y93345D01*
X54561Y93430D01*
X54467Y93518D01*
X54376Y93609D01*
X54288Y93703D01*
X54203Y93800D01*
X54121Y93899D01*
X54041Y94000D01*
X53965Y94104D01*
X53893Y94211D01*
X53823Y94319D01*
X53757Y94429D01*
X53694Y94542D01*
X53635Y94656D01*
X53580Y94773D01*
X53528Y94890D01*
X53479Y95010D01*
X53435Y95130D01*
X53394Y95253D01*
X53357Y95376D01*
X53323Y95500D01*
X53294Y95626D01*
X53268Y95752D01*
X53246Y95879D01*
X53229Y96006D01*
X53215Y96134D01*
X53205Y96263D01*
X53199Y96391D01*
X53197Y96520D01*
D14*
X64197Y36520D02*
X64199Y36701D01*
X64206Y36882D01*
X64217Y37063D01*
X64233Y37243D01*
X64253Y37424D01*
X64277Y37603D01*
X64306Y37782D01*
X64339Y37960D01*
X64376Y38137D01*
X64418Y38313D01*
X64464Y38489D01*
X64515Y38663D01*
X64570Y38835D01*
X64628Y39007D01*
X64692Y39176D01*
X64759Y39345D01*
X64830Y39511D01*
X64906Y39676D01*
X64985Y39839D01*
X65069Y39999D01*
X65156Y40158D01*
X65247Y40315D01*
X65342Y40469D01*
X65441Y40621D01*
X65543Y40770D01*
X65650Y40917D01*
X65759Y41061D01*
X65872Y41202D01*
X65989Y41341D01*
X66109Y41477D01*
X66232Y41609D01*
X66359Y41739D01*
X66489Y41866D01*
X66621Y41989D01*
X66757Y42109D01*
X66896Y42226D01*
X67037Y42339D01*
X67181Y42448D01*
X67328Y42555D01*
X67477Y42657D01*
X67629Y42756D01*
X67783Y42851D01*
X67940Y42942D01*
X68099Y43029D01*
X68259Y43113D01*
X68422Y43192D01*
X68587Y43268D01*
X68753Y43339D01*
X68922Y43406D01*
X69091Y43470D01*
X69263Y43528D01*
X69435Y43583D01*
X69609Y43634D01*
X69785Y43680D01*
X69961Y43722D01*
X70138Y43759D01*
X70316Y43792D01*
X70495Y43821D01*
X70674Y43845D01*
X70855Y43865D01*
X71035Y43881D01*
X71216Y43892D01*
X71397Y43899D01*
X71578Y43901D01*
X71759Y43899D01*
X71940Y43892D01*
X72121Y43881D01*
X72301Y43865D01*
X72482Y43845D01*
X72661Y43821D01*
X72840Y43792D01*
X73018Y43759D01*
X73195Y43722D01*
X73371Y43680D01*
X73547Y43634D01*
X73721Y43583D01*
X73893Y43528D01*
X74065Y43470D01*
X74234Y43406D01*
X74403Y43339D01*
X74569Y43268D01*
X74734Y43192D01*
X74897Y43113D01*
X75057Y43029D01*
X75216Y42942D01*
X75373Y42851D01*
X75527Y42756D01*
X75679Y42657D01*
X75828Y42555D01*
X75975Y42448D01*
X76119Y42339D01*
X76260Y42226D01*
X76399Y42109D01*
X76535Y41989D01*
X76667Y41866D01*
X76797Y41739D01*
X76924Y41609D01*
X77047Y41477D01*
X77167Y41341D01*
X77284Y41202D01*
X77397Y41061D01*
X77506Y40917D01*
X77613Y40770D01*
X77715Y40621D01*
X77814Y40469D01*
X77909Y40315D01*
X78000Y40158D01*
X78087Y39999D01*
X78171Y39839D01*
X78250Y39676D01*
X78326Y39511D01*
X78397Y39345D01*
X78464Y39176D01*
X78528Y39007D01*
X78586Y38835D01*
X78641Y38663D01*
X78692Y38489D01*
X78738Y38313D01*
X78780Y38137D01*
X78817Y37960D01*
X78850Y37782D01*
X78879Y37603D01*
X78903Y37424D01*
X78923Y37243D01*
X78939Y37063D01*
X78950Y36882D01*
X78957Y36701D01*
X78959Y36520D01*
X78957Y36339D01*
X78950Y36158D01*
X78939Y35977D01*
X78923Y35797D01*
X78903Y35616D01*
X78879Y35437D01*
X78850Y35258D01*
X78817Y35080D01*
X78780Y34903D01*
X78738Y34727D01*
X78692Y34551D01*
X78641Y34377D01*
X78586Y34205D01*
X78528Y34033D01*
X78464Y33864D01*
X78397Y33695D01*
X78326Y33529D01*
X78250Y33364D01*
X78171Y33201D01*
X78087Y33041D01*
X78000Y32882D01*
X77909Y32725D01*
X77814Y32571D01*
X77715Y32419D01*
X77613Y32270D01*
X77506Y32123D01*
X77397Y31979D01*
X77284Y31838D01*
X77167Y31699D01*
X77047Y31563D01*
X76924Y31431D01*
X76797Y31301D01*
X76667Y31174D01*
X76535Y31051D01*
X76399Y30931D01*
X76260Y30814D01*
X76119Y30701D01*
X75975Y30592D01*
X75828Y30485D01*
X75679Y30383D01*
X75527Y30284D01*
X75373Y30189D01*
X75216Y30098D01*
X75057Y30011D01*
X74897Y29927D01*
X74734Y29848D01*
X74569Y29772D01*
X74403Y29701D01*
X74234Y29634D01*
X74065Y29570D01*
X73893Y29512D01*
X73721Y29457D01*
X73547Y29406D01*
X73371Y29360D01*
X73195Y29318D01*
X73018Y29281D01*
X72840Y29248D01*
X72661Y29219D01*
X72482Y29195D01*
X72301Y29175D01*
X72121Y29159D01*
X71940Y29148D01*
X71759Y29141D01*
X71578Y29139D01*
X71397Y29141D01*
X71216Y29148D01*
X71035Y29159D01*
X70855Y29175D01*
X70674Y29195D01*
X70495Y29219D01*
X70316Y29248D01*
X70138Y29281D01*
X69961Y29318D01*
X69785Y29360D01*
X69609Y29406D01*
X69435Y29457D01*
X69263Y29512D01*
X69091Y29570D01*
X68922Y29634D01*
X68753Y29701D01*
X68587Y29772D01*
X68422Y29848D01*
X68259Y29927D01*
X68099Y30011D01*
X67940Y30098D01*
X67783Y30189D01*
X67629Y30284D01*
X67477Y30383D01*
X67328Y30485D01*
X67181Y30592D01*
X67037Y30701D01*
X66896Y30814D01*
X66757Y30931D01*
X66621Y31051D01*
X66489Y31174D01*
X66359Y31301D01*
X66232Y31431D01*
X66109Y31563D01*
X65989Y31699D01*
X65872Y31838D01*
X65759Y31979D01*
X65650Y32123D01*
X65543Y32270D01*
X65441Y32419D01*
X65342Y32571D01*
X65247Y32725D01*
X65156Y32882D01*
X65069Y33041D01*
X64985Y33201D01*
X64906Y33364D01*
X64830Y33529D01*
X64759Y33695D01*
X64692Y33864D01*
X64628Y34033D01*
X64570Y34205D01*
X64515Y34377D01*
X64464Y34551D01*
X64418Y34727D01*
X64376Y34903D01*
X64339Y35080D01*
X64306Y35258D01*
X64277Y35437D01*
X64253Y35616D01*
X64233Y35797D01*
X64217Y35977D01*
X64206Y36158D01*
X64199Y36339D01*
X64197Y36520D01*
X64197Y121520D02*
X64199Y121701D01*
X64206Y121882D01*
X64217Y122063D01*
X64233Y122243D01*
X64253Y122424D01*
X64277Y122603D01*
X64306Y122782D01*
X64339Y122960D01*
X64376Y123137D01*
X64418Y123313D01*
X64464Y123489D01*
X64515Y123663D01*
X64570Y123835D01*
X64628Y124007D01*
X64692Y124176D01*
X64759Y124345D01*
X64830Y124511D01*
X64906Y124676D01*
X64985Y124839D01*
X65069Y124999D01*
X65156Y125158D01*
X65247Y125315D01*
X65342Y125469D01*
X65441Y125621D01*
X65543Y125770D01*
X65650Y125917D01*
X65759Y126061D01*
X65872Y126202D01*
X65989Y126341D01*
X66109Y126477D01*
X66232Y126609D01*
X66359Y126739D01*
X66489Y126866D01*
X66621Y126989D01*
X66757Y127109D01*
X66896Y127226D01*
X67037Y127339D01*
X67181Y127448D01*
X67328Y127555D01*
X67477Y127657D01*
X67629Y127756D01*
X67783Y127851D01*
X67940Y127942D01*
X68099Y128029D01*
X68259Y128113D01*
X68422Y128192D01*
X68587Y128268D01*
X68753Y128339D01*
X68922Y128406D01*
X69091Y128470D01*
X69263Y128528D01*
X69435Y128583D01*
X69609Y128634D01*
X69785Y128680D01*
X69961Y128722D01*
X70138Y128759D01*
X70316Y128792D01*
X70495Y128821D01*
X70674Y128845D01*
X70855Y128865D01*
X71035Y128881D01*
X71216Y128892D01*
X71397Y128899D01*
X71578Y128901D01*
X71759Y128899D01*
X71940Y128892D01*
X72121Y128881D01*
X72301Y128865D01*
X72482Y128845D01*
X72661Y128821D01*
X72840Y128792D01*
X73018Y128759D01*
X73195Y128722D01*
X73371Y128680D01*
X73547Y128634D01*
X73721Y128583D01*
X73893Y128528D01*
X74065Y128470D01*
X74234Y128406D01*
X74403Y128339D01*
X74569Y128268D01*
X74734Y128192D01*
X74897Y128113D01*
X75057Y128029D01*
X75216Y127942D01*
X75373Y127851D01*
X75527Y127756D01*
X75679Y127657D01*
X75828Y127555D01*
X75975Y127448D01*
X76119Y127339D01*
X76260Y127226D01*
X76399Y127109D01*
X76535Y126989D01*
X76667Y126866D01*
X76797Y126739D01*
X76924Y126609D01*
X77047Y126477D01*
X77167Y126341D01*
X77284Y126202D01*
X77397Y126061D01*
X77506Y125917D01*
X77613Y125770D01*
X77715Y125621D01*
X77814Y125469D01*
X77909Y125315D01*
X78000Y125158D01*
X78087Y124999D01*
X78171Y124839D01*
X78250Y124676D01*
X78326Y124511D01*
X78397Y124345D01*
X78464Y124176D01*
X78528Y124007D01*
X78586Y123835D01*
X78641Y123663D01*
X78692Y123489D01*
X78738Y123313D01*
X78780Y123137D01*
X78817Y122960D01*
X78850Y122782D01*
X78879Y122603D01*
X78903Y122424D01*
X78923Y122243D01*
X78939Y122063D01*
X78950Y121882D01*
X78957Y121701D01*
X78959Y121520D01*
X78957Y121339D01*
X78950Y121158D01*
X78939Y120977D01*
X78923Y120797D01*
X78903Y120616D01*
X78879Y120437D01*
X78850Y120258D01*
X78817Y120080D01*
X78780Y119903D01*
X78738Y119727D01*
X78692Y119551D01*
X78641Y119377D01*
X78586Y119205D01*
X78528Y119033D01*
X78464Y118864D01*
X78397Y118695D01*
X78326Y118529D01*
X78250Y118364D01*
X78171Y118201D01*
X78087Y118041D01*
X78000Y117882D01*
X77909Y117725D01*
X77814Y117571D01*
X77715Y117419D01*
X77613Y117270D01*
X77506Y117123D01*
X77397Y116979D01*
X77284Y116838D01*
X77167Y116699D01*
X77047Y116563D01*
X76924Y116431D01*
X76797Y116301D01*
X76667Y116174D01*
X76535Y116051D01*
X76399Y115931D01*
X76260Y115814D01*
X76119Y115701D01*
X75975Y115592D01*
X75828Y115485D01*
X75679Y115383D01*
X75527Y115284D01*
X75373Y115189D01*
X75216Y115098D01*
X75057Y115011D01*
X74897Y114927D01*
X74734Y114848D01*
X74569Y114772D01*
X74403Y114701D01*
X74234Y114634D01*
X74065Y114570D01*
X73893Y114512D01*
X73721Y114457D01*
X73547Y114406D01*
X73371Y114360D01*
X73195Y114318D01*
X73018Y114281D01*
X72840Y114248D01*
X72661Y114219D01*
X72482Y114195D01*
X72301Y114175D01*
X72121Y114159D01*
X71940Y114148D01*
X71759Y114141D01*
X71578Y114139D01*
X71397Y114141D01*
X71216Y114148D01*
X71035Y114159D01*
X70855Y114175D01*
X70674Y114195D01*
X70495Y114219D01*
X70316Y114248D01*
X70138Y114281D01*
X69961Y114318D01*
X69785Y114360D01*
X69609Y114406D01*
X69435Y114457D01*
X69263Y114512D01*
X69091Y114570D01*
X68922Y114634D01*
X68753Y114701D01*
X68587Y114772D01*
X68422Y114848D01*
X68259Y114927D01*
X68099Y115011D01*
X67940Y115098D01*
X67783Y115189D01*
X67629Y115284D01*
X67477Y115383D01*
X67328Y115485D01*
X67181Y115592D01*
X67037Y115701D01*
X66896Y115814D01*
X66757Y115931D01*
X66621Y116051D01*
X66489Y116174D01*
X66359Y116301D01*
X66232Y116431D01*
X66109Y116563D01*
X65989Y116699D01*
X65872Y116838D01*
X65759Y116979D01*
X65650Y117123D01*
X65543Y117270D01*
X65441Y117419D01*
X65342Y117571D01*
X65247Y117725D01*
X65156Y117882D01*
X65069Y118041D01*
X64985Y118201D01*
X64906Y118364D01*
X64830Y118529D01*
X64759Y118695D01*
X64692Y118864D01*
X64628Y119033D01*
X64570Y119205D01*
X64515Y119377D01*
X64464Y119551D01*
X64418Y119727D01*
X64376Y119903D01*
X64339Y120080D01*
X64306Y120258D01*
X64277Y120437D01*
X64253Y120616D01*
X64233Y120797D01*
X64217Y120977D01*
X64206Y121158D01*
X64199Y121339D01*
X64197Y121520D01*
D12*
X99197Y239320D02*
X99199Y239449D01*
X99205Y239577D01*
X99215Y239706D01*
X99229Y239834D01*
X99246Y239961D01*
X99268Y240088D01*
X99294Y240214D01*
X99323Y240340D01*
X99357Y240464D01*
X99394Y240587D01*
X99435Y240710D01*
X99479Y240830D01*
X99528Y240950D01*
X99580Y241067D01*
X99635Y241184D01*
X99694Y241298D01*
X99757Y241410D01*
X99823Y241521D01*
X99893Y241629D01*
X99965Y241736D01*
X100041Y241840D01*
X100121Y241941D01*
X100203Y242040D01*
X100288Y242137D01*
X100376Y242231D01*
X100467Y242322D01*
X100561Y242410D01*
X100658Y242495D01*
X100757Y242577D01*
X100858Y242657D01*
X100962Y242733D01*
X101069Y242805D01*
X101177Y242875D01*
X101287Y242941D01*
X101400Y243004D01*
X101514Y243063D01*
X101631Y243118D01*
X101748Y243170D01*
X101868Y243219D01*
X101988Y243263D01*
X102111Y243304D01*
X102234Y243341D01*
X102358Y243375D01*
X102484Y243404D01*
X102610Y243430D01*
X102737Y243452D01*
X102864Y243469D01*
X102992Y243483D01*
X103121Y243493D01*
X103249Y243499D01*
X103378Y243501D01*
X103507Y243499D01*
X103635Y243493D01*
X103764Y243483D01*
X103892Y243469D01*
X104019Y243452D01*
X104146Y243430D01*
X104272Y243404D01*
X104398Y243375D01*
X104522Y243341D01*
X104645Y243304D01*
X104768Y243263D01*
X104888Y243219D01*
X105008Y243170D01*
X105125Y243118D01*
X105242Y243063D01*
X105356Y243004D01*
X105468Y242941D01*
X105579Y242875D01*
X105687Y242805D01*
X105794Y242733D01*
X105898Y242657D01*
X105999Y242577D01*
X106098Y242495D01*
X106195Y242410D01*
X106289Y242322D01*
X106380Y242231D01*
X106468Y242137D01*
X106553Y242040D01*
X106635Y241941D01*
X106715Y241840D01*
X106791Y241736D01*
X106863Y241629D01*
X106933Y241521D01*
X106999Y241410D01*
X107062Y241298D01*
X107121Y241184D01*
X107176Y241067D01*
X107228Y240950D01*
X107277Y240830D01*
X107321Y240710D01*
X107362Y240587D01*
X107399Y240464D01*
X107433Y240340D01*
X107462Y240214D01*
X107488Y240088D01*
X107510Y239961D01*
X107527Y239834D01*
X107541Y239706D01*
X107551Y239577D01*
X107557Y239449D01*
X107559Y239320D01*
X107557Y239191D01*
X107551Y239063D01*
X107541Y238934D01*
X107527Y238806D01*
X107510Y238679D01*
X107488Y238552D01*
X107462Y238426D01*
X107433Y238300D01*
X107399Y238176D01*
X107362Y238053D01*
X107321Y237930D01*
X107277Y237810D01*
X107228Y237690D01*
X107176Y237573D01*
X107121Y237456D01*
X107062Y237342D01*
X106999Y237230D01*
X106933Y237119D01*
X106863Y237011D01*
X106791Y236904D01*
X106715Y236800D01*
X106635Y236699D01*
X106553Y236600D01*
X106468Y236503D01*
X106380Y236409D01*
X106289Y236318D01*
X106195Y236230D01*
X106098Y236145D01*
X105999Y236063D01*
X105898Y235983D01*
X105794Y235907D01*
X105687Y235835D01*
X105579Y235765D01*
X105469Y235699D01*
X105356Y235636D01*
X105242Y235577D01*
X105125Y235522D01*
X105008Y235470D01*
X104888Y235421D01*
X104768Y235377D01*
X104645Y235336D01*
X104522Y235299D01*
X104398Y235265D01*
X104272Y235236D01*
X104146Y235210D01*
X104019Y235188D01*
X103892Y235171D01*
X103764Y235157D01*
X103635Y235147D01*
X103507Y235141D01*
X103378Y235139D01*
X103249Y235141D01*
X103121Y235147D01*
X102992Y235157D01*
X102864Y235171D01*
X102737Y235188D01*
X102610Y235210D01*
X102484Y235236D01*
X102358Y235265D01*
X102234Y235299D01*
X102111Y235336D01*
X101988Y235377D01*
X101868Y235421D01*
X101748Y235470D01*
X101631Y235522D01*
X101514Y235577D01*
X101400Y235636D01*
X101287Y235699D01*
X101177Y235765D01*
X101069Y235835D01*
X100962Y235907D01*
X100858Y235983D01*
X100757Y236063D01*
X100658Y236145D01*
X100561Y236230D01*
X100467Y236318D01*
X100376Y236409D01*
X100288Y236503D01*
X100203Y236600D01*
X100121Y236699D01*
X100041Y236800D01*
X99965Y236904D01*
X99893Y237011D01*
X99823Y237119D01*
X99757Y237229D01*
X99694Y237342D01*
X99635Y237456D01*
X99580Y237573D01*
X99528Y237690D01*
X99479Y237810D01*
X99435Y237930D01*
X99394Y238053D01*
X99357Y238176D01*
X99323Y238300D01*
X99294Y238426D01*
X99268Y238552D01*
X99246Y238679D01*
X99229Y238806D01*
X99215Y238934D01*
X99205Y239063D01*
X99199Y239191D01*
X99197Y239320D01*
D13*
X103378Y274320D03*
D12*
X53197Y239320D02*
X53199Y239449D01*
X53205Y239577D01*
X53215Y239706D01*
X53229Y239834D01*
X53246Y239961D01*
X53268Y240088D01*
X53294Y240214D01*
X53323Y240340D01*
X53357Y240464D01*
X53394Y240587D01*
X53435Y240710D01*
X53479Y240830D01*
X53528Y240950D01*
X53580Y241067D01*
X53635Y241184D01*
X53694Y241298D01*
X53757Y241410D01*
X53823Y241521D01*
X53893Y241629D01*
X53965Y241736D01*
X54041Y241840D01*
X54121Y241941D01*
X54203Y242040D01*
X54288Y242137D01*
X54376Y242231D01*
X54467Y242322D01*
X54561Y242410D01*
X54658Y242495D01*
X54757Y242577D01*
X54858Y242657D01*
X54962Y242733D01*
X55069Y242805D01*
X55177Y242875D01*
X55287Y242941D01*
X55400Y243004D01*
X55514Y243063D01*
X55631Y243118D01*
X55748Y243170D01*
X55868Y243219D01*
X55988Y243263D01*
X56111Y243304D01*
X56234Y243341D01*
X56358Y243375D01*
X56484Y243404D01*
X56610Y243430D01*
X56737Y243452D01*
X56864Y243469D01*
X56992Y243483D01*
X57121Y243493D01*
X57249Y243499D01*
X57378Y243501D01*
X57507Y243499D01*
X57635Y243493D01*
X57764Y243483D01*
X57892Y243469D01*
X58019Y243452D01*
X58146Y243430D01*
X58272Y243404D01*
X58398Y243375D01*
X58522Y243341D01*
X58645Y243304D01*
X58768Y243263D01*
X58888Y243219D01*
X59008Y243170D01*
X59125Y243118D01*
X59242Y243063D01*
X59356Y243004D01*
X59468Y242941D01*
X59579Y242875D01*
X59687Y242805D01*
X59794Y242733D01*
X59898Y242657D01*
X59999Y242577D01*
X60098Y242495D01*
X60195Y242410D01*
X60289Y242322D01*
X60380Y242231D01*
X60468Y242137D01*
X60553Y242040D01*
X60635Y241941D01*
X60715Y241840D01*
X60791Y241736D01*
X60863Y241629D01*
X60933Y241521D01*
X60999Y241410D01*
X61062Y241298D01*
X61121Y241184D01*
X61176Y241067D01*
X61228Y240950D01*
X61277Y240830D01*
X61321Y240710D01*
X61362Y240587D01*
X61399Y240464D01*
X61433Y240340D01*
X61462Y240214D01*
X61488Y240088D01*
X61510Y239961D01*
X61527Y239834D01*
X61541Y239706D01*
X61551Y239577D01*
X61557Y239449D01*
X61559Y239320D01*
X61557Y239191D01*
X61551Y239063D01*
X61541Y238934D01*
X61527Y238806D01*
X61510Y238679D01*
X61488Y238552D01*
X61462Y238426D01*
X61433Y238300D01*
X61399Y238176D01*
X61362Y238053D01*
X61321Y237930D01*
X61277Y237810D01*
X61228Y237690D01*
X61176Y237573D01*
X61121Y237456D01*
X61062Y237342D01*
X60999Y237230D01*
X60933Y237119D01*
X60863Y237011D01*
X60791Y236904D01*
X60715Y236800D01*
X60635Y236699D01*
X60553Y236600D01*
X60468Y236503D01*
X60380Y236409D01*
X60289Y236318D01*
X60195Y236230D01*
X60098Y236145D01*
X59999Y236063D01*
X59898Y235983D01*
X59794Y235907D01*
X59687Y235835D01*
X59579Y235765D01*
X59469Y235699D01*
X59356Y235636D01*
X59242Y235577D01*
X59125Y235522D01*
X59008Y235470D01*
X58888Y235421D01*
X58768Y235377D01*
X58645Y235336D01*
X58522Y235299D01*
X58398Y235265D01*
X58272Y235236D01*
X58146Y235210D01*
X58019Y235188D01*
X57892Y235171D01*
X57764Y235157D01*
X57635Y235147D01*
X57507Y235141D01*
X57378Y235139D01*
X57249Y235141D01*
X57121Y235147D01*
X56992Y235157D01*
X56864Y235171D01*
X56737Y235188D01*
X56610Y235210D01*
X56484Y235236D01*
X56358Y235265D01*
X56234Y235299D01*
X56111Y235336D01*
X55988Y235377D01*
X55868Y235421D01*
X55748Y235470D01*
X55631Y235522D01*
X55514Y235577D01*
X55400Y235636D01*
X55287Y235699D01*
X55177Y235765D01*
X55069Y235835D01*
X54962Y235907D01*
X54858Y235983D01*
X54757Y236063D01*
X54658Y236145D01*
X54561Y236230D01*
X54467Y236318D01*
X54376Y236409D01*
X54288Y236503D01*
X54203Y236600D01*
X54121Y236699D01*
X54041Y236800D01*
X53965Y236904D01*
X53893Y237011D01*
X53823Y237119D01*
X53757Y237229D01*
X53694Y237342D01*
X53635Y237456D01*
X53580Y237573D01*
X53528Y237690D01*
X53479Y237810D01*
X53435Y237930D01*
X53394Y238053D01*
X53357Y238176D01*
X53323Y238300D01*
X53294Y238426D01*
X53268Y238552D01*
X53246Y238679D01*
X53229Y238806D01*
X53215Y238934D01*
X53205Y239063D01*
X53199Y239191D01*
X53197Y239320D01*
X53197Y274320D02*
X53199Y274449D01*
X53205Y274577D01*
X53215Y274706D01*
X53229Y274834D01*
X53246Y274961D01*
X53268Y275088D01*
X53294Y275214D01*
X53323Y275340D01*
X53357Y275464D01*
X53394Y275587D01*
X53435Y275710D01*
X53479Y275830D01*
X53528Y275950D01*
X53580Y276067D01*
X53635Y276184D01*
X53694Y276298D01*
X53757Y276410D01*
X53823Y276521D01*
X53893Y276629D01*
X53965Y276736D01*
X54041Y276840D01*
X54121Y276941D01*
X54203Y277040D01*
X54288Y277137D01*
X54376Y277231D01*
X54467Y277322D01*
X54561Y277410D01*
X54658Y277495D01*
X54757Y277577D01*
X54858Y277657D01*
X54962Y277733D01*
X55069Y277805D01*
X55177Y277875D01*
X55287Y277941D01*
X55400Y278004D01*
X55514Y278063D01*
X55631Y278118D01*
X55748Y278170D01*
X55868Y278219D01*
X55988Y278263D01*
X56111Y278304D01*
X56234Y278341D01*
X56358Y278375D01*
X56484Y278404D01*
X56610Y278430D01*
X56737Y278452D01*
X56864Y278469D01*
X56992Y278483D01*
X57121Y278493D01*
X57249Y278499D01*
X57378Y278501D01*
X57507Y278499D01*
X57635Y278493D01*
X57764Y278483D01*
X57892Y278469D01*
X58019Y278452D01*
X58146Y278430D01*
X58272Y278404D01*
X58398Y278375D01*
X58522Y278341D01*
X58645Y278304D01*
X58768Y278263D01*
X58888Y278219D01*
X59008Y278170D01*
X59125Y278118D01*
X59242Y278063D01*
X59356Y278004D01*
X59468Y277941D01*
X59579Y277875D01*
X59687Y277805D01*
X59794Y277733D01*
X59898Y277657D01*
X59999Y277577D01*
X60098Y277495D01*
X60195Y277410D01*
X60289Y277322D01*
X60380Y277231D01*
X60468Y277137D01*
X60553Y277040D01*
X60635Y276941D01*
X60715Y276840D01*
X60791Y276736D01*
X60863Y276629D01*
X60933Y276521D01*
X60999Y276410D01*
X61062Y276298D01*
X61121Y276184D01*
X61176Y276067D01*
X61228Y275950D01*
X61277Y275830D01*
X61321Y275710D01*
X61362Y275587D01*
X61399Y275464D01*
X61433Y275340D01*
X61462Y275214D01*
X61488Y275088D01*
X61510Y274961D01*
X61527Y274834D01*
X61541Y274706D01*
X61551Y274577D01*
X61557Y274449D01*
X61559Y274320D01*
X61557Y274191D01*
X61551Y274063D01*
X61541Y273934D01*
X61527Y273806D01*
X61510Y273679D01*
X61488Y273552D01*
X61462Y273426D01*
X61433Y273300D01*
X61399Y273176D01*
X61362Y273053D01*
X61321Y272930D01*
X61277Y272810D01*
X61228Y272690D01*
X61176Y272573D01*
X61121Y272456D01*
X61062Y272342D01*
X60999Y272230D01*
X60933Y272119D01*
X60863Y272011D01*
X60791Y271904D01*
X60715Y271800D01*
X60635Y271699D01*
X60553Y271600D01*
X60468Y271503D01*
X60380Y271409D01*
X60289Y271318D01*
X60195Y271230D01*
X60098Y271145D01*
X59999Y271063D01*
X59898Y270983D01*
X59794Y270907D01*
X59687Y270835D01*
X59579Y270765D01*
X59469Y270699D01*
X59356Y270636D01*
X59242Y270577D01*
X59125Y270522D01*
X59008Y270470D01*
X58888Y270421D01*
X58768Y270377D01*
X58645Y270336D01*
X58522Y270299D01*
X58398Y270265D01*
X58272Y270236D01*
X58146Y270210D01*
X58019Y270188D01*
X57892Y270171D01*
X57764Y270157D01*
X57635Y270147D01*
X57507Y270141D01*
X57378Y270139D01*
X57249Y270141D01*
X57121Y270147D01*
X56992Y270157D01*
X56864Y270171D01*
X56737Y270188D01*
X56610Y270210D01*
X56484Y270236D01*
X56358Y270265D01*
X56234Y270299D01*
X56111Y270336D01*
X55988Y270377D01*
X55868Y270421D01*
X55748Y270470D01*
X55631Y270522D01*
X55514Y270577D01*
X55400Y270636D01*
X55287Y270699D01*
X55177Y270765D01*
X55069Y270835D01*
X54962Y270907D01*
X54858Y270983D01*
X54757Y271063D01*
X54658Y271145D01*
X54561Y271230D01*
X54467Y271318D01*
X54376Y271409D01*
X54288Y271503D01*
X54203Y271600D01*
X54121Y271699D01*
X54041Y271800D01*
X53965Y271904D01*
X53893Y272011D01*
X53823Y272119D01*
X53757Y272229D01*
X53694Y272342D01*
X53635Y272456D01*
X53580Y272573D01*
X53528Y272690D01*
X53479Y272810D01*
X53435Y272930D01*
X53394Y273053D01*
X53357Y273176D01*
X53323Y273300D01*
X53294Y273426D01*
X53268Y273552D01*
X53246Y273679D01*
X53229Y273806D01*
X53215Y273934D01*
X53205Y274063D01*
X53199Y274191D01*
X53197Y274320D01*
D14*
X64197Y214320D02*
X64199Y214501D01*
X64206Y214682D01*
X64217Y214863D01*
X64233Y215043D01*
X64253Y215224D01*
X64277Y215403D01*
X64306Y215582D01*
X64339Y215760D01*
X64376Y215937D01*
X64418Y216113D01*
X64464Y216289D01*
X64515Y216463D01*
X64570Y216635D01*
X64628Y216807D01*
X64692Y216976D01*
X64759Y217145D01*
X64830Y217311D01*
X64906Y217476D01*
X64985Y217639D01*
X65069Y217799D01*
X65156Y217958D01*
X65247Y218115D01*
X65342Y218269D01*
X65441Y218421D01*
X65543Y218570D01*
X65650Y218717D01*
X65759Y218861D01*
X65872Y219002D01*
X65989Y219141D01*
X66109Y219277D01*
X66232Y219409D01*
X66359Y219539D01*
X66489Y219666D01*
X66621Y219789D01*
X66757Y219909D01*
X66896Y220026D01*
X67037Y220139D01*
X67181Y220248D01*
X67328Y220355D01*
X67477Y220457D01*
X67629Y220556D01*
X67783Y220651D01*
X67940Y220742D01*
X68099Y220829D01*
X68259Y220913D01*
X68422Y220992D01*
X68587Y221068D01*
X68753Y221139D01*
X68922Y221206D01*
X69091Y221270D01*
X69263Y221328D01*
X69435Y221383D01*
X69609Y221434D01*
X69785Y221480D01*
X69961Y221522D01*
X70138Y221559D01*
X70316Y221592D01*
X70495Y221621D01*
X70674Y221645D01*
X70855Y221665D01*
X71035Y221681D01*
X71216Y221692D01*
X71397Y221699D01*
X71578Y221701D01*
X71759Y221699D01*
X71940Y221692D01*
X72121Y221681D01*
X72301Y221665D01*
X72482Y221645D01*
X72661Y221621D01*
X72840Y221592D01*
X73018Y221559D01*
X73195Y221522D01*
X73371Y221480D01*
X73547Y221434D01*
X73721Y221383D01*
X73893Y221328D01*
X74065Y221270D01*
X74234Y221206D01*
X74403Y221139D01*
X74569Y221068D01*
X74734Y220992D01*
X74897Y220913D01*
X75057Y220829D01*
X75216Y220742D01*
X75373Y220651D01*
X75527Y220556D01*
X75679Y220457D01*
X75828Y220355D01*
X75975Y220248D01*
X76119Y220139D01*
X76260Y220026D01*
X76399Y219909D01*
X76535Y219789D01*
X76667Y219666D01*
X76797Y219539D01*
X76924Y219409D01*
X77047Y219277D01*
X77167Y219141D01*
X77284Y219002D01*
X77397Y218861D01*
X77506Y218717D01*
X77613Y218570D01*
X77715Y218421D01*
X77814Y218269D01*
X77909Y218115D01*
X78000Y217958D01*
X78087Y217799D01*
X78171Y217639D01*
X78250Y217476D01*
X78326Y217311D01*
X78397Y217145D01*
X78464Y216976D01*
X78528Y216807D01*
X78586Y216635D01*
X78641Y216463D01*
X78692Y216289D01*
X78738Y216113D01*
X78780Y215937D01*
X78817Y215760D01*
X78850Y215582D01*
X78879Y215403D01*
X78903Y215224D01*
X78923Y215043D01*
X78939Y214863D01*
X78950Y214682D01*
X78957Y214501D01*
X78959Y214320D01*
X78957Y214139D01*
X78950Y213958D01*
X78939Y213777D01*
X78923Y213597D01*
X78903Y213416D01*
X78879Y213237D01*
X78850Y213058D01*
X78817Y212880D01*
X78780Y212703D01*
X78738Y212527D01*
X78692Y212351D01*
X78641Y212177D01*
X78586Y212005D01*
X78528Y211833D01*
X78464Y211664D01*
X78397Y211495D01*
X78326Y211329D01*
X78250Y211164D01*
X78171Y211001D01*
X78087Y210841D01*
X78000Y210682D01*
X77909Y210525D01*
X77814Y210371D01*
X77715Y210219D01*
X77613Y210070D01*
X77506Y209923D01*
X77397Y209779D01*
X77284Y209638D01*
X77167Y209499D01*
X77047Y209363D01*
X76924Y209231D01*
X76797Y209101D01*
X76667Y208974D01*
X76535Y208851D01*
X76399Y208731D01*
X76260Y208614D01*
X76119Y208501D01*
X75975Y208392D01*
X75828Y208285D01*
X75679Y208183D01*
X75527Y208084D01*
X75373Y207989D01*
X75216Y207898D01*
X75057Y207811D01*
X74897Y207727D01*
X74734Y207648D01*
X74569Y207572D01*
X74403Y207501D01*
X74234Y207434D01*
X74065Y207370D01*
X73893Y207312D01*
X73721Y207257D01*
X73547Y207206D01*
X73371Y207160D01*
X73195Y207118D01*
X73018Y207081D01*
X72840Y207048D01*
X72661Y207019D01*
X72482Y206995D01*
X72301Y206975D01*
X72121Y206959D01*
X71940Y206948D01*
X71759Y206941D01*
X71578Y206939D01*
X71397Y206941D01*
X71216Y206948D01*
X71035Y206959D01*
X70855Y206975D01*
X70674Y206995D01*
X70495Y207019D01*
X70316Y207048D01*
X70138Y207081D01*
X69961Y207118D01*
X69785Y207160D01*
X69609Y207206D01*
X69435Y207257D01*
X69263Y207312D01*
X69091Y207370D01*
X68922Y207434D01*
X68753Y207501D01*
X68587Y207572D01*
X68422Y207648D01*
X68259Y207727D01*
X68099Y207811D01*
X67940Y207898D01*
X67783Y207989D01*
X67629Y208084D01*
X67477Y208183D01*
X67328Y208285D01*
X67181Y208392D01*
X67037Y208501D01*
X66896Y208614D01*
X66757Y208731D01*
X66621Y208851D01*
X66489Y208974D01*
X66359Y209101D01*
X66232Y209231D01*
X66109Y209363D01*
X65989Y209499D01*
X65872Y209638D01*
X65759Y209779D01*
X65650Y209923D01*
X65543Y210070D01*
X65441Y210219D01*
X65342Y210371D01*
X65247Y210525D01*
X65156Y210682D01*
X65069Y210841D01*
X64985Y211001D01*
X64906Y211164D01*
X64830Y211329D01*
X64759Y211495D01*
X64692Y211664D01*
X64628Y211833D01*
X64570Y212005D01*
X64515Y212177D01*
X64464Y212351D01*
X64418Y212527D01*
X64376Y212703D01*
X64339Y212880D01*
X64306Y213058D01*
X64277Y213237D01*
X64253Y213416D01*
X64233Y213597D01*
X64217Y213777D01*
X64206Y213958D01*
X64199Y214139D01*
X64197Y214320D01*
X64197Y299320D02*
X64199Y299501D01*
X64206Y299682D01*
X64217Y299863D01*
X64233Y300043D01*
X64253Y300224D01*
X64277Y300403D01*
X64306Y300582D01*
X64339Y300760D01*
X64376Y300937D01*
X64418Y301113D01*
X64464Y301289D01*
X64515Y301463D01*
X64570Y301635D01*
X64628Y301807D01*
X64692Y301976D01*
X64759Y302145D01*
X64830Y302311D01*
X64906Y302476D01*
X64985Y302639D01*
X65069Y302799D01*
X65156Y302958D01*
X65247Y303115D01*
X65342Y303269D01*
X65441Y303421D01*
X65543Y303570D01*
X65650Y303717D01*
X65759Y303861D01*
X65872Y304002D01*
X65989Y304141D01*
X66109Y304277D01*
X66232Y304409D01*
X66359Y304539D01*
X66489Y304666D01*
X66621Y304789D01*
X66757Y304909D01*
X66896Y305026D01*
X67037Y305139D01*
X67181Y305248D01*
X67328Y305355D01*
X67477Y305457D01*
X67629Y305556D01*
X67783Y305651D01*
X67940Y305742D01*
X68099Y305829D01*
X68259Y305913D01*
X68422Y305992D01*
X68587Y306068D01*
X68753Y306139D01*
X68922Y306206D01*
X69091Y306270D01*
X69263Y306328D01*
X69435Y306383D01*
X69609Y306434D01*
X69785Y306480D01*
X69961Y306522D01*
X70138Y306559D01*
X70316Y306592D01*
X70495Y306621D01*
X70674Y306645D01*
X70855Y306665D01*
X71035Y306681D01*
X71216Y306692D01*
X71397Y306699D01*
X71578Y306701D01*
X71759Y306699D01*
X71940Y306692D01*
X72121Y306681D01*
X72301Y306665D01*
X72482Y306645D01*
X72661Y306621D01*
X72840Y306592D01*
X73018Y306559D01*
X73195Y306522D01*
X73371Y306480D01*
X73547Y306434D01*
X73721Y306383D01*
X73893Y306328D01*
X74065Y306270D01*
X74234Y306206D01*
X74403Y306139D01*
X74569Y306068D01*
X74734Y305992D01*
X74897Y305913D01*
X75057Y305829D01*
X75216Y305742D01*
X75373Y305651D01*
X75527Y305556D01*
X75679Y305457D01*
X75828Y305355D01*
X75975Y305248D01*
X76119Y305139D01*
X76260Y305026D01*
X76399Y304909D01*
X76535Y304789D01*
X76667Y304666D01*
X76797Y304539D01*
X76924Y304409D01*
X77047Y304277D01*
X77167Y304141D01*
X77284Y304002D01*
X77397Y303861D01*
X77506Y303717D01*
X77613Y303570D01*
X77715Y303421D01*
X77814Y303269D01*
X77909Y303115D01*
X78000Y302958D01*
X78087Y302799D01*
X78171Y302639D01*
X78250Y302476D01*
X78326Y302311D01*
X78397Y302145D01*
X78464Y301976D01*
X78528Y301807D01*
X78586Y301635D01*
X78641Y301463D01*
X78692Y301289D01*
X78738Y301113D01*
X78780Y300937D01*
X78817Y300760D01*
X78850Y300582D01*
X78879Y300403D01*
X78903Y300224D01*
X78923Y300043D01*
X78939Y299863D01*
X78950Y299682D01*
X78957Y299501D01*
X78959Y299320D01*
X78957Y299139D01*
X78950Y298958D01*
X78939Y298777D01*
X78923Y298597D01*
X78903Y298416D01*
X78879Y298237D01*
X78850Y298058D01*
X78817Y297880D01*
X78780Y297703D01*
X78738Y297527D01*
X78692Y297351D01*
X78641Y297177D01*
X78586Y297005D01*
X78528Y296833D01*
X78464Y296664D01*
X78397Y296495D01*
X78326Y296329D01*
X78250Y296164D01*
X78171Y296001D01*
X78087Y295841D01*
X78000Y295682D01*
X77909Y295525D01*
X77814Y295371D01*
X77715Y295219D01*
X77613Y295070D01*
X77506Y294923D01*
X77397Y294779D01*
X77284Y294638D01*
X77167Y294499D01*
X77047Y294363D01*
X76924Y294231D01*
X76797Y294101D01*
X76667Y293974D01*
X76535Y293851D01*
X76399Y293731D01*
X76260Y293614D01*
X76119Y293501D01*
X75975Y293392D01*
X75828Y293285D01*
X75679Y293183D01*
X75527Y293084D01*
X75373Y292989D01*
X75216Y292898D01*
X75057Y292811D01*
X74897Y292727D01*
X74734Y292648D01*
X74569Y292572D01*
X74403Y292501D01*
X74234Y292434D01*
X74065Y292370D01*
X73893Y292312D01*
X73721Y292257D01*
X73547Y292206D01*
X73371Y292160D01*
X73195Y292118D01*
X73018Y292081D01*
X72840Y292048D01*
X72661Y292019D01*
X72482Y291995D01*
X72301Y291975D01*
X72121Y291959D01*
X71940Y291948D01*
X71759Y291941D01*
X71578Y291939D01*
X71397Y291941D01*
X71216Y291948D01*
X71035Y291959D01*
X70855Y291975D01*
X70674Y291995D01*
X70495Y292019D01*
X70316Y292048D01*
X70138Y292081D01*
X69961Y292118D01*
X69785Y292160D01*
X69609Y292206D01*
X69435Y292257D01*
X69263Y292312D01*
X69091Y292370D01*
X68922Y292434D01*
X68753Y292501D01*
X68587Y292572D01*
X68422Y292648D01*
X68259Y292727D01*
X68099Y292811D01*
X67940Y292898D01*
X67783Y292989D01*
X67629Y293084D01*
X67477Y293183D01*
X67328Y293285D01*
X67181Y293392D01*
X67037Y293501D01*
X66896Y293614D01*
X66757Y293731D01*
X66621Y293851D01*
X66489Y293974D01*
X66359Y294101D01*
X66232Y294231D01*
X66109Y294363D01*
X65989Y294499D01*
X65872Y294638D01*
X65759Y294779D01*
X65650Y294923D01*
X65543Y295070D01*
X65441Y295219D01*
X65342Y295371D01*
X65247Y295525D01*
X65156Y295682D01*
X65069Y295841D01*
X64985Y296001D01*
X64906Y296164D01*
X64830Y296329D01*
X64759Y296495D01*
X64692Y296664D01*
X64628Y296833D01*
X64570Y297005D01*
X64515Y297177D01*
X64464Y297351D01*
X64418Y297527D01*
X64376Y297703D01*
X64339Y297880D01*
X64306Y298058D01*
X64277Y298237D01*
X64253Y298416D01*
X64233Y298597D01*
X64217Y298777D01*
X64206Y298958D01*
X64199Y299139D01*
X64197Y299320D01*
D12*
X99197Y417120D02*
X99199Y417249D01*
X99205Y417377D01*
X99215Y417506D01*
X99229Y417634D01*
X99246Y417761D01*
X99268Y417888D01*
X99294Y418014D01*
X99323Y418140D01*
X99357Y418264D01*
X99394Y418387D01*
X99435Y418510D01*
X99479Y418630D01*
X99528Y418750D01*
X99580Y418867D01*
X99635Y418984D01*
X99694Y419098D01*
X99757Y419210D01*
X99823Y419321D01*
X99893Y419429D01*
X99965Y419536D01*
X100041Y419640D01*
X100121Y419741D01*
X100203Y419840D01*
X100288Y419937D01*
X100376Y420031D01*
X100467Y420122D01*
X100561Y420210D01*
X100658Y420295D01*
X100757Y420377D01*
X100858Y420457D01*
X100962Y420533D01*
X101069Y420605D01*
X101177Y420675D01*
X101287Y420741D01*
X101400Y420804D01*
X101514Y420863D01*
X101631Y420918D01*
X101748Y420970D01*
X101868Y421019D01*
X101988Y421063D01*
X102111Y421104D01*
X102234Y421141D01*
X102358Y421175D01*
X102484Y421204D01*
X102610Y421230D01*
X102737Y421252D01*
X102864Y421269D01*
X102992Y421283D01*
X103121Y421293D01*
X103249Y421299D01*
X103378Y421301D01*
X103507Y421299D01*
X103635Y421293D01*
X103764Y421283D01*
X103892Y421269D01*
X104019Y421252D01*
X104146Y421230D01*
X104272Y421204D01*
X104398Y421175D01*
X104522Y421141D01*
X104645Y421104D01*
X104768Y421063D01*
X104888Y421019D01*
X105008Y420970D01*
X105125Y420918D01*
X105242Y420863D01*
X105356Y420804D01*
X105468Y420741D01*
X105579Y420675D01*
X105687Y420605D01*
X105794Y420533D01*
X105898Y420457D01*
X105999Y420377D01*
X106098Y420295D01*
X106195Y420210D01*
X106289Y420122D01*
X106380Y420031D01*
X106468Y419937D01*
X106553Y419840D01*
X106635Y419741D01*
X106715Y419640D01*
X106791Y419536D01*
X106863Y419429D01*
X106933Y419321D01*
X106999Y419210D01*
X107062Y419098D01*
X107121Y418984D01*
X107176Y418867D01*
X107228Y418750D01*
X107277Y418630D01*
X107321Y418510D01*
X107362Y418387D01*
X107399Y418264D01*
X107433Y418140D01*
X107462Y418014D01*
X107488Y417888D01*
X107510Y417761D01*
X107527Y417634D01*
X107541Y417506D01*
X107551Y417377D01*
X107557Y417249D01*
X107559Y417120D01*
X107557Y416991D01*
X107551Y416863D01*
X107541Y416734D01*
X107527Y416606D01*
X107510Y416479D01*
X107488Y416352D01*
X107462Y416226D01*
X107433Y416100D01*
X107399Y415976D01*
X107362Y415853D01*
X107321Y415730D01*
X107277Y415610D01*
X107228Y415490D01*
X107176Y415373D01*
X107121Y415256D01*
X107062Y415142D01*
X106999Y415030D01*
X106933Y414919D01*
X106863Y414811D01*
X106791Y414704D01*
X106715Y414600D01*
X106635Y414499D01*
X106553Y414400D01*
X106468Y414303D01*
X106380Y414209D01*
X106289Y414118D01*
X106195Y414030D01*
X106098Y413945D01*
X105999Y413863D01*
X105898Y413783D01*
X105794Y413707D01*
X105687Y413635D01*
X105579Y413565D01*
X105469Y413499D01*
X105356Y413436D01*
X105242Y413377D01*
X105125Y413322D01*
X105008Y413270D01*
X104888Y413221D01*
X104768Y413177D01*
X104645Y413136D01*
X104522Y413099D01*
X104398Y413065D01*
X104272Y413036D01*
X104146Y413010D01*
X104019Y412988D01*
X103892Y412971D01*
X103764Y412957D01*
X103635Y412947D01*
X103507Y412941D01*
X103378Y412939D01*
X103249Y412941D01*
X103121Y412947D01*
X102992Y412957D01*
X102864Y412971D01*
X102737Y412988D01*
X102610Y413010D01*
X102484Y413036D01*
X102358Y413065D01*
X102234Y413099D01*
X102111Y413136D01*
X101988Y413177D01*
X101868Y413221D01*
X101748Y413270D01*
X101631Y413322D01*
X101514Y413377D01*
X101400Y413436D01*
X101287Y413499D01*
X101177Y413565D01*
X101069Y413635D01*
X100962Y413707D01*
X100858Y413783D01*
X100757Y413863D01*
X100658Y413945D01*
X100561Y414030D01*
X100467Y414118D01*
X100376Y414209D01*
X100288Y414303D01*
X100203Y414400D01*
X100121Y414499D01*
X100041Y414600D01*
X99965Y414704D01*
X99893Y414811D01*
X99823Y414919D01*
X99757Y415029D01*
X99694Y415142D01*
X99635Y415256D01*
X99580Y415373D01*
X99528Y415490D01*
X99479Y415610D01*
X99435Y415730D01*
X99394Y415853D01*
X99357Y415976D01*
X99323Y416100D01*
X99294Y416226D01*
X99268Y416352D01*
X99246Y416479D01*
X99229Y416606D01*
X99215Y416734D01*
X99205Y416863D01*
X99199Y416991D01*
X99197Y417120D01*
D13*
X103378Y452120D03*
D12*
X53197Y417120D02*
X53199Y417249D01*
X53205Y417377D01*
X53215Y417506D01*
X53229Y417634D01*
X53246Y417761D01*
X53268Y417888D01*
X53294Y418014D01*
X53323Y418140D01*
X53357Y418264D01*
X53394Y418387D01*
X53435Y418510D01*
X53479Y418630D01*
X53528Y418750D01*
X53580Y418867D01*
X53635Y418984D01*
X53694Y419098D01*
X53757Y419210D01*
X53823Y419321D01*
X53893Y419429D01*
X53965Y419536D01*
X54041Y419640D01*
X54121Y419741D01*
X54203Y419840D01*
X54288Y419937D01*
X54376Y420031D01*
X54467Y420122D01*
X54561Y420210D01*
X54658Y420295D01*
X54757Y420377D01*
X54858Y420457D01*
X54962Y420533D01*
X55069Y420605D01*
X55177Y420675D01*
X55287Y420741D01*
X55400Y420804D01*
X55514Y420863D01*
X55631Y420918D01*
X55748Y420970D01*
X55868Y421019D01*
X55988Y421063D01*
X56111Y421104D01*
X56234Y421141D01*
X56358Y421175D01*
X56484Y421204D01*
X56610Y421230D01*
X56737Y421252D01*
X56864Y421269D01*
X56992Y421283D01*
X57121Y421293D01*
X57249Y421299D01*
X57378Y421301D01*
X57507Y421299D01*
X57635Y421293D01*
X57764Y421283D01*
X57892Y421269D01*
X58019Y421252D01*
X58146Y421230D01*
X58272Y421204D01*
X58398Y421175D01*
X58522Y421141D01*
X58645Y421104D01*
X58768Y421063D01*
X58888Y421019D01*
X59008Y420970D01*
X59125Y420918D01*
X59242Y420863D01*
X59356Y420804D01*
X59468Y420741D01*
X59579Y420675D01*
X59687Y420605D01*
X59794Y420533D01*
X59898Y420457D01*
X59999Y420377D01*
X60098Y420295D01*
X60195Y420210D01*
X60289Y420122D01*
X60380Y420031D01*
X60468Y419937D01*
X60553Y419840D01*
X60635Y419741D01*
X60715Y419640D01*
X60791Y419536D01*
X60863Y419429D01*
X60933Y419321D01*
X60999Y419210D01*
X61062Y419098D01*
X61121Y418984D01*
X61176Y418867D01*
X61228Y418750D01*
X61277Y418630D01*
X61321Y418510D01*
X61362Y418387D01*
X61399Y418264D01*
X61433Y418140D01*
X61462Y418014D01*
X61488Y417888D01*
X61510Y417761D01*
X61527Y417634D01*
X61541Y417506D01*
X61551Y417377D01*
X61557Y417249D01*
X61559Y417120D01*
X61557Y416991D01*
X61551Y416863D01*
X61541Y416734D01*
X61527Y416606D01*
X61510Y416479D01*
X61488Y416352D01*
X61462Y416226D01*
X61433Y416100D01*
X61399Y415976D01*
X61362Y415853D01*
X61321Y415730D01*
X61277Y415610D01*
X61228Y415490D01*
X61176Y415373D01*
X61121Y415256D01*
X61062Y415142D01*
X60999Y415030D01*
X60933Y414919D01*
X60863Y414811D01*
X60791Y414704D01*
X60715Y414600D01*
X60635Y414499D01*
X60553Y414400D01*
X60468Y414303D01*
X60380Y414209D01*
X60289Y414118D01*
X60195Y414030D01*
X60098Y413945D01*
X59999Y413863D01*
X59898Y413783D01*
X59794Y413707D01*
X59687Y413635D01*
X59579Y413565D01*
X59469Y413499D01*
X59356Y413436D01*
X59242Y413377D01*
X59125Y413322D01*
X59008Y413270D01*
X58888Y413221D01*
X58768Y413177D01*
X58645Y413136D01*
X58522Y413099D01*
X58398Y413065D01*
X58272Y413036D01*
X58146Y413010D01*
X58019Y412988D01*
X57892Y412971D01*
X57764Y412957D01*
X57635Y412947D01*
X57507Y412941D01*
X57378Y412939D01*
X57249Y412941D01*
X57121Y412947D01*
X56992Y412957D01*
X56864Y412971D01*
X56737Y412988D01*
X56610Y413010D01*
X56484Y413036D01*
X56358Y413065D01*
X56234Y413099D01*
X56111Y413136D01*
X55988Y413177D01*
X55868Y413221D01*
X55748Y413270D01*
X55631Y413322D01*
X55514Y413377D01*
X55400Y413436D01*
X55287Y413499D01*
X55177Y413565D01*
X55069Y413635D01*
X54962Y413707D01*
X54858Y413783D01*
X54757Y413863D01*
X54658Y413945D01*
X54561Y414030D01*
X54467Y414118D01*
X54376Y414209D01*
X54288Y414303D01*
X54203Y414400D01*
X54121Y414499D01*
X54041Y414600D01*
X53965Y414704D01*
X53893Y414811D01*
X53823Y414919D01*
X53757Y415029D01*
X53694Y415142D01*
X53635Y415256D01*
X53580Y415373D01*
X53528Y415490D01*
X53479Y415610D01*
X53435Y415730D01*
X53394Y415853D01*
X53357Y415976D01*
X53323Y416100D01*
X53294Y416226D01*
X53268Y416352D01*
X53246Y416479D01*
X53229Y416606D01*
X53215Y416734D01*
X53205Y416863D01*
X53199Y416991D01*
X53197Y417120D01*
X53197Y452120D02*
X53199Y452249D01*
X53205Y452377D01*
X53215Y452506D01*
X53229Y452634D01*
X53246Y452761D01*
X53268Y452888D01*
X53294Y453014D01*
X53323Y453140D01*
X53357Y453264D01*
X53394Y453387D01*
X53435Y453510D01*
X53479Y453630D01*
X53528Y453750D01*
X53580Y453867D01*
X53635Y453984D01*
X53694Y454098D01*
X53757Y454210D01*
X53823Y454321D01*
X53893Y454429D01*
X53965Y454536D01*
X54041Y454640D01*
X54121Y454741D01*
X54203Y454840D01*
X54288Y454937D01*
X54376Y455031D01*
X54467Y455122D01*
X54561Y455210D01*
X54658Y455295D01*
X54757Y455377D01*
X54858Y455457D01*
X54962Y455533D01*
X55069Y455605D01*
X55177Y455675D01*
X55287Y455741D01*
X55400Y455804D01*
X55514Y455863D01*
X55631Y455918D01*
X55748Y455970D01*
X55868Y456019D01*
X55988Y456063D01*
X56111Y456104D01*
X56234Y456141D01*
X56358Y456175D01*
X56484Y456204D01*
X56610Y456230D01*
X56737Y456252D01*
X56864Y456269D01*
X56992Y456283D01*
X57121Y456293D01*
X57249Y456299D01*
X57378Y456301D01*
X57507Y456299D01*
X57635Y456293D01*
X57764Y456283D01*
X57892Y456269D01*
X58019Y456252D01*
X58146Y456230D01*
X58272Y456204D01*
X58398Y456175D01*
X58522Y456141D01*
X58645Y456104D01*
X58768Y456063D01*
X58888Y456019D01*
X59008Y455970D01*
X59125Y455918D01*
X59242Y455863D01*
X59356Y455804D01*
X59468Y455741D01*
X59579Y455675D01*
X59687Y455605D01*
X59794Y455533D01*
X59898Y455457D01*
X59999Y455377D01*
X60098Y455295D01*
X60195Y455210D01*
X60289Y455122D01*
X60380Y455031D01*
X60468Y454937D01*
X60553Y454840D01*
X60635Y454741D01*
X60715Y454640D01*
X60791Y454536D01*
X60863Y454429D01*
X60933Y454321D01*
X60999Y454210D01*
X61062Y454098D01*
X61121Y453984D01*
X61176Y453867D01*
X61228Y453750D01*
X61277Y453630D01*
X61321Y453510D01*
X61362Y453387D01*
X61399Y453264D01*
X61433Y453140D01*
X61462Y453014D01*
X61488Y452888D01*
X61510Y452761D01*
X61527Y452634D01*
X61541Y452506D01*
X61551Y452377D01*
X61557Y452249D01*
X61559Y452120D01*
X61557Y451991D01*
X61551Y451863D01*
X61541Y451734D01*
X61527Y451606D01*
X61510Y451479D01*
X61488Y451352D01*
X61462Y451226D01*
X61433Y451100D01*
X61399Y450976D01*
X61362Y450853D01*
X61321Y450730D01*
X61277Y450610D01*
X61228Y450490D01*
X61176Y450373D01*
X61121Y450256D01*
X61062Y450142D01*
X60999Y450030D01*
X60933Y449919D01*
X60863Y449811D01*
X60791Y449704D01*
X60715Y449600D01*
X60635Y449499D01*
X60553Y449400D01*
X60468Y449303D01*
X60380Y449209D01*
X60289Y449118D01*
X60195Y449030D01*
X60098Y448945D01*
X59999Y448863D01*
X59898Y448783D01*
X59794Y448707D01*
X59687Y448635D01*
X59579Y448565D01*
X59469Y448499D01*
X59356Y448436D01*
X59242Y448377D01*
X59125Y448322D01*
X59008Y448270D01*
X58888Y448221D01*
X58768Y448177D01*
X58645Y448136D01*
X58522Y448099D01*
X58398Y448065D01*
X58272Y448036D01*
X58146Y448010D01*
X58019Y447988D01*
X57892Y447971D01*
X57764Y447957D01*
X57635Y447947D01*
X57507Y447941D01*
X57378Y447939D01*
X57249Y447941D01*
X57121Y447947D01*
X56992Y447957D01*
X56864Y447971D01*
X56737Y447988D01*
X56610Y448010D01*
X56484Y448036D01*
X56358Y448065D01*
X56234Y448099D01*
X56111Y448136D01*
X55988Y448177D01*
X55868Y448221D01*
X55748Y448270D01*
X55631Y448322D01*
X55514Y448377D01*
X55400Y448436D01*
X55287Y448499D01*
X55177Y448565D01*
X55069Y448635D01*
X54962Y448707D01*
X54858Y448783D01*
X54757Y448863D01*
X54658Y448945D01*
X54561Y449030D01*
X54467Y449118D01*
X54376Y449209D01*
X54288Y449303D01*
X54203Y449400D01*
X54121Y449499D01*
X54041Y449600D01*
X53965Y449704D01*
X53893Y449811D01*
X53823Y449919D01*
X53757Y450029D01*
X53694Y450142D01*
X53635Y450256D01*
X53580Y450373D01*
X53528Y450490D01*
X53479Y450610D01*
X53435Y450730D01*
X53394Y450853D01*
X53357Y450976D01*
X53323Y451100D01*
X53294Y451226D01*
X53268Y451352D01*
X53246Y451479D01*
X53229Y451606D01*
X53215Y451734D01*
X53205Y451863D01*
X53199Y451991D01*
X53197Y452120D01*
D14*
X64197Y392120D02*
X64199Y392301D01*
X64206Y392482D01*
X64217Y392663D01*
X64233Y392843D01*
X64253Y393024D01*
X64277Y393203D01*
X64306Y393382D01*
X64339Y393560D01*
X64376Y393737D01*
X64418Y393913D01*
X64464Y394089D01*
X64515Y394263D01*
X64570Y394435D01*
X64628Y394607D01*
X64692Y394776D01*
X64759Y394945D01*
X64830Y395111D01*
X64906Y395276D01*
X64985Y395439D01*
X65069Y395599D01*
X65156Y395758D01*
X65247Y395915D01*
X65342Y396069D01*
X65441Y396221D01*
X65543Y396370D01*
X65650Y396517D01*
X65759Y396661D01*
X65872Y396802D01*
X65989Y396941D01*
X66109Y397077D01*
X66232Y397209D01*
X66359Y397339D01*
X66489Y397466D01*
X66621Y397589D01*
X66757Y397709D01*
X66896Y397826D01*
X67037Y397939D01*
X67181Y398048D01*
X67328Y398155D01*
X67477Y398257D01*
X67629Y398356D01*
X67783Y398451D01*
X67940Y398542D01*
X68099Y398629D01*
X68259Y398713D01*
X68422Y398792D01*
X68587Y398868D01*
X68753Y398939D01*
X68922Y399006D01*
X69091Y399070D01*
X69263Y399128D01*
X69435Y399183D01*
X69609Y399234D01*
X69785Y399280D01*
X69961Y399322D01*
X70138Y399359D01*
X70316Y399392D01*
X70495Y399421D01*
X70674Y399445D01*
X70855Y399465D01*
X71035Y399481D01*
X71216Y399492D01*
X71397Y399499D01*
X71578Y399501D01*
X71759Y399499D01*
X71940Y399492D01*
X72121Y399481D01*
X72301Y399465D01*
X72482Y399445D01*
X72661Y399421D01*
X72840Y399392D01*
X73018Y399359D01*
X73195Y399322D01*
X73371Y399280D01*
X73547Y399234D01*
X73721Y399183D01*
X73893Y399128D01*
X74065Y399070D01*
X74234Y399006D01*
X74403Y398939D01*
X74569Y398868D01*
X74734Y398792D01*
X74897Y398713D01*
X75057Y398629D01*
X75216Y398542D01*
X75373Y398451D01*
X75527Y398356D01*
X75679Y398257D01*
X75828Y398155D01*
X75975Y398048D01*
X76119Y397939D01*
X76260Y397826D01*
X76399Y397709D01*
X76535Y397589D01*
X76667Y397466D01*
X76797Y397339D01*
X76924Y397209D01*
X77047Y397077D01*
X77167Y396941D01*
X77284Y396802D01*
X77397Y396661D01*
X77506Y396517D01*
X77613Y396370D01*
X77715Y396221D01*
X77814Y396069D01*
X77909Y395915D01*
X78000Y395758D01*
X78087Y395599D01*
X78171Y395439D01*
X78250Y395276D01*
X78326Y395111D01*
X78397Y394945D01*
X78464Y394776D01*
X78528Y394607D01*
X78586Y394435D01*
X78641Y394263D01*
X78692Y394089D01*
X78738Y393913D01*
X78780Y393737D01*
X78817Y393560D01*
X78850Y393382D01*
X78879Y393203D01*
X78903Y393024D01*
X78923Y392843D01*
X78939Y392663D01*
X78950Y392482D01*
X78957Y392301D01*
X78959Y392120D01*
X78957Y391939D01*
X78950Y391758D01*
X78939Y391577D01*
X78923Y391397D01*
X78903Y391216D01*
X78879Y391037D01*
X78850Y390858D01*
X78817Y390680D01*
X78780Y390503D01*
X78738Y390327D01*
X78692Y390151D01*
X78641Y389977D01*
X78586Y389805D01*
X78528Y389633D01*
X78464Y389464D01*
X78397Y389295D01*
X78326Y389129D01*
X78250Y388964D01*
X78171Y388801D01*
X78087Y388641D01*
X78000Y388482D01*
X77909Y388325D01*
X77814Y388171D01*
X77715Y388019D01*
X77613Y387870D01*
X77506Y387723D01*
X77397Y387579D01*
X77284Y387438D01*
X77167Y387299D01*
X77047Y387163D01*
X76924Y387031D01*
X76797Y386901D01*
X76667Y386774D01*
X76535Y386651D01*
X76399Y386531D01*
X76260Y386414D01*
X76119Y386301D01*
X75975Y386192D01*
X75828Y386085D01*
X75679Y385983D01*
X75527Y385884D01*
X75373Y385789D01*
X75216Y385698D01*
X75057Y385611D01*
X74897Y385527D01*
X74734Y385448D01*
X74569Y385372D01*
X74403Y385301D01*
X74234Y385234D01*
X74065Y385170D01*
X73893Y385112D01*
X73721Y385057D01*
X73547Y385006D01*
X73371Y384960D01*
X73195Y384918D01*
X73018Y384881D01*
X72840Y384848D01*
X72661Y384819D01*
X72482Y384795D01*
X72301Y384775D01*
X72121Y384759D01*
X71940Y384748D01*
X71759Y384741D01*
X71578Y384739D01*
X71397Y384741D01*
X71216Y384748D01*
X71035Y384759D01*
X70855Y384775D01*
X70674Y384795D01*
X70495Y384819D01*
X70316Y384848D01*
X70138Y384881D01*
X69961Y384918D01*
X69785Y384960D01*
X69609Y385006D01*
X69435Y385057D01*
X69263Y385112D01*
X69091Y385170D01*
X68922Y385234D01*
X68753Y385301D01*
X68587Y385372D01*
X68422Y385448D01*
X68259Y385527D01*
X68099Y385611D01*
X67940Y385698D01*
X67783Y385789D01*
X67629Y385884D01*
X67477Y385983D01*
X67328Y386085D01*
X67181Y386192D01*
X67037Y386301D01*
X66896Y386414D01*
X66757Y386531D01*
X66621Y386651D01*
X66489Y386774D01*
X66359Y386901D01*
X66232Y387031D01*
X66109Y387163D01*
X65989Y387299D01*
X65872Y387438D01*
X65759Y387579D01*
X65650Y387723D01*
X65543Y387870D01*
X65441Y388019D01*
X65342Y388171D01*
X65247Y388325D01*
X65156Y388482D01*
X65069Y388641D01*
X64985Y388801D01*
X64906Y388964D01*
X64830Y389129D01*
X64759Y389295D01*
X64692Y389464D01*
X64628Y389633D01*
X64570Y389805D01*
X64515Y389977D01*
X64464Y390151D01*
X64418Y390327D01*
X64376Y390503D01*
X64339Y390680D01*
X64306Y390858D01*
X64277Y391037D01*
X64253Y391216D01*
X64233Y391397D01*
X64217Y391577D01*
X64206Y391758D01*
X64199Y391939D01*
X64197Y392120D01*
X64197Y477120D02*
X64199Y477301D01*
X64206Y477482D01*
X64217Y477663D01*
X64233Y477843D01*
X64253Y478024D01*
X64277Y478203D01*
X64306Y478382D01*
X64339Y478560D01*
X64376Y478737D01*
X64418Y478913D01*
X64464Y479089D01*
X64515Y479263D01*
X64570Y479435D01*
X64628Y479607D01*
X64692Y479776D01*
X64759Y479945D01*
X64830Y480111D01*
X64906Y480276D01*
X64985Y480439D01*
X65069Y480599D01*
X65156Y480758D01*
X65247Y480915D01*
X65342Y481069D01*
X65441Y481221D01*
X65543Y481370D01*
X65650Y481517D01*
X65759Y481661D01*
X65872Y481802D01*
X65989Y481941D01*
X66109Y482077D01*
X66232Y482209D01*
X66359Y482339D01*
X66489Y482466D01*
X66621Y482589D01*
X66757Y482709D01*
X66896Y482826D01*
X67037Y482939D01*
X67181Y483048D01*
X67328Y483155D01*
X67477Y483257D01*
X67629Y483356D01*
X67783Y483451D01*
X67940Y483542D01*
X68099Y483629D01*
X68259Y483713D01*
X68422Y483792D01*
X68587Y483868D01*
X68753Y483939D01*
X68922Y484006D01*
X69091Y484070D01*
X69263Y484128D01*
X69435Y484183D01*
X69609Y484234D01*
X69785Y484280D01*
X69961Y484322D01*
X70138Y484359D01*
X70316Y484392D01*
X70495Y484421D01*
X70674Y484445D01*
X70855Y484465D01*
X71035Y484481D01*
X71216Y484492D01*
X71397Y484499D01*
X71578Y484501D01*
X71759Y484499D01*
X71940Y484492D01*
X72121Y484481D01*
X72301Y484465D01*
X72482Y484445D01*
X72661Y484421D01*
X72840Y484392D01*
X73018Y484359D01*
X73195Y484322D01*
X73371Y484280D01*
X73547Y484234D01*
X73721Y484183D01*
X73893Y484128D01*
X74065Y484070D01*
X74234Y484006D01*
X74403Y483939D01*
X74569Y483868D01*
X74734Y483792D01*
X74897Y483713D01*
X75057Y483629D01*
X75216Y483542D01*
X75373Y483451D01*
X75527Y483356D01*
X75679Y483257D01*
X75828Y483155D01*
X75975Y483048D01*
X76119Y482939D01*
X76260Y482826D01*
X76399Y482709D01*
X76535Y482589D01*
X76667Y482466D01*
X76797Y482339D01*
X76924Y482209D01*
X77047Y482077D01*
X77167Y481941D01*
X77284Y481802D01*
X77397Y481661D01*
X77506Y481517D01*
X77613Y481370D01*
X77715Y481221D01*
X77814Y481069D01*
X77909Y480915D01*
X78000Y480758D01*
X78087Y480599D01*
X78171Y480439D01*
X78250Y480276D01*
X78326Y480111D01*
X78397Y479945D01*
X78464Y479776D01*
X78528Y479607D01*
X78586Y479435D01*
X78641Y479263D01*
X78692Y479089D01*
X78738Y478913D01*
X78780Y478737D01*
X78817Y478560D01*
X78850Y478382D01*
X78879Y478203D01*
X78903Y478024D01*
X78923Y477843D01*
X78939Y477663D01*
X78950Y477482D01*
X78957Y477301D01*
X78959Y477120D01*
X78957Y476939D01*
X78950Y476758D01*
X78939Y476577D01*
X78923Y476397D01*
X78903Y476216D01*
X78879Y476037D01*
X78850Y475858D01*
X78817Y475680D01*
X78780Y475503D01*
X78738Y475327D01*
X78692Y475151D01*
X78641Y474977D01*
X78586Y474805D01*
X78528Y474633D01*
X78464Y474464D01*
X78397Y474295D01*
X78326Y474129D01*
X78250Y473964D01*
X78171Y473801D01*
X78087Y473641D01*
X78000Y473482D01*
X77909Y473325D01*
X77814Y473171D01*
X77715Y473019D01*
X77613Y472870D01*
X77506Y472723D01*
X77397Y472579D01*
X77284Y472438D01*
X77167Y472299D01*
X77047Y472163D01*
X76924Y472031D01*
X76797Y471901D01*
X76667Y471774D01*
X76535Y471651D01*
X76399Y471531D01*
X76260Y471414D01*
X76119Y471301D01*
X75975Y471192D01*
X75828Y471085D01*
X75679Y470983D01*
X75527Y470884D01*
X75373Y470789D01*
X75216Y470698D01*
X75057Y470611D01*
X74897Y470527D01*
X74734Y470448D01*
X74569Y470372D01*
X74403Y470301D01*
X74234Y470234D01*
X74065Y470170D01*
X73893Y470112D01*
X73721Y470057D01*
X73547Y470006D01*
X73371Y469960D01*
X73195Y469918D01*
X73018Y469881D01*
X72840Y469848D01*
X72661Y469819D01*
X72482Y469795D01*
X72301Y469775D01*
X72121Y469759D01*
X71940Y469748D01*
X71759Y469741D01*
X71578Y469739D01*
X71397Y469741D01*
X71216Y469748D01*
X71035Y469759D01*
X70855Y469775D01*
X70674Y469795D01*
X70495Y469819D01*
X70316Y469848D01*
X70138Y469881D01*
X69961Y469918D01*
X69785Y469960D01*
X69609Y470006D01*
X69435Y470057D01*
X69263Y470112D01*
X69091Y470170D01*
X68922Y470234D01*
X68753Y470301D01*
X68587Y470372D01*
X68422Y470448D01*
X68259Y470527D01*
X68099Y470611D01*
X67940Y470698D01*
X67783Y470789D01*
X67629Y470884D01*
X67477Y470983D01*
X67328Y471085D01*
X67181Y471192D01*
X67037Y471301D01*
X66896Y471414D01*
X66757Y471531D01*
X66621Y471651D01*
X66489Y471774D01*
X66359Y471901D01*
X66232Y472031D01*
X66109Y472163D01*
X65989Y472299D01*
X65872Y472438D01*
X65759Y472579D01*
X65650Y472723D01*
X65543Y472870D01*
X65441Y473019D01*
X65342Y473171D01*
X65247Y473325D01*
X65156Y473482D01*
X65069Y473641D01*
X64985Y473801D01*
X64906Y473964D01*
X64830Y474129D01*
X64759Y474295D01*
X64692Y474464D01*
X64628Y474633D01*
X64570Y474805D01*
X64515Y474977D01*
X64464Y475151D01*
X64418Y475327D01*
X64376Y475503D01*
X64339Y475680D01*
X64306Y475858D01*
X64277Y476037D01*
X64253Y476216D01*
X64233Y476397D01*
X64217Y476577D01*
X64206Y476758D01*
X64199Y476939D01*
X64197Y477120D01*
D12*
X99197Y594920D02*
X99199Y595049D01*
X99205Y595177D01*
X99215Y595306D01*
X99229Y595434D01*
X99246Y595561D01*
X99268Y595688D01*
X99294Y595814D01*
X99323Y595940D01*
X99357Y596064D01*
X99394Y596187D01*
X99435Y596310D01*
X99479Y596430D01*
X99528Y596550D01*
X99580Y596667D01*
X99635Y596784D01*
X99694Y596898D01*
X99757Y597010D01*
X99823Y597121D01*
X99893Y597229D01*
X99965Y597336D01*
X100041Y597440D01*
X100121Y597541D01*
X100203Y597640D01*
X100288Y597737D01*
X100376Y597831D01*
X100467Y597922D01*
X100561Y598010D01*
X100658Y598095D01*
X100757Y598177D01*
X100858Y598257D01*
X100962Y598333D01*
X101069Y598405D01*
X101177Y598475D01*
X101287Y598541D01*
X101400Y598604D01*
X101514Y598663D01*
X101631Y598718D01*
X101748Y598770D01*
X101868Y598819D01*
X101988Y598863D01*
X102111Y598904D01*
X102234Y598941D01*
X102358Y598975D01*
X102484Y599004D01*
X102610Y599030D01*
X102737Y599052D01*
X102864Y599069D01*
X102992Y599083D01*
X103121Y599093D01*
X103249Y599099D01*
X103378Y599101D01*
X103507Y599099D01*
X103635Y599093D01*
X103764Y599083D01*
X103892Y599069D01*
X104019Y599052D01*
X104146Y599030D01*
X104272Y599004D01*
X104398Y598975D01*
X104522Y598941D01*
X104645Y598904D01*
X104768Y598863D01*
X104888Y598819D01*
X105008Y598770D01*
X105125Y598718D01*
X105242Y598663D01*
X105356Y598604D01*
X105468Y598541D01*
X105579Y598475D01*
X105687Y598405D01*
X105794Y598333D01*
X105898Y598257D01*
X105999Y598177D01*
X106098Y598095D01*
X106195Y598010D01*
X106289Y597922D01*
X106380Y597831D01*
X106468Y597737D01*
X106553Y597640D01*
X106635Y597541D01*
X106715Y597440D01*
X106791Y597336D01*
X106863Y597229D01*
X106933Y597121D01*
X106999Y597010D01*
X107062Y596898D01*
X107121Y596784D01*
X107176Y596667D01*
X107228Y596550D01*
X107277Y596430D01*
X107321Y596310D01*
X107362Y596187D01*
X107399Y596064D01*
X107433Y595940D01*
X107462Y595814D01*
X107488Y595688D01*
X107510Y595561D01*
X107527Y595434D01*
X107541Y595306D01*
X107551Y595177D01*
X107557Y595049D01*
X107559Y594920D01*
X107557Y594791D01*
X107551Y594663D01*
X107541Y594534D01*
X107527Y594406D01*
X107510Y594279D01*
X107488Y594152D01*
X107462Y594026D01*
X107433Y593900D01*
X107399Y593776D01*
X107362Y593653D01*
X107321Y593530D01*
X107277Y593410D01*
X107228Y593290D01*
X107176Y593173D01*
X107121Y593056D01*
X107062Y592942D01*
X106999Y592830D01*
X106933Y592719D01*
X106863Y592611D01*
X106791Y592504D01*
X106715Y592400D01*
X106635Y592299D01*
X106553Y592200D01*
X106468Y592103D01*
X106380Y592009D01*
X106289Y591918D01*
X106195Y591830D01*
X106098Y591745D01*
X105999Y591663D01*
X105898Y591583D01*
X105794Y591507D01*
X105687Y591435D01*
X105579Y591365D01*
X105469Y591299D01*
X105356Y591236D01*
X105242Y591177D01*
X105125Y591122D01*
X105008Y591070D01*
X104888Y591021D01*
X104768Y590977D01*
X104645Y590936D01*
X104522Y590899D01*
X104398Y590865D01*
X104272Y590836D01*
X104146Y590810D01*
X104019Y590788D01*
X103892Y590771D01*
X103764Y590757D01*
X103635Y590747D01*
X103507Y590741D01*
X103378Y590739D01*
X103249Y590741D01*
X103121Y590747D01*
X102992Y590757D01*
X102864Y590771D01*
X102737Y590788D01*
X102610Y590810D01*
X102484Y590836D01*
X102358Y590865D01*
X102234Y590899D01*
X102111Y590936D01*
X101988Y590977D01*
X101868Y591021D01*
X101748Y591070D01*
X101631Y591122D01*
X101514Y591177D01*
X101400Y591236D01*
X101287Y591299D01*
X101177Y591365D01*
X101069Y591435D01*
X100962Y591507D01*
X100858Y591583D01*
X100757Y591663D01*
X100658Y591745D01*
X100561Y591830D01*
X100467Y591918D01*
X100376Y592009D01*
X100288Y592103D01*
X100203Y592200D01*
X100121Y592299D01*
X100041Y592400D01*
X99965Y592504D01*
X99893Y592611D01*
X99823Y592719D01*
X99757Y592829D01*
X99694Y592942D01*
X99635Y593056D01*
X99580Y593173D01*
X99528Y593290D01*
X99479Y593410D01*
X99435Y593530D01*
X99394Y593653D01*
X99357Y593776D01*
X99323Y593900D01*
X99294Y594026D01*
X99268Y594152D01*
X99246Y594279D01*
X99229Y594406D01*
X99215Y594534D01*
X99205Y594663D01*
X99199Y594791D01*
X99197Y594920D01*
D13*
X103378Y629920D03*
D12*
X53197Y594920D02*
X53199Y595049D01*
X53205Y595177D01*
X53215Y595306D01*
X53229Y595434D01*
X53246Y595561D01*
X53268Y595688D01*
X53294Y595814D01*
X53323Y595940D01*
X53357Y596064D01*
X53394Y596187D01*
X53435Y596310D01*
X53479Y596430D01*
X53528Y596550D01*
X53580Y596667D01*
X53635Y596784D01*
X53694Y596898D01*
X53757Y597010D01*
X53823Y597121D01*
X53893Y597229D01*
X53965Y597336D01*
X54041Y597440D01*
X54121Y597541D01*
X54203Y597640D01*
X54288Y597737D01*
X54376Y597831D01*
X54467Y597922D01*
X54561Y598010D01*
X54658Y598095D01*
X54757Y598177D01*
X54858Y598257D01*
X54962Y598333D01*
X55069Y598405D01*
X55177Y598475D01*
X55287Y598541D01*
X55400Y598604D01*
X55514Y598663D01*
X55631Y598718D01*
X55748Y598770D01*
X55868Y598819D01*
X55988Y598863D01*
X56111Y598904D01*
X56234Y598941D01*
X56358Y598975D01*
X56484Y599004D01*
X56610Y599030D01*
X56737Y599052D01*
X56864Y599069D01*
X56992Y599083D01*
X57121Y599093D01*
X57249Y599099D01*
X57378Y599101D01*
X57507Y599099D01*
X57635Y599093D01*
X57764Y599083D01*
X57892Y599069D01*
X58019Y599052D01*
X58146Y599030D01*
X58272Y599004D01*
X58398Y598975D01*
X58522Y598941D01*
X58645Y598904D01*
X58768Y598863D01*
X58888Y598819D01*
X59008Y598770D01*
X59125Y598718D01*
X59242Y598663D01*
X59356Y598604D01*
X59468Y598541D01*
X59579Y598475D01*
X59687Y598405D01*
X59794Y598333D01*
X59898Y598257D01*
X59999Y598177D01*
X60098Y598095D01*
X60195Y598010D01*
X60289Y597922D01*
X60380Y597831D01*
X60468Y597737D01*
X60553Y597640D01*
X60635Y597541D01*
X60715Y597440D01*
X60791Y597336D01*
X60863Y597229D01*
X60933Y597121D01*
X60999Y597010D01*
X61062Y596898D01*
X61121Y596784D01*
X61176Y596667D01*
X61228Y596550D01*
X61277Y596430D01*
X61321Y596310D01*
X61362Y596187D01*
X61399Y596064D01*
X61433Y595940D01*
X61462Y595814D01*
X61488Y595688D01*
X61510Y595561D01*
X61527Y595434D01*
X61541Y595306D01*
X61551Y595177D01*
X61557Y595049D01*
X61559Y594920D01*
X61557Y594791D01*
X61551Y594663D01*
X61541Y594534D01*
X61527Y594406D01*
X61510Y594279D01*
X61488Y594152D01*
X61462Y594026D01*
X61433Y593900D01*
X61399Y593776D01*
X61362Y593653D01*
X61321Y593530D01*
X61277Y593410D01*
X61228Y593290D01*
X61176Y593173D01*
X61121Y593056D01*
X61062Y592942D01*
X60999Y592830D01*
X60933Y592719D01*
X60863Y592611D01*
X60791Y592504D01*
X60715Y592400D01*
X60635Y592299D01*
X60553Y592200D01*
X60468Y592103D01*
X60380Y592009D01*
X60289Y591918D01*
X60195Y591830D01*
X60098Y591745D01*
X59999Y591663D01*
X59898Y591583D01*
X59794Y591507D01*
X59687Y591435D01*
X59579Y591365D01*
X59469Y591299D01*
X59356Y591236D01*
X59242Y591177D01*
X59125Y591122D01*
X59008Y591070D01*
X58888Y591021D01*
X58768Y590977D01*
X58645Y590936D01*
X58522Y590899D01*
X58398Y590865D01*
X58272Y590836D01*
X58146Y590810D01*
X58019Y590788D01*
X57892Y590771D01*
X57764Y590757D01*
X57635Y590747D01*
X57507Y590741D01*
X57378Y590739D01*
X57249Y590741D01*
X57121Y590747D01*
X56992Y590757D01*
X56864Y590771D01*
X56737Y590788D01*
X56610Y590810D01*
X56484Y590836D01*
X56358Y590865D01*
X56234Y590899D01*
X56111Y590936D01*
X55988Y590977D01*
X55868Y591021D01*
X55748Y591070D01*
X55631Y591122D01*
X55514Y591177D01*
X55400Y591236D01*
X55287Y591299D01*
X55177Y591365D01*
X55069Y591435D01*
X54962Y591507D01*
X54858Y591583D01*
X54757Y591663D01*
X54658Y591745D01*
X54561Y591830D01*
X54467Y591918D01*
X54376Y592009D01*
X54288Y592103D01*
X54203Y592200D01*
X54121Y592299D01*
X54041Y592400D01*
X53965Y592504D01*
X53893Y592611D01*
X53823Y592719D01*
X53757Y592829D01*
X53694Y592942D01*
X53635Y593056D01*
X53580Y593173D01*
X53528Y593290D01*
X53479Y593410D01*
X53435Y593530D01*
X53394Y593653D01*
X53357Y593776D01*
X53323Y593900D01*
X53294Y594026D01*
X53268Y594152D01*
X53246Y594279D01*
X53229Y594406D01*
X53215Y594534D01*
X53205Y594663D01*
X53199Y594791D01*
X53197Y594920D01*
X53197Y629920D02*
X53199Y630049D01*
X53205Y630177D01*
X53215Y630306D01*
X53229Y630434D01*
X53246Y630561D01*
X53268Y630688D01*
X53294Y630814D01*
X53323Y630940D01*
X53357Y631064D01*
X53394Y631187D01*
X53435Y631310D01*
X53479Y631430D01*
X53528Y631550D01*
X53580Y631667D01*
X53635Y631784D01*
X53694Y631898D01*
X53757Y632010D01*
X53823Y632121D01*
X53893Y632229D01*
X53965Y632336D01*
X54041Y632440D01*
X54121Y632541D01*
X54203Y632640D01*
X54288Y632737D01*
X54376Y632831D01*
X54467Y632922D01*
X54561Y633010D01*
X54658Y633095D01*
X54757Y633177D01*
X54858Y633257D01*
X54962Y633333D01*
X55069Y633405D01*
X55177Y633475D01*
X55287Y633541D01*
X55400Y633604D01*
X55514Y633663D01*
X55631Y633718D01*
X55748Y633770D01*
X55868Y633819D01*
X55988Y633863D01*
X56111Y633904D01*
X56234Y633941D01*
X56358Y633975D01*
X56484Y634004D01*
X56610Y634030D01*
X56737Y634052D01*
X56864Y634069D01*
X56992Y634083D01*
X57121Y634093D01*
X57249Y634099D01*
X57378Y634101D01*
X57507Y634099D01*
X57635Y634093D01*
X57764Y634083D01*
X57892Y634069D01*
X58019Y634052D01*
X58146Y634030D01*
X58272Y634004D01*
X58398Y633975D01*
X58522Y633941D01*
X58645Y633904D01*
X58768Y633863D01*
X58888Y633819D01*
X59008Y633770D01*
X59125Y633718D01*
X59242Y633663D01*
X59356Y633604D01*
X59468Y633541D01*
X59579Y633475D01*
X59687Y633405D01*
X59794Y633333D01*
X59898Y633257D01*
X59999Y633177D01*
X60098Y633095D01*
X60195Y633010D01*
X60289Y632922D01*
X60380Y632831D01*
X60468Y632737D01*
X60553Y632640D01*
X60635Y632541D01*
X60715Y632440D01*
X60791Y632336D01*
X60863Y632229D01*
X60933Y632121D01*
X60999Y632010D01*
X61062Y631898D01*
X61121Y631784D01*
X61176Y631667D01*
X61228Y631550D01*
X61277Y631430D01*
X61321Y631310D01*
X61362Y631187D01*
X61399Y631064D01*
X61433Y630940D01*
X61462Y630814D01*
X61488Y630688D01*
X61510Y630561D01*
X61527Y630434D01*
X61541Y630306D01*
X61551Y630177D01*
X61557Y630049D01*
X61559Y629920D01*
X61557Y629791D01*
X61551Y629663D01*
X61541Y629534D01*
X61527Y629406D01*
X61510Y629279D01*
X61488Y629152D01*
X61462Y629026D01*
X61433Y628900D01*
X61399Y628776D01*
X61362Y628653D01*
X61321Y628530D01*
X61277Y628410D01*
X61228Y628290D01*
X61176Y628173D01*
X61121Y628056D01*
X61062Y627942D01*
X60999Y627830D01*
X60933Y627719D01*
X60863Y627611D01*
X60791Y627504D01*
X60715Y627400D01*
X60635Y627299D01*
X60553Y627200D01*
X60468Y627103D01*
X60380Y627009D01*
X60289Y626918D01*
X60195Y626830D01*
X60098Y626745D01*
X59999Y626663D01*
X59898Y626583D01*
X59794Y626507D01*
X59687Y626435D01*
X59579Y626365D01*
X59469Y626299D01*
X59356Y626236D01*
X59242Y626177D01*
X59125Y626122D01*
X59008Y626070D01*
X58888Y626021D01*
X58768Y625977D01*
X58645Y625936D01*
X58522Y625899D01*
X58398Y625865D01*
X58272Y625836D01*
X58146Y625810D01*
X58019Y625788D01*
X57892Y625771D01*
X57764Y625757D01*
X57635Y625747D01*
X57507Y625741D01*
X57378Y625739D01*
X57249Y625741D01*
X57121Y625747D01*
X56992Y625757D01*
X56864Y625771D01*
X56737Y625788D01*
X56610Y625810D01*
X56484Y625836D01*
X56358Y625865D01*
X56234Y625899D01*
X56111Y625936D01*
X55988Y625977D01*
X55868Y626021D01*
X55748Y626070D01*
X55631Y626122D01*
X55514Y626177D01*
X55400Y626236D01*
X55287Y626299D01*
X55177Y626365D01*
X55069Y626435D01*
X54962Y626507D01*
X54858Y626583D01*
X54757Y626663D01*
X54658Y626745D01*
X54561Y626830D01*
X54467Y626918D01*
X54376Y627009D01*
X54288Y627103D01*
X54203Y627200D01*
X54121Y627299D01*
X54041Y627400D01*
X53965Y627504D01*
X53893Y627611D01*
X53823Y627719D01*
X53757Y627829D01*
X53694Y627942D01*
X53635Y628056D01*
X53580Y628173D01*
X53528Y628290D01*
X53479Y628410D01*
X53435Y628530D01*
X53394Y628653D01*
X53357Y628776D01*
X53323Y628900D01*
X53294Y629026D01*
X53268Y629152D01*
X53246Y629279D01*
X53229Y629406D01*
X53215Y629534D01*
X53205Y629663D01*
X53199Y629791D01*
X53197Y629920D01*
D14*
X64197Y569920D02*
X64199Y570101D01*
X64206Y570282D01*
X64217Y570463D01*
X64233Y570643D01*
X64253Y570824D01*
X64277Y571003D01*
X64306Y571182D01*
X64339Y571360D01*
X64376Y571537D01*
X64418Y571713D01*
X64464Y571889D01*
X64515Y572063D01*
X64570Y572235D01*
X64628Y572407D01*
X64692Y572576D01*
X64759Y572745D01*
X64830Y572911D01*
X64906Y573076D01*
X64985Y573239D01*
X65069Y573399D01*
X65156Y573558D01*
X65247Y573715D01*
X65342Y573869D01*
X65441Y574021D01*
X65543Y574170D01*
X65650Y574317D01*
X65759Y574461D01*
X65872Y574602D01*
X65989Y574741D01*
X66109Y574877D01*
X66232Y575009D01*
X66359Y575139D01*
X66489Y575266D01*
X66621Y575389D01*
X66757Y575509D01*
X66896Y575626D01*
X67037Y575739D01*
X67181Y575848D01*
X67328Y575955D01*
X67477Y576057D01*
X67629Y576156D01*
X67783Y576251D01*
X67940Y576342D01*
X68099Y576429D01*
X68259Y576513D01*
X68422Y576592D01*
X68587Y576668D01*
X68753Y576739D01*
X68922Y576806D01*
X69091Y576870D01*
X69263Y576928D01*
X69435Y576983D01*
X69609Y577034D01*
X69785Y577080D01*
X69961Y577122D01*
X70138Y577159D01*
X70316Y577192D01*
X70495Y577221D01*
X70674Y577245D01*
X70855Y577265D01*
X71035Y577281D01*
X71216Y577292D01*
X71397Y577299D01*
X71578Y577301D01*
X71759Y577299D01*
X71940Y577292D01*
X72121Y577281D01*
X72301Y577265D01*
X72482Y577245D01*
X72661Y577221D01*
X72840Y577192D01*
X73018Y577159D01*
X73195Y577122D01*
X73371Y577080D01*
X73547Y577034D01*
X73721Y576983D01*
X73893Y576928D01*
X74065Y576870D01*
X74234Y576806D01*
X74403Y576739D01*
X74569Y576668D01*
X74734Y576592D01*
X74897Y576513D01*
X75057Y576429D01*
X75216Y576342D01*
X75373Y576251D01*
X75527Y576156D01*
X75679Y576057D01*
X75828Y575955D01*
X75975Y575848D01*
X76119Y575739D01*
X76260Y575626D01*
X76399Y575509D01*
X76535Y575389D01*
X76667Y575266D01*
X76797Y575139D01*
X76924Y575009D01*
X77047Y574877D01*
X77167Y574741D01*
X77284Y574602D01*
X77397Y574461D01*
X77506Y574317D01*
X77613Y574170D01*
X77715Y574021D01*
X77814Y573869D01*
X77909Y573715D01*
X78000Y573558D01*
X78087Y573399D01*
X78171Y573239D01*
X78250Y573076D01*
X78326Y572911D01*
X78397Y572745D01*
X78464Y572576D01*
X78528Y572407D01*
X78586Y572235D01*
X78641Y572063D01*
X78692Y571889D01*
X78738Y571713D01*
X78780Y571537D01*
X78817Y571360D01*
X78850Y571182D01*
X78879Y571003D01*
X78903Y570824D01*
X78923Y570643D01*
X78939Y570463D01*
X78950Y570282D01*
X78957Y570101D01*
X78959Y569920D01*
X78957Y569739D01*
X78950Y569558D01*
X78939Y569377D01*
X78923Y569197D01*
X78903Y569016D01*
X78879Y568837D01*
X78850Y568658D01*
X78817Y568480D01*
X78780Y568303D01*
X78738Y568127D01*
X78692Y567951D01*
X78641Y567777D01*
X78586Y567605D01*
X78528Y567433D01*
X78464Y567264D01*
X78397Y567095D01*
X78326Y566929D01*
X78250Y566764D01*
X78171Y566601D01*
X78087Y566441D01*
X78000Y566282D01*
X77909Y566125D01*
X77814Y565971D01*
X77715Y565819D01*
X77613Y565670D01*
X77506Y565523D01*
X77397Y565379D01*
X77284Y565238D01*
X77167Y565099D01*
X77047Y564963D01*
X76924Y564831D01*
X76797Y564701D01*
X76667Y564574D01*
X76535Y564451D01*
X76399Y564331D01*
X76260Y564214D01*
X76119Y564101D01*
X75975Y563992D01*
X75828Y563885D01*
X75679Y563783D01*
X75527Y563684D01*
X75373Y563589D01*
X75216Y563498D01*
X75057Y563411D01*
X74897Y563327D01*
X74734Y563248D01*
X74569Y563172D01*
X74403Y563101D01*
X74234Y563034D01*
X74065Y562970D01*
X73893Y562912D01*
X73721Y562857D01*
X73547Y562806D01*
X73371Y562760D01*
X73195Y562718D01*
X73018Y562681D01*
X72840Y562648D01*
X72661Y562619D01*
X72482Y562595D01*
X72301Y562575D01*
X72121Y562559D01*
X71940Y562548D01*
X71759Y562541D01*
X71578Y562539D01*
X71397Y562541D01*
X71216Y562548D01*
X71035Y562559D01*
X70855Y562575D01*
X70674Y562595D01*
X70495Y562619D01*
X70316Y562648D01*
X70138Y562681D01*
X69961Y562718D01*
X69785Y562760D01*
X69609Y562806D01*
X69435Y562857D01*
X69263Y562912D01*
X69091Y562970D01*
X68922Y563034D01*
X68753Y563101D01*
X68587Y563172D01*
X68422Y563248D01*
X68259Y563327D01*
X68099Y563411D01*
X67940Y563498D01*
X67783Y563589D01*
X67629Y563684D01*
X67477Y563783D01*
X67328Y563885D01*
X67181Y563992D01*
X67037Y564101D01*
X66896Y564214D01*
X66757Y564331D01*
X66621Y564451D01*
X66489Y564574D01*
X66359Y564701D01*
X66232Y564831D01*
X66109Y564963D01*
X65989Y565099D01*
X65872Y565238D01*
X65759Y565379D01*
X65650Y565523D01*
X65543Y565670D01*
X65441Y565819D01*
X65342Y565971D01*
X65247Y566125D01*
X65156Y566282D01*
X65069Y566441D01*
X64985Y566601D01*
X64906Y566764D01*
X64830Y566929D01*
X64759Y567095D01*
X64692Y567264D01*
X64628Y567433D01*
X64570Y567605D01*
X64515Y567777D01*
X64464Y567951D01*
X64418Y568127D01*
X64376Y568303D01*
X64339Y568480D01*
X64306Y568658D01*
X64277Y568837D01*
X64253Y569016D01*
X64233Y569197D01*
X64217Y569377D01*
X64206Y569558D01*
X64199Y569739D01*
X64197Y569920D01*
X64197Y654920D02*
X64199Y655101D01*
X64206Y655282D01*
X64217Y655463D01*
X64233Y655643D01*
X64253Y655824D01*
X64277Y656003D01*
X64306Y656182D01*
X64339Y656360D01*
X64376Y656537D01*
X64418Y656713D01*
X64464Y656889D01*
X64515Y657063D01*
X64570Y657235D01*
X64628Y657407D01*
X64692Y657576D01*
X64759Y657745D01*
X64830Y657911D01*
X64906Y658076D01*
X64985Y658239D01*
X65069Y658399D01*
X65156Y658558D01*
X65247Y658715D01*
X65342Y658869D01*
X65441Y659021D01*
X65543Y659170D01*
X65650Y659317D01*
X65759Y659461D01*
X65872Y659602D01*
X65989Y659741D01*
X66109Y659877D01*
X66232Y660009D01*
X66359Y660139D01*
X66489Y660266D01*
X66621Y660389D01*
X66757Y660509D01*
X66896Y660626D01*
X67037Y660739D01*
X67181Y660848D01*
X67328Y660955D01*
X67477Y661057D01*
X67629Y661156D01*
X67783Y661251D01*
X67940Y661342D01*
X68099Y661429D01*
X68259Y661513D01*
X68422Y661592D01*
X68587Y661668D01*
X68753Y661739D01*
X68922Y661806D01*
X69091Y661870D01*
X69263Y661928D01*
X69435Y661983D01*
X69609Y662034D01*
X69785Y662080D01*
X69961Y662122D01*
X70138Y662159D01*
X70316Y662192D01*
X70495Y662221D01*
X70674Y662245D01*
X70855Y662265D01*
X71035Y662281D01*
X71216Y662292D01*
X71397Y662299D01*
X71578Y662301D01*
X71759Y662299D01*
X71940Y662292D01*
X72121Y662281D01*
X72301Y662265D01*
X72482Y662245D01*
X72661Y662221D01*
X72840Y662192D01*
X73018Y662159D01*
X73195Y662122D01*
X73371Y662080D01*
X73547Y662034D01*
X73721Y661983D01*
X73893Y661928D01*
X74065Y661870D01*
X74234Y661806D01*
X74403Y661739D01*
X74569Y661668D01*
X74734Y661592D01*
X74897Y661513D01*
X75057Y661429D01*
X75216Y661342D01*
X75373Y661251D01*
X75527Y661156D01*
X75679Y661057D01*
X75828Y660955D01*
X75975Y660848D01*
X76119Y660739D01*
X76260Y660626D01*
X76399Y660509D01*
X76535Y660389D01*
X76667Y660266D01*
X76797Y660139D01*
X76924Y660009D01*
X77047Y659877D01*
X77167Y659741D01*
X77284Y659602D01*
X77397Y659461D01*
X77506Y659317D01*
X77613Y659170D01*
X77715Y659021D01*
X77814Y658869D01*
X77909Y658715D01*
X78000Y658558D01*
X78087Y658399D01*
X78171Y658239D01*
X78250Y658076D01*
X78326Y657911D01*
X78397Y657745D01*
X78464Y657576D01*
X78528Y657407D01*
X78586Y657235D01*
X78641Y657063D01*
X78692Y656889D01*
X78738Y656713D01*
X78780Y656537D01*
X78817Y656360D01*
X78850Y656182D01*
X78879Y656003D01*
X78903Y655824D01*
X78923Y655643D01*
X78939Y655463D01*
X78950Y655282D01*
X78957Y655101D01*
X78959Y654920D01*
X78957Y654739D01*
X78950Y654558D01*
X78939Y654377D01*
X78923Y654197D01*
X78903Y654016D01*
X78879Y653837D01*
X78850Y653658D01*
X78817Y653480D01*
X78780Y653303D01*
X78738Y653127D01*
X78692Y652951D01*
X78641Y652777D01*
X78586Y652605D01*
X78528Y652433D01*
X78464Y652264D01*
X78397Y652095D01*
X78326Y651929D01*
X78250Y651764D01*
X78171Y651601D01*
X78087Y651441D01*
X78000Y651282D01*
X77909Y651125D01*
X77814Y650971D01*
X77715Y650819D01*
X77613Y650670D01*
X77506Y650523D01*
X77397Y650379D01*
X77284Y650238D01*
X77167Y650099D01*
X77047Y649963D01*
X76924Y649831D01*
X76797Y649701D01*
X76667Y649574D01*
X76535Y649451D01*
X76399Y649331D01*
X76260Y649214D01*
X76119Y649101D01*
X75975Y648992D01*
X75828Y648885D01*
X75679Y648783D01*
X75527Y648684D01*
X75373Y648589D01*
X75216Y648498D01*
X75057Y648411D01*
X74897Y648327D01*
X74734Y648248D01*
X74569Y648172D01*
X74403Y648101D01*
X74234Y648034D01*
X74065Y647970D01*
X73893Y647912D01*
X73721Y647857D01*
X73547Y647806D01*
X73371Y647760D01*
X73195Y647718D01*
X73018Y647681D01*
X72840Y647648D01*
X72661Y647619D01*
X72482Y647595D01*
X72301Y647575D01*
X72121Y647559D01*
X71940Y647548D01*
X71759Y647541D01*
X71578Y647539D01*
X71397Y647541D01*
X71216Y647548D01*
X71035Y647559D01*
X70855Y647575D01*
X70674Y647595D01*
X70495Y647619D01*
X70316Y647648D01*
X70138Y647681D01*
X69961Y647718D01*
X69785Y647760D01*
X69609Y647806D01*
X69435Y647857D01*
X69263Y647912D01*
X69091Y647970D01*
X68922Y648034D01*
X68753Y648101D01*
X68587Y648172D01*
X68422Y648248D01*
X68259Y648327D01*
X68099Y648411D01*
X67940Y648498D01*
X67783Y648589D01*
X67629Y648684D01*
X67477Y648783D01*
X67328Y648885D01*
X67181Y648992D01*
X67037Y649101D01*
X66896Y649214D01*
X66757Y649331D01*
X66621Y649451D01*
X66489Y649574D01*
X66359Y649701D01*
X66232Y649831D01*
X66109Y649963D01*
X65989Y650099D01*
X65872Y650238D01*
X65759Y650379D01*
X65650Y650523D01*
X65543Y650670D01*
X65441Y650819D01*
X65342Y650971D01*
X65247Y651125D01*
X65156Y651282D01*
X65069Y651441D01*
X64985Y651601D01*
X64906Y651764D01*
X64830Y651929D01*
X64759Y652095D01*
X64692Y652264D01*
X64628Y652433D01*
X64570Y652605D01*
X64515Y652777D01*
X64464Y652951D01*
X64418Y653127D01*
X64376Y653303D01*
X64339Y653480D01*
X64306Y653658D01*
X64277Y653837D01*
X64253Y654016D01*
X64233Y654197D01*
X64217Y654377D01*
X64206Y654558D01*
X64199Y654739D01*
X64197Y654920D01*
D15*
X394608Y503936D03*
X444608Y503936D03*
D16*
X22098Y452840D03*
X22098Y415840D03*
X22098Y630640D03*
X22098Y593640D03*
X22098Y275040D03*
X22098Y238040D03*
X22098Y97240D03*
X22098Y60240D03*
D17*
X1002847Y27122D03*
X1002847Y147522D03*
D18*
X955747Y74822D03*
X975747Y74822D03*
D19*
X955747Y99822D03*
D18*
X975747Y99822D03*
D20*
X883920Y316992D03*
X933958Y287274D03*
X270002Y606806D03*
X333502Y664718D03*
X420878Y659384D03*
X347980Y618490D03*
X330200Y572008D03*
X273558Y555752D03*
X321056Y530352D03*
X324612Y469646D03*
X231648Y547624D03*
X146050Y646938D03*
X140462Y469392D03*
X197866Y449580D03*
X148844Y438404D03*
X82804Y431546D03*
X110236Y390652D03*
X235966Y406654D03*
X195072Y359918D03*
X104140Y351790D03*
X61722Y348488D03*
X210058Y299974D03*
X229616Y264668D03*
X238760Y219710D03*
X301752Y271780D03*
X160020Y281178D03*
X161036Y235712D03*
X79756Y255778D03*
X58166Y169418D03*
X93218Y166370D03*
X156210Y159258D03*
X200914Y173482D03*
X248412Y194564D03*
X224536Y95758D03*
X153670Y102870D03*
X154940Y46990D03*
X77724Y83058D03*
X215392Y24638D03*
X215646Y66040D03*
X292862Y25400D03*
X353060Y21590D03*
X407670Y48006D03*
X442214Y24384D03*
X345440Y216916D03*
X330962Y257810D03*
X451358Y330200D03*
X438912Y301244D03*
X433832Y277876D03*
X429260Y362712D03*
X407670Y402844D03*
X442214Y419862D03*
X487934Y441706D03*
X512572Y478028D03*
X540004Y444500D03*
X348996Y431546D03*
X282956Y506984D03*
X300990Y643890D03*
X380746Y683514D03*
X382524Y642112D03*
X500380Y521208D03*
X567690Y519430D03*
X625348Y510794D03*
X663956Y445262D03*
X720598Y471170D03*
X698500Y517906D03*
X655828Y515112D03*
X591312Y519938D03*
X541782Y521462D03*
X711200Y569468D03*
X723900Y629666D03*
X655574Y637032D03*
X759968Y613664D03*
X823976Y673100D03*
X870458Y678434D03*
X836422Y624078D03*
X865632Y562864D03*
X948436Y541528D03*
X943864Y573024D03*
X959866Y522478D03*
X882396Y498094D03*
X860552Y495300D03*
X785622Y529336D03*
X947166Y430530D03*
X843280Y413512D03*
X749808Y418084D03*
X668020Y494030D03*
X643382Y448818D03*
X834898Y371348D03*
X730758Y315722D03*
X687070Y311912D03*
X614934Y308864D03*
X577850Y309118D03*
X519430Y300482D03*
X574802Y341884D03*
X590804Y375666D03*
X598424Y163068D03*
X496062Y96012D03*
X541274Y91440D03*
X581660Y93472D03*
X599948Y134874D03*
X488950Y159258D03*
X509016Y237744D03*
X557022Y236220D03*
X593090Y238252D03*
X433832Y63246D03*
X404114Y26162D03*
X316230Y115316D03*
X286258Y108712D03*
X318008Y322326D03*
X378206Y324358D03*
X256032Y398780D03*
X237744Y438404D03*
X236728Y371348D03*
X211582Y572262D03*
X223520Y601472D03*
X213360Y634492D03*
X159004Y613664D03*
X261620Y517906D03*
X291592Y581152D03*
X349250Y590296D03*
X416814Y610362D03*
X381000Y610870D03*
X323850Y610362D03*
X413004Y533146D03*
X423164Y477012D03*
X693420Y254508D03*
X731774Y295148D03*
X751840Y261112D03*
X715010Y219710D03*
X814578Y351790D03*
X811276Y166624D03*
X806704Y191008D03*
X812800Y221234D03*
X766826Y174498D03*
X765556Y128270D03*
X774192Y115062D03*
X780796Y92964D03*
X760222Y105918D03*
X827786Y76962D03*
X856234Y76962D03*
X890778Y78740D03*
X894334Y51054D03*
X865124Y47752D03*
X834898Y48006D03*
X747522Y17780D03*
X723646Y33274D03*
X693674Y39624D03*
X720852Y17780D03*
X691896Y16002D03*
X671068Y17526D03*
X651002Y22606D03*
X651002Y41910D03*
X645922Y65532D03*
X879856Y141986D03*
X865378Y165354D03*
X899922Y160274D03*
X925830Y120396D03*
X1049782Y51816D03*
X1035304Y95250D03*
X1077976Y129794D03*
X1096772Y68834D03*
X1099820Y176276D03*
X1055116Y167640D03*
X1031748Y207010D03*
X1034796Y278892D03*
X1025906Y251714D03*
X1102106Y287782D03*
X954532Y330708D03*
X1004062Y320294D03*
X1015238Y350266D03*
X994156Y360934D03*
X961644Y379730D03*
X940562Y375666D03*
X877824Y347218D03*
X996188Y549656D03*
X1075690Y671322D03*
X1085088Y385572D03*
X920242Y201168D03*
X846582Y244094D03*
X877824Y226822D03*
X934720Y238506D03*
X947674Y277114D03*
X988314Y223012D03*
X1099566Y255524D03*
X1098804Y213868D03*
X1077722Y198374D03*
X1074928Y284480D03*
X116840Y170180D03*
X18288Y154686D03*
X18034Y181356D03*
X17780Y208280D03*
X19812Y232410D03*
X19558Y54610D03*
X18288Y358394D03*
X19558Y409194D03*
X19558Y588518D03*
X1044194Y474218D03*
X1050290Y510286D03*
X1043178Y557276D03*
X1052068Y591566D03*
X984504Y620776D03*
X933958Y627634D03*
X863346Y630174D03*
X860044Y605282D03*
X924560Y535686D03*
X957580Y499364D03*
X890016Y569468D03*
X864108Y537464D03*
X739394Y581660D03*
X529844Y378968D03*
X484886Y379476D03*
X631952Y84836D03*
X160528Y685546D03*
X137668Y687578D03*
X98806Y687324D03*
X58674Y691642D03*
X29210Y687324D03*
X79756Y612902D03*
X20828Y532384D03*
X19558Y29210D03*
X249174Y18288D03*
X145796Y17780D03*
X105156Y18034D03*
X322072Y18288D03*
X380238Y19304D03*
X958850Y15240D03*
X940308Y15240D03*
X1043686Y16764D03*
X1070610Y16256D03*
X1092708Y94742D03*
X1044702Y125984D03*
X1068578Y85852D03*
X1085850Y42926D03*
X1010158Y71374D03*
X1034288Y183388D03*
X601218Y333756D03*
X1102614Y655828D03*
X1103376Y625094D03*
X1096264Y495300D03*
X1087374Y518922D03*
X197104Y679450D03*
X546862Y306578D03*
X625094Y433578D03*
X676148Y408686D03*
X615188Y408686D03*
X734060Y408686D03*
X816356Y420878D03*
X846836Y460502D03*
X868172Y457454D03*
X892556Y454406D03*
X749300Y158750D03*
X718820Y82550D03*
X718820Y61214D03*
X748030Y30226D03*
X330454Y130810D03*
X299974Y194818D03*
X321310Y213106D03*
X382270Y191770D03*
X382270Y219202D03*
X385318Y261874D03*
X398526Y163830D03*
X786892Y159004D03*
X847344Y206756D03*
X398526Y350520D03*
X400812Y116078D03*
X674370Y104902D03*
X132080Y529082D03*
X211836Y319786D03*
X366522Y236982D03*
X857250Y287274D03*
X932434Y328168D03*
X762254Y296672D03*
X514350Y207010D03*
X706628Y295910D03*
X490728Y217932D03*
X826516Y124460D03*
X922302Y441198D03*
X671576Y168402D03*
X701606Y111565D03*
X696976Y177800D03*
X715391Y129667D03*
X460756Y285242D03*
X814832Y392176D03*
X1002538Y280162D03*
X950722Y607348D03*
X298450Y150622D03*
X295402Y351536D03*
X211582Y131318D03*
M02*
