0
SECTION
2
HEADER
9
$INSUNITS
70
4
9
$ACADVER
1
AC1014
9
$HANDSEED
5
FFFF
0
ENDSEC
0
SECTION
2
TABLES
0
TABLE
2
VPORT
5
8
100
AcDbSymbolTable
0
ENDTAB
0
TABLE
2
LTYPE
5
5
100
AcDbSymbolTable
0
LTYPE
5
14
100
AcDbSymbolTableRecord
100
AcDbLinetypeTableRecord
2
BYBLOCK
70
0
0
LTYPE
5
15
100
AcDbSymbolTableRecord
100
AcDbLinetypeTableRecord
2
BYLAYER
70
0
0
ENDTAB
0
TABLE
2
LAYER
5
2
100
AcDbSymbolTable
70
2
0
LAYER
5
50
100
AcDbSymbolTableRecord
100
AcDbLayerTableRecord
2
0
70
0
6
CONTINUOUS
0
ENDTAB
0
TABLE
2
STYLE
5
3
100
AcDbSymbolTable
70
1
0
STYLE
5
11
100
AcDbSymbolTableRecord
100
AcDbTextStyleTableRecord
2
STANDARD
70
0
0
ENDTAB
0
TABLE
2
VIEW
5
6
100
AcDbSymbolTable
70
0
0
ENDTAB
0
TABLE
2
UCS
5
7
100
AcDbSymbolTable
70
0
0
ENDTAB
0
TABLE
2
APPID
5
9
100
AcDbSymbolTable
70
2
0
APPID
5
12
100
AcDbSymbolTableRecord
100
AcDbRegAppTableRecord
2
ACAD
70
0
0
ENDTAB
0
TABLE
2
DIMSTYLE
5
A
100
AcDbSymbolTable
70
1
0
ENDTAB
0
TABLE
2
BLOCK_RECORD
5
1
100
AcDbSymbolTable
70
1
0
BLOCK_RECORD
5
1F
100
AcDbSymbolTableRecord
100
AcDbBlockTableRecord
2
*MODEL_SPACE
0
BLOCK_RECORD
5
1B
100
AcDbSymbolTableRecord
100
AcDbBlockTableRecord
2
*PAPER_SPACE
0
ENDTAB
0
ENDSEC
0
SECTION
2
BLOCKS
0
BLOCK
5
20
100
AcDbEntity
100
AcDbBlockBegin
2
*MODEL_SPACE
0
ENDBLK
5
21
100
AcDbEntity
100
AcDbBlockEnd
0
BLOCK
5
1C
100
AcDbEntity
100
AcDbBlockBegin
2
*PAPER_SPACE
0
ENDBLK
5
1D
100
AcDbEntity
100
AcDbBlockEnd
0
ENDSEC
0
SECTION
2
ENTITIES
0
LWPOLYLINE
5
100
100
AcDbEntity
8
0
100
AcDbPolyline
90
28
70
1
43
0.0
10
99.5625
20
6.0000000000000009
10
99.5625
20
3.0000000000000004
10
126.00000000000001
20
3.0000000000000004
10
126.00000000000001
20
18.8125
10
123
20
18.8125
10
123
20
43.187500000000007
10
126.00000000000001
20
43.187500000000007
10
126.00000000000001
20
59
10
99.5625
20
59
10
99.5625
20
56.000000000000007
10
75.1875
20
56.000000000000007
10
75.1875
20
59
10
50.812500000000007
20
59
10
50.812500000000007
20
56.000000000000007
10
26.437500000000004
20
56.000000000000007
10
26.437500000000004
20
59
10
0
20
59
10
0
20
43.187500000000007
10
3.0000000000000004
20
43.187500000000007
10
3.0000000000000004
20
18.8125
10
0
20
18.8125
10
0
20
3.0000000000000004
10
26.437500000000004
20
3.0000000000000004
10
26.437500000000004
20
6.0000000000000009
10
50.812500000000007
20
6.0000000000000009
10
50.812500000000007
20
3.0000000000000004
10
75.1875
20
3.0000000000000004
10
75.1875
20
6.0000000000000009
0
ARC
5
101
100
AcDbEntity
8
0
100
AcDbCircle
10
69.122491600000004
20
31.013748300000003
30
0
40
1.0799220999999972
210
0
220
-0
230
1
100
AcDbArc
50
22.702454099999958
51
42.341963799999533
0
ARC
5
102
100
AcDbEntity
8
0
100
AcDbCircle
10
75.186170200000007
20
28.283547000000002
30
0
40
1.5791633999999992
210
0
220
0
230
1
100
AcDbArc
50
283.30697029999999
51
288.11986750000005
0
LINE
5
103
100
AcDbEntity
8
0
100
AcDbLine
10
51.288671800000003
20
26.770040399999999
30
0
11
51.288671800000003
21
32.0583217
31
0
0
ARC
5
104
100
AcDbEntity
8
0
100
AcDbCircle
10
61.602029099999996
20
29.192224699999997
30
0
40
1.9488010000000033
210
0
220
0
230
1
100
AcDbArc
50
323.00893860000014
51
342.63905000000011
0
ARC
5
105
100
AcDbEntity
8
0
100
AcDbCircle
10
58.4793436
20
29.989909100000002
30
0
40
2.7555187999999955
210
0
220
0
230
1
100
AcDbArc
50
173.69076500000006
51
180.0882393999965
0
ARC
5
106
100
AcDbEntity
8
0
100
AcDbCircle
10
68.856669799999992
20
29.3546099
30
0
40
2.7475310000000026
210
0
220
-0
230
1
100
AcDbArc
50
89.593309899999866
51
100.37178799999984
0
ARC
5
107
100
AcDbEntity
8
0
100
AcDbCircle
10
57.483505900000011
20
29.9181761
30
0
40
2.1292083000000015
210
0
220
-0
230
1
100
AcDbArc
50
87.343718700000096
51
89.966102400000111
0
LINE
5
108
100
AcDbEntity
8
0
100
AcDbLine
10
53.7222656
20
32.0583217
30
0
11
52.196484300000002
21
32.0583217
31
0
0
LINE
5
109
100
AcDbEntity
8
0
100
AcDbLine
10
70.254296800000006
20
26.770040399999999
30
0
11
70.254296800000006
21
30.647384200000005
31
0
0
ARC
5
110
100
AcDbEntity
8
0
100
AcDbCircle
10
57.804174200000006
20
30.095552600000005
30
0
40
2.0730580000000027
210
0
220
0
230
1
100
AcDbArc
50
138.95757260000005
51
174.54222660000002
0
ARC
5
111
100
AcDbEntity
8
0
100
AcDbCircle
10
52.998409400000014
20
30.982458299999998
30
0
40
4.3717953000000005
210
0
220
-0
230
1
100
AcDbArc
50
75.973980099999991
51
81.656497200000004
0
LINE
5
112
100
AcDbEntity
8
0
100
AcDbLine
10
67.060546799999997
20
29.914571700000003
30
0
11
67.060546799999997
21
26.770040399999999
31
0
0
ARC
5
113
100
AcDbEntity
8
0
100
AcDbCircle
10
68.882517100000001
20
29.695407300000003
30
0
40
2.4066726999999992
210
0
220
-0
230
1
100
AcDbArc
50
84.019811399999867
51
90.151061599999977
0
ARC
5
114
100
AcDbEntity
8
0
100
AcDbCircle
10
63.057997300000004
20
30.014173700000001
30
0
40
3.0491049999999968
210
0
220
0
230
1
100
AcDbArc
50
162.06531229999996
51
173.16748830000003
0
ARC
5
115
100
AcDbEntity
8
0
100
AcDbCircle
10
58.838846300000007
20
29.755573900000005
30
0
40
4.7818863999999976
210
0
220
0
230
1
100
AcDbArc
50
-6.463710500000059
51
0.20141859999955547
0
LINE
5
116
100
AcDbEntity
8
0
100
AcDbLine
10
74.000390600000003
20
34.152852899999999
30
0
11
74.000390600000003
21
32.763790400000005
31
0
0
ARC
5
117
100
AcDbEntity
8
0
100
AcDbCircle
10
61.637869600000002
20
28.924056700000001
30
0
40
1.4879037999999998
210
0
220
0
230
1
100
AcDbArc
50
217.3009709000001
51
261.70990870000008
0
ARC
5
118
100
AcDbEntity
8
0
100
AcDbCircle
10
68.466832499999995
20
30.757029100000004
30
0
40
1.2799188999999986
210
0
220
0
230
1
100
AcDbArc
50
118.54392059999972
51
139.19269589999971
0
ARC
5
119
100
AcDbEntity
8
0
100
AcDbCircle
10
61.761923299999999
20
29.575830199999995
30
0
40
2.9152425000000006
210
0
220
0
230
1
100
AcDbArc
50
253.54369300000005
51
270.41823410000001
0
ARC
5
120
100
AcDbEntity
8
0
100
AcDbCircle
10
69.493505599999992
20
31.166426399999999
30
0
40
1.6313347000000031
210
0
220
-0
230
1
100
AcDbArc
50
46.558456799999959
51
64.878260199999758
0
ARC
5
121
100
AcDbEntity
8
0
100
AcDbCircle
10
64.591998399999994
20
29.7487922
30
0
40
4.5971370000000036
210
0
220
0
230
1
100
AcDbArc
50
179.70596300000003
51
187.91609209999999
0
ARC
5
122
100
AcDbEntity
8
0
100
AcDbCircle
10
63.76776550000001
20
29.804310100000002
30
0
40
4.7135768000000038
210
0
220
0
230
1
100
AcDbArc
50
169.24429799999999
51
180.3880776
0
ARC
5
123
100
AcDbEntity
8
0
100
AcDbCircle
10
61.774556099999998
20
29.941664000000006
30
0
40
2.1604964
210
0
220
-0
230
1
100
AcDbArc
50
89.480617100000146
51
103.88047119999983
0
ARC
5
124
100
AcDbEntity
8
0
100
AcDbCircle
10
74.888116600000004
20
28.2595849
30
0
40
0.84333609999999715
210
0
220
0
230
1
100
AcDbArc
50
221.59491999999992
51
262.35053020000055
0
ARC
5
125
100
AcDbEntity
8
0
100
AcDbCircle
10
75.945881499999999
20
28.460579200000002
30
0
40
2.8534842999999976
210
0
220
0
230
1
100
AcDbArc
50
179.35509200000064
51
192.84778689999999
0
ARC
5
126
100
AcDbEntity
8
0
100
AcDbCircle
10
68.635373700000002
20
30.959942399999999
30
0
40
1.8382060999999985
210
0
220
0
230
1
100
AcDbArc
50
116.94429889999975
51
147.65257249999999
0
ARC
5
127
100
AcDbEntity
8
0
100
AcDbCircle
10
61.795330600000007
20
29.675432800000003
30
0
40
2.2546321999999988
210
0
220
0
230
1
100
AcDbArc
50
260.50327509999977
51
270.24770899999993
0
ARC
5
128
100
AcDbEntity
8
0
100
AcDbCircle
10
53.203233200000007
20
32.580285499999995
30
0
40
2.759332000000001
210
0
220
-0
230
1
100
AcDbArc
50
89.66969089999985
51
99.931439799999907
0
ARC
5
129
100
AcDbEntity
8
0
100
AcDbCircle
10
61.851789199999999
20
29.822833800000002
30
0
40
3.0504822000000016
210
0
220
-0
230
1
100
AcDbArc
50
73.522272099999867
51
90.569211999999965
0
ARC
5
130
100
AcDbEntity
8
0
100
AcDbCircle
10
61.593018400000005
20
30.632964099999999
30
0
40
1.4458705000000021
210
0
220
0
230
1
100
AcDbArc
50
103.46852129999999
51
142.31189569999987
0
LINE
5
131
100
AcDbEntity
8
0
100
AcDbLine
10
55.723828100000006
20
29.985665400000002
30
0
11
55.723828100000006
21
26.770040399999999
31
0
0
LINE
5
132
100
AcDbEntity
8
0
100
AcDbLine
10
50.216796799999997
20
32.0583217
30
0
11
50.216796799999997
21
32.468477899999996
31
0
0
LINE
5
133
100
AcDbEntity
8
0
100
AcDbLine
10
73.092578099999997
20
32.873165399999998
30
0
11
73.475390599999997
21
34.152852899999999
31
0
0
ARC
5
134
100
AcDbEntity
8
0
100
AcDbCircle
10
61.450961600000014
20
29.426045000000002
30
0
40
3.0794838000000029
210
0
220
0
230
1
100
AcDbArc
50
330.25070460000006
51
349.41164209999999
0
ARC
5
135
100
AcDbEntity
8
0
100
AcDbCircle
10
59.091156400000003
20
29.795501699999999
30
0
40
4.5296056999999994
210
0
220
0
230
1
100
AcDbArc
50
-0.29241929999908256
51
7.8972762999999588
0
ARC
5
136
100
AcDbEntity
8
0
100
AcDbCircle
10
69.514459200000005
20
31.2268367
30
0
40
1.573284399999999
210
0
220
-0
230
1
100
AcDbArc
50
19.384903099999839
51
45.599707700000025
0
LINE
5
137
100
AcDbEntity
8
0
100
AcDbLine
10
75.739453099999992
20
32.0583217
30
0
11
74.000390600000003
21
32.0583217
31
0
0
ARC
5
138
100
AcDbEntity
8
0
100
AcDbCircle
10
53.081372000000002
20
33.790178300000008
30
0
40
0.78623660000000251
210
0
220
0
230
1
100
AcDbArc
50
102.76774840000036
51
144.33800620000082
0
ARC
5
139
100
AcDbEntity
8
0
100
AcDbCircle
10
61.936825100000014
20
29.173511199999997
30
0
40
2.5324402000000052
210
0
220
0
230
1
100
AcDbArc
50
318.14397049999997
51
329.75663819999988
0
ARC
5
140
100
AcDbEntity
8
0
100
AcDbCircle
10
74.958630499999998
20
29.2327002
30
0
40
2.5552065999999991
210
0
220
0
230
1
100
AcDbArc
50
280.00710020000014
51
283.3734687000001
0
ARC
5
141
100
AcDbEntity
8
0
100
AcDbCircle
10
74.662856999999988
20
32.297100999999998
30
0
40
4.9115922000000012
210
0
220
0
230
1
100
AcDbArc
50
278.95907840000007
51
280.51030420000001
0
LINE
5
142
100
AcDbEntity
8
0
100
AcDbLine
10
67.060546799999997
20
26.770040399999999
30
0
11
66.152734300000006
21
26.770040399999999
31
0
0
LINE
5
143
100
AcDbEntity
8
0
100
AcDbLine
10
66.891015600000003
20
32.763790400000005
30
0
11
67.038671800000003
21
31.943477900000001
31
0
0
ARC
5
144
100
AcDbEntity
8
0
100
AcDbCircle
10
61.981116900000004
20
30.590163
30
0
40
1.4933801999999983
210
0
220
-0
230
1
100
AcDbArc
50
37.957780400000068
51
80.400607200000138
0
LINE
5
145
100
AcDbEntity
8
0
100
AcDbLine
10
52.196484300000002
20
32.763790400000005
30
0
11
53.7222656
21
32.763790400000005
31
0
0
ARC
5
146
100
AcDbEntity
8
0
100
AcDbCircle
10
57.559708500000006
20
28.705557200000001
30
0
40
4.1676186999999993
210
0
220
-0
230
1
100
AcDbArc
50
84.99228220000002
51
90.128100599999968
0
ARC
5
147
100
AcDbEntity
8
0
100
AcDbCircle
10
59.233154600000006
20
29.773130200000001
30
0
40
5.3281736000000031
210
0
220
0
230
1
100
AcDbArc
50
-0.008021799987399103
51
1.5419796999998376
0
ARC
5
148
100
AcDbEntity
8
0
100
AcDbCircle
10
53.076544700000014
20
31.680023300000002
30
0
40
2.9177179000000004
210
0
220
-0
230
1
100
AcDbArc
50
76.51831030000011
51
83.021718500000034
0
ARC
5
149
100
AcDbEntity
8
0
100
AcDbCircle
10
67.688183599999988
20
30.662099800000004
30
0
40
2.566155499999998
210
0
220
0
230
1
100
AcDbArc
50
-0.32856340000001399
51
8.6877560999999535
0
ARC
5
150
100
AcDbEntity
8
0
100
AcDbCircle
10
74.712971400000015
20
30.590309300000001
30
0
40
3.9348118999999979
210
0
220
0
230
1
100
AcDbArc
50
275.52608479999992
51
279.29388249999988
0
LINE
5
151
100
AcDbEntity
8
0
100
AcDbLine
10
71.162109299999997
20
30.6801967
30
0
11
71.162109299999997
21
26.770040399999999
31
0
0
ARC
5
152
100
AcDbEntity
8
0
100
AcDbCircle
10
57.271326699999996
20
28.060061400000002
30
0
40
4.0009575000000002
210
0
220
-0
230
1
100
AcDbArc
50
77.445381200000099
51
81.636051699999996
0
ARC
5
153
100
AcDbEntity
8
0
100
AcDbCircle
10
57.834183100000004
20
30.619840800000002
30
0
40
2.3418227999999983
210
0
220
0
230
1
100
AcDbArc
50
124.23214960000007
51
139.41612099999989
0
LINE
5
154
100
AcDbEntity
8
0
100
AcDbLine
10
50.216796799999997
20
32.468477899999996
30
0
11
51.288671800000003
21
32.796602899999996
31
0
0
ARC
5
155
100
AcDbEntity
8
0
100
AcDbCircle
10
60.750039700000009
20
30.0333197
30
0
40
2.8537899999999992
210
0
220
-0
230
1
100
AcDbArc
50
7.7439639999999503
51
20.069043099999966
0
ARC
5
156
100
AcDbEntity
8
0
100
AcDbCircle
10
75.2613743
20
29.343658900000001
30
0
40
1.8976099999999989
210
0
220
0
230
1
100
AcDbArc
50
282.5876969000002
51
285.5794944000001
0
ARC
5
157
100
AcDbEntity
8
0
100
AcDbCircle
10
74.958838999999998
20
28.6232544
30
0
40
1.2133770999999998
210
0
220
0
230
1
100
AcDbArc
50
261.32654240000011
51
270.19131500000043
0
ARC
5
158
100
AcDbEntity
8
0
100
AcDbCircle
10
57.474705000000014
20
30.474446000000004
30
0
40
1.5729703999999991
210
0
220
-0
230
1
100
AcDbArc
50
89.633539600000219
51
137.0880791000001
0
ARC
5
159
100
AcDbEntity
8
0
100
AcDbCircle
10
69.176809900000009
20
31.038184000000001
30
0
40
1.0234822999999957
210
0
220
-0
230
1
100
AcDbArc
50
43.379066200000388
51
71.538652799999923
0
ARC
5
160
100
AcDbEntity
8
0
100
AcDbCircle
10
74.514098799999999
20
28.073449199999999
30
0
40
1.3727357999999981
210
0
220
0
230
1
100
AcDbArc
50
190.38177920000001
51
253.87722940000009
0
ARC
5
161
100
AcDbEntity
8
0
100
AcDbCircle
10
57.659791700000007
20
29.826884400000001
30
0
40
3.0418359000000006
210
0
220
-0
230
1
100
AcDbArc
50
78.489223700000011
51
85.026575599999887
0
LINE
5
162
100
AcDbEntity
8
0
100
AcDbLine
10
72.233984300000003
20
32.0583217
30
0
11
72.233984300000003
21
32.4958217
31
0
0
ARC
5
163
100
AcDbEntity
8
0
100
AcDbCircle
10
61.806826500000007
20
29.812489600000003
30
0
40
2.2896172000000021
210
0
220
-0
230
1
100
AcDbArc
50
79.345367000000053
51
90.317455100000046
0
ARC
5
164
100
AcDbEntity
8
0
100
AcDbCircle
10
53.203923100000011
20
32.416256400000009
30
0
40
2.923354900000001
210
0
220
-0
230
1
100
AcDbArc
50
81.564061900000084
51
89.701746900000018
0
ARC
5
165
100
AcDbEntity
8
0
100
AcDbCircle
10
69.231670200000011
20
30.586469399999995
30
0
40
2.2676112000000006
210
0
220
-0
230
1
100
AcDbArc
50
65.10942569999979
51
80.763813199999959
0
ARC
5
166
100
AcDbEntity
8
0
100
AcDbCircle
10
61.992312399999996
20
28.9102636
30
0
40
1.4674484999999993
210
0
220
0
230
1
100
AcDbArc
50
284.56625240000017
51
322.63336389999989
0
LINE
5
167
100
AcDbEntity
8
0
100
AcDbLine
10
52.196484300000002
20
26.770040399999999
30
0
11
51.288671800000003
21
26.770040399999999
31
0
0
LINE
5
168
100
AcDbEntity
8
0
100
AcDbLine
10
66.152734300000006
20
26.770040399999999
30
0
11
66.152734300000006
21
32.763790400000005
31
0
0
ARC
5
169
100
AcDbEntity
8
0
100
AcDbCircle
10
63.595701300000002
20
29.754509300000002
30
0
40
4.5414396000000012
210
0
220
0
230
1
100
AcDbArc
50
179.7744866000001
51
189.09326009999992
0
ARC
5
170
100
AcDbEntity
8
0
100
AcDbCircle
10
74.997457499999996
20
30.159562500000003
30
0
40
2.748026100000001
210
0
220
0
230
1
100
AcDbArc
50
278.41571190000008
51
279.00825130000015
0
ARC
5
171
100
AcDbEntity
8
0
100
AcDbCircle
10
61.656080099999997
20
30.383122
30
0
40
2.5080255000000022
210
0
220
0
230
1
100
AcDbArc
50
138.17594409999992
51
150.2287426
0
ARC
5
172
100
AcDbEntity
8
0
100
AcDbCircle
10
64.791983799999997
20
29.793012700000002
30
0
40
4.7971064000000023
210
0
220
0
230
1
100
AcDbArc
50
173.00860590000002
51
180.24638399999975
0
ARC
5
173
100
AcDbEntity
8
0
100
AcDbCircle
10
62.083084299999996
20
29.412759200000004
30
0
40
2.9839105999999966
210
0
220
0
230
1
100
AcDbArc
50
205.65605880000004
51
208.44604469999999
0
LINE
5
174
100
AcDbEntity
8
0
100
AcDbLine
10
75.783203099999994
20
27.5192592
30
0
11
75.783203099999994
21
26.824727900000003
31
0
0
ARC
5
175
100
AcDbEntity
8
0
100
AcDbCircle
10
61.798565600000003
20
30.185765399999998
30
0
40
3.5251336000000015
210
0
220
0
230
1
100
AcDbArc
50
269.75030399999997
51
279.80333849999994
0
LINE
5
176
100
AcDbEntity
8
0
100
AcDbLine
10
74.000390600000003
20
32.0583217
30
0
11
74.000390600000003
21
28.530977899999996
31
0
0
ARC
5
177
100
AcDbEntity
8
0
100
AcDbCircle
10
55.309618900000004
20
33.203823900000003
30
0
40
3.1121694999999967
210
0
220
0
230
1
100
AcDbArc
50
171.65272769999996
51
178.43840880000002
0
LINE
5
178
100
AcDbEntity
8
0
100
AcDbLine
10
73.092578099999997
20
32.0583217
30
0
11
72.233984300000003
21
32.0583217
31
0
0
LINE
5
179
100
AcDbEntity
8
0
100
AcDbLine
10
51.288671800000003
20
32.796602899999996
30
0
11
51.288671800000003
21
33.130196699999999
31
0
0
LINE
5
180
100
AcDbEntity
8
0
100
AcDbLine
10
54.334765599999997
20
35.148165399999996
30
0
11
54.099609300000004
21
34.420821699999998
31
0
0
LINE
5
181
100
AcDbEntity
8
0
100
AcDbLine
10
73.475390599999997
20
34.152852899999999
30
0
11
74.000390600000003
21
34.152852899999999
31
0
0
ARC
5
182
100
AcDbEntity
8
0
100
AcDbCircle
10
75.401530600000001
20
27.631987200000001
30
0
40
0.89293970000000222
210
0
220
0
230
1
100
AcDbArc
50
287.98889120000024
51
295.30480360000013
0
LINE
5
183
100
AcDbEntity
8
0
100
AcDbLine
10
51.288671800000003
20
32.0583217
30
0
11
50.216796799999997
21
32.0583217
31
0
0
ARC
5
184
100
AcDbEntity
8
0
100
AcDbCircle
10
53.195668500000011
20
32.637995099999998
30
0
40
1.9523705999999996
210
0
220
-0
230
1
100
AcDbArc
50
83.076140299999992
51
89.792641200000006
0
LINE
5
185
100
AcDbEntity
8
0
100
AcDbLine
10
52.196484300000002
20
32.0583217
30
0
11
52.196484300000002
21
26.770040399999999
31
0
0
LINE
5
186
100
AcDbEntity
8
0
100
AcDbLine
10
73.092578099999997
20
28.4926967
30
0
11
73.092578099999997
21
32.0583217
31
0
0
ARC
5
187
100
AcDbEntity
8
0
100
AcDbCircle
10
61.825386600000002
20
29.529342400000004
30
0
40
2.1086185000000022
210
0
220
0
230
1
100
AcDbArc
50
269.4481638000002
51
284.72554709999997
0
ARC
5
188
100
AcDbEntity
8
0
100
AcDbCircle
10
61.945936800000005
20
30.384765399999999
30
0
40
1.8769916999999965
210
0
220
0
230
1
100
AcDbArc
50
142.90254159999995
51
162.37497070000009
0
ARC
5
189
100
AcDbEntity
8
0
100
AcDbCircle
10
68.639262400000007
20
30.812934800000001
30
0
40
1.6032150000000012
210
0
220
-0
230
1
100
AcDbArc
50
8.4931872000000155
51
22.657945700000028
0
ARC
5
190
100
AcDbEntity
8
0
100
AcDbCircle
10
61.664879200000009
20
29.200441900000001
30
0
40
2.5277755000000002
210
0
220
0
230
1
100
AcDbArc
50
238.81155419999993
51
253.2428444999999
0
ARC
5
191
100
AcDbEntity
8
0
100
AcDbCircle
10
52.645728399999996
20
29.519621500000003
30
0
40
5.8765084000000005
210
0
220
-0
230
1
100
AcDbArc
50
73.296329500000013
51
76.094594800000039
0
ARC
5
192
100
AcDbEntity
8
0
100
AcDbCircle
10
68.973693500000024
20
30.470627100000005
30
0
40
1.6262027000000014
210
0
220
-0
230
1
100
AcDbArc
50
71.082798800000361
51
84.369123300000552
0
ARC
5
193
100
AcDbEntity
8
0
100
AcDbCircle
10
61.674418899999999
20
30.372534699999999
30
0
40
1.8691374000000005
210
0
220
-0
230
1
100
AcDbArc
50
20.025668899999978
51
37.435072500000032
0
LINE
5
194
100
AcDbEntity
8
0
100
AcDbLine
10
55.723828100000006
20
26.770040399999999
30
0
11
54.8160156
21
26.770040399999999
31
0
0
ARC
5
195
100
AcDbEntity
8
0
100
AcDbCircle
10
59.872211600000007
20
29.740770699999999
30
0
40
4.6892230000000037
210
0
220
0
230
1
100
AcDbArc
50
-10.823797399999956
51
0.38627559999983557
0
LINE
5
196
100
AcDbEntity
8
0
100
AcDbLine
10
55.5652343
20
32.763790400000005
30
0
11
55.669140600000006
21
31.653634200000003
31
0
0
ARC
5
197
100
AcDbEntity
8
0
100
AcDbCircle
10
74.818283200000025
20
29.4903531
30
0
40
2.8298265999999996
210
0
220
0
230
1
100
AcDbArc
50
270.89325659999969
51
275.54840209999986
0
ARC
5
198
100
AcDbEntity
8
0
100
AcDbCircle
10
62.167065700000002
20
30.120711199999999
30
0
40
3.0819748000000042
210
0
220
0
230
1
100
AcDbArc
50
150.71112979999992
51
169.46956170000007
0
ARC
5
199
100
AcDbEntity
8
0
100
AcDbCircle
10
57.860720200000003
20
30.040359100000003
30
0
40
2.1519520000000023
210
0
220
0
230
1
100
AcDbArc
50
135.62092390000001
51
138.83778440000003
0
ARC
5
200
100
AcDbEntity
8
0
100
AcDbCircle
10
53.237596700000012
20
33.575856700000003
30
0
40
1.9030269
210
0
220
0
230
1
100
AcDbArc
50
141.74338610000001
51
168.23219489999988
0
LINE
5
201
100
AcDbEntity
8
0
100
AcDbLine
10
52.196484300000002
20
33.1520717
30
0
11
52.196484300000002
21
32.763790400000005
31
0
0
LINE
5
202
100
AcDbEntity
8
0
100
AcDbLine
10
71.162109299999997
20
26.770040399999999
30
0
11
70.254296800000006
21
26.770040399999999
31
0
0
ARC
5
203
100
AcDbEntity
8
0
100
AcDbCircle
10
75.183053799999996
20
28.404441700000007
30
0
40
1.1725346999999984
210
0
220
0
230
1
100
AcDbArc
50
189.54794949999999
51
205.78740580000027
0
ARC
5
204
100
AcDbEntity
8
0
100
AcDbCircle
10
74.795007499999997
20
29.031455400000002
30
0
40
2.3710728999999979
210
0
220
0
230
1
100
AcDbArc
50
253.78479329999996
51
270.88525500000009
0
ARC
5
205
100
AcDbEntity
8
0
100
AcDbCircle
10
57.44563620000001
20
29.2615689
30
0
40
2.7868750000000029
210
0
220
-0
230
1
100
AcDbArc
50
81.588430899999992
51
87.191601600000126
0
ARC
5
206
100
AcDbEntity
8
0
100
AcDbCircle
10
60.369853000000013
20
29.834038
30
0
40
4.1903574000000008
210
0
220
-0
230
1
100
AcDbArc
50
1.1277054000000166
51
13.880020200000027
0
ARC
5
207
100
AcDbEntity
8
0
100
AcDbCircle
10
69.0076818
20
29.289043800000005
30
0
40
3.5841900000000004
210
0
220
-0
230
1
100
AcDbArc
50
80.558530499999975
51
90.353844799999891
0
ARC
5
208
100
AcDbEntity
8
0
100
AcDbCircle
10
53.191748899999993
20
33.366124600000006
30
0
40
1.2242775999999993
210
0
220
-0
230
1
100
AcDbArc
50
89.485876100000212
51
103.41977290000011
0
ARC
5
209
100
AcDbEntity
8
0
100
AcDbCircle
10
54.967715400000003
20
33.172493800000005
30
0
40
3.6792867000000022
210
0
220
0
230
1
100
AcDbArc
50
167.57759959999996
51
180.65868720000014
0
ARC
5
210
100
AcDbEntity
8
0
100
AcDbCircle
10
60.485725200000005
20
29.557064000000004
30
0
40
3.1231517000000046
210
0
220
0
230
1
100
AcDbArc
50
342.36158629999994
51
353.75373009999998
0
ARC
5
211
100
AcDbEntity
8
0
100
AcDbCircle
10
69.667737400000007
20
30.256642500000002
30
0
40
2.5842056999999992
210
0
220
0
230
1
100
AcDbArc
50
159.95346540000008
51
171.3800809
0
ARC
5
212
100
AcDbEntity
8
0
100
AcDbCircle
10
62.42911800000001
20
29.556929800000002
30
0
40
3.3583087000000007
210
0
220
0
230
1
100
AcDbArc
50
188.9102414999999
51
205.31714589999999
0
LINE
5
213
100
AcDbEntity
8
0
100
AcDbLine
10
55.669140600000006
20
31.653634200000003
30
0
11
55.712890599999994
21
31.653634200000003
31
0
0
ARC
5
214
100
AcDbEntity
8
0
100
AcDbCircle
10
58.383873200000018
20
30.148814700000003
30
0
40
3.0657185000000005
210
0
220
0
230
1
100
AcDbArc
50
139.41395180000006
51
150.60328710000007
0
LINE
5
215
100
AcDbEntity
8
0
100
AcDbLine
10
54.8160156
20
26.770040399999999
30
0
11
54.8160156
21
32.763790400000005
31
0
0
ARC
5
216
100
AcDbEntity
8
0
100
AcDbCircle
10
56.4827716
20
33.153804999999998
30
0
40
4.2862874999999976
210
0
220
0
230
1
100
AcDbArc
50
178.19739440000012
51
180.02316909998865
0
ARC
5
217
100
AcDbEntity
8
0
100
AcDbCircle
10
52.734536200000015
20
30.229184799999999
30
0
40
4.4083154000000038
210
0
220
-0
230
1
100
AcDbArc
50
71.961337499999971
51
76.591827500000008
0
ARC
5
218
100
AcDbEntity
8
0
100
AcDbCircle
10
62.905917000000002
20
29.506588000000001
30
0
40
2.8937758999999961
210
0
220
0
230
1
100
AcDbArc
50
187.76394239999999
51
200.09770089999998
0
ARC
5
219
100
AcDbEntity
8
0
100
AcDbCircle
10
74.806415299999998
20
30.058774499999998
30
0
40
3.3951694999999988
210
0
220
0
230
1
100
AcDbArc
50
279.18629769999984
51
280.11430089999993
0
ARC
5
220
100
AcDbEntity
8
0
100
AcDbCircle
10
68.637444599999995
20
30.642545600000002
30
0
40
1.4840819999999997
210
0
220
0
230
1
100
AcDbArc
50
140.15189370000016
51
160.31466860000003
0
ARC
5
221
100
AcDbEntity
8
0
100
AcDbCircle
10
75.400671000000003
20
28.831224900000002
30
0
40
1.3665962000000029
210
0
220
0
230
1
100
AcDbArc
50
285.72406570000004
51
286.25519200000014
0
ARC
5
222
100
AcDbEntity
8
0
100
AcDbCircle
10
61.805032400000002
20
29.347339699999999
30
0
40
3.5258641000000015
210
0
220
-0
230
1
100
AcDbArc
50
89.73265259999998
51
100.07596340000001
0
ARC
5
223
100
AcDbEntity
8
0
100
AcDbCircle
10
57.540272399999992
20
31.063497700000006
30
0
40
1.8096958999999992
210
0
220
-0
230
1
100
AcDbArc
50
89.679652100000126
51
124.4405711000001
0
ARC
5
224
100
AcDbEntity
8
0
100
AcDbCircle
10
62.030682400000003
20
30.472800100000001
30
0
40
2.3765029000000011
210
0
220
-0
230
1
100
AcDbArc
50
41.144561599999996
51
73.213378899999952
0
ARC
5
225
100
AcDbEntity
8
0
100
AcDbCircle
10
68.983359399999998
20
29.900727600000003
30
0
40
2.9724387000000001
210
0
220
-0
230
1
100
AcDbArc
50
89.957835699999961
51
94.710961499999996
0
ARC
5
226
100
AcDbEntity
8
0
100
AcDbCircle
10
72.875825199999994
20
29.916978700000001
30
0
40
5.8152789000000036
210
0
220
0
230
1
100
AcDbArc
50
178.08097179999999
51
180.02371569999087
0
ARC
5
227
100
AcDbEntity
8
0
100
AcDbCircle
10
68.826465500000012
20
30.640401399999998
30
0
40
2.2097960000000008
210
0
220
0
230
1
100
AcDbArc
50
115.80692320000027
51
117.60694600000028
0
LINE
5
228
100
AcDbEntity
8
0
100
AcDbLine
10
72.233984300000003
20
32.4958217
30
0
11
73.092578099999997
21
32.873165399999998
31
0
0
ARC
5
229
100
AcDbEntity
8
0
100
AcDbCircle
10
52.955896300000006
20
33.722884100000002
30
0
40
1.5918786999999981
210
0
220
0
230
1
100
AcDbArc
50
98.255138700000273
51
139.62035000000006
0
ARC
5
230
100
AcDbEntity
8
0
100
AcDbCircle
10
74.969116299999996
20
30.391256599999998
30
0
40
2.9813789000000024
210
0
220
0
230
1
100
AcDbArc
50
269.88035550000001
51
278.30283749999995
0
ARC
5
231
100
AcDbEntity
8
0
100
AcDbCircle
10
68.924523099999988
20
30.411853000000004
30
0
40
2.4582643999999982
210
0
220
0
230
1
100
AcDbArc
50
94.32267540000008
51
115.5454545999997
0
ARC
5
232
100
AcDbEntity
8
0
100
AcDbCircle
10
71.350717800000012
20
29.986111999999999
30
0
40
4.2887496000000009
210
0
220
0
230
1
100
AcDbArc
50
171.17659860000006
51
178.32175249999992
0
LINE
5
233
100
AcDbEntity
8
0
100
AcDbLine
10
74.000390600000003
20
32.763790400000005
30
0
11
75.739453099999992
21
32.763790400000005
31
0
0
LINE
5
234
100
AcDbEntity
8
0
100
AcDbLine
10
75.739453099999992
20
32.763790400000005
30
0
11
75.739453099999992
21
32.0583217
31
0
0
ARC
5
235
100
AcDbEntity
8
0
100
AcDbCircle
10
67.200476699999996
20
30.696573600000008
30
0
40
3.9616665999999991
210
0
220
0
230
1
100
AcDbArc
50
-0.23685199999888609
51
7.211591399999973
0
LINE
5
236
100
AcDbEntity
8
0
100
AcDbLine
10
58.266796800000009
20
32.807540400000001
30
0
11
58.141015600000003
21
31.965352899999999
31
0
0
ARC
5
237
100
AcDbEntity
8
0
100
AcDbCircle
10
74.981664400000028
20
30.586380699999999
30
0
40
3.1714201000000024
210
0
220
0
230
1
100
AcDbArc
50
280.48497499999979
51
282.62664219999976
0
ARC
5
238
100
AcDbEntity
8
0
100
AcDbCircle
10
61.571080599999995
20
30.448349500000003
30
0
40
2.4012011000000002
210
0
220
0
230
1
100
AcDbArc
50
99.175931299999874
51
137.98328010000003
0
ARC
5
239
100
AcDbEntity
8
0
100
AcDbCircle
10
53.303745999999997
20
33.647102600000011
30
0
40
1.0504076999999974
210
0
220
0
230
1
100
AcDbArc
50
145.0689364000001
51
162.18009850000001
0
LINE
5
240
100
AcDbEntity
8
0
100
AcDbLine
10
66.152734300000006
20
32.763790400000005
30
0
11
66.891015600000003
21
32.763790400000005
31
0
0
ARC
5
241
100
AcDbEntity
8
0
100
AcDbCircle
10
62.024512600000001
20
29.103238399999999
30
0
40
2.4202458999999981
210
0
220
0
230
1
100
AcDbArc
50
278.89591300000001
51
317.99791290000002
0
ARC
5
242
100
AcDbEntity
8
0
100
AcDbCircle
10
74.831527900000026
20
28.985211800000002
30
0
40
2.3245463999999987
210
0
220
0
230
1
100
AcDbArc
50
270.00277699999987
51
270.76094189999986
0
ARC
5
243
100
AcDbEntity
8
0
100
AcDbCircle
10
54.066167100000001
20
33.3905891
30
0
40
1.8547819999999966
210
0
220
0
230
1
100
AcDbArc
50
161.84381360000003
51
171.78467839999993
0
ARC
5
244
100
AcDbEntity
8
0
100
AcDbCircle
10
68.662503000000015
20
30.373336900000005
30
0
40
1.7105097999999985
210
0
220
0
230
1
100
AcDbArc
50
100.11762180000036
51
118.16026600000016
0
LINE
5
245
100
AcDbEntity
8
0
100
AcDbLine
10
54.8160156
20
32.763790400000005
30
0
11
55.5652343
21
32.763790400000005
31
0
0
ARC
5
246
100
AcDbEntity
8
0
100
AcDbCircle
10
68.604271199999999
20
30.885317699999998
30
0
40
2.5453073000000037
210
0
220
-0
230
1
100
AcDbArc
50
6.9633641000000175
51
19.836363399999971
0
ARC
5
247
100
AcDbEntity
8
0
100
AcDbCircle
10
61.977058700000008
20
29.1662526
30
0
40
1.9045311000000034
210
0
220
0
230
1
100
AcDbArc
50
200.08459959999996
51
216.9131484000001
0
LINE
5
248
100
AcDbEntity
8
0
100
AcDbLine
10
67.038671800000003
20
31.943477900000001
30
0
11
67.082421800000006
21
31.943477900000001
31
0
0
LINE
5
249
100
AcDbEntity
8
0
100
AcDbLine
10
53.7222656
20
32.763790400000005
30
0
11
53.7222656
21
32.0583217
31
0
0
ARC
5
250
100
AcDbEntity
8
0
100
AcDbCircle
10
61.633560899999999
20
29.137460799999999
30
0
40
2.4576856000000027
210
0
220
0
230
1
100
AcDbArc
50
207.79470019999988
51
238.67579829999983
0
ARC
5
251
100
AcDbEntity
8
0
100
AcDbCircle
10
75.828377200000006
20
28.519543900000002
30
0
40
1.8280223999999983
210
0
220
0
230
1
100
AcDbArc
50
179.64161950000044
51
189.75061399999993
0
ARC
5
252
100
AcDbEntity
8
0
100
AcDbCircle
10
74.917852500000009
20
28.282147399999999
30
0
40
0.88055739999999982
210
0
220
0
230
1
100
AcDbArc
50
206.12939420000001
51
221.40837429999982
0
ARC
5
253
100
AcDbEntity
8
0
100
AcDbCircle
10
61.689191799999996
20
30.179293300000005
30
0
40
2.8267815999999995
210
0
220
-0
230
1
100
AcDbArc
50
13.501426499999877
51
41.070342599999982
0
LWPOLYLINE
5
254
100
AcDbEntity
8
0
100
AcDbPolyline
90
22
70
1
43
0.0
10
214.00000000000003
20
43.187500000000007
10
211
20
43.187500000000007
10
211
20
59
10
183.68750000000003
20
59
10
183.68750000000003
20
56.000000000000007
10
159.3125
20
56.000000000000007
10
159.3125
20
59
10
134.9375
20
59
10
132
20
59
10
132
20
43.187500000000007
10
129
20
43.187500000000007
10
129
20
18.8125
10
132
20
18.8125
10
132
20
3.0000000000000004
10
159.3125
20
3.0000000000000004
10
159.3125
20
6.0000000000000009
10
183.68750000000003
20
6.0000000000000009
10
183.68750000000003
20
3.0000000000000004
10
208.06250000000003
20
3.0000000000000004
10
211
20
3.0000000000000004
10
211
20
18.8125
10
214.00000000000003
20
18.8125
0
LWPOLYLINE
5
255
100
AcDbEntity
8
0
100
AcDbPolyline
90
30
70
1
43
0.0
10
292.1875
20
88
10
292.1875
20
85
10
267.8125
20
85
10
267.8125
20
88
10
243.4375
20
88
10
243.4375
20
85
10
220
20
85
10
220
20
57.687500000000007
10
217.00000000000003
20
57.687500000000007
10
217.00000000000003
20
33.3125
10
220
20
33.3125
10
220
20
8.9375000000000036
10
220
20
6.0000000000000009
10
243.4375
20
6.0000000000000009
10
243.4375
20
3.0000000000000004
10
267.8125
20
3.0000000000000004
10
267.8125
20
6.0000000000000009
10
292.1875
20
6.0000000000000009
10
292.1875
20
3.0000000000000004
10
316.5625
20
3.0000000000000004
10
316.5625
20
6.0000000000000009
10
340
20
6.0000000000000009
10
340
20
33.3125
10
343.00000000000006
20
33.3125
10
343.00000000000006
20
57.687500000000007
10
340
20
57.687500000000007
10
340
20
82.0625
10
340
20
85
10
316.5625
20
85
10
316.5625
20
88
0
LWPOLYLINE
5
256
100
AcDbEntity
8
0
100
AcDbPolyline
90
28
70
1
43
0.0
10
50.812500000000007
20
118
10
50.812500000000007
20
115
10
26.437500000000004
20
115
10
26.437500000000004
20
118
10
0
20
118
10
0
20
102.1875
10
3.0000000000000004
20
102.1875
10
3.0000000000000004
20
77.8125
10
0
20
77.8125
10
0
20
62
10
26.437500000000004
20
62
10
26.437500000000004
20
65
10
50.812500000000007
20
65
10
50.812500000000007
20
62
10
75.1875
20
62
10
75.1875
20
65
10
99.5625
20
65
10
99.5625
20
62
10
126.00000000000001
20
62
10
126.00000000000001
20
77.8125
10
123
20
77.8125
10
123
20
102.1875
10
126.00000000000001
20
102.1875
10
126.00000000000001
20
118
10
99.5625
20
118
10
99.5625
20
115
10
75.1875
20
115
10
75.1875
20
118
0
ARC
5
257
100
AcDbEntity
8
0
100
AcDbCircle
10
86.000841600000001
20
76.777554299999991
30
0
40
19.506163400000002
210
0
220
0
230
1
100
AcDbArc
50
138.34174969999998
51
139.28771889999999
0
ARC
5
258
100
AcDbEntity
8
0
100
AcDbCircle
10
77.959400500000001
20
83.555573200000012
30
0
40
8.9886108000000071
210
0
220
0
230
1
100
AcDbArc
50
140.43312739999999
51
142.33653500000005
0
ARC
5
259
100
AcDbEntity
8
0
100
AcDbCircle
10
64.6614656
20
89.809039400000017
30
0
40
6.0494824000000023
210
0
220
0
230
1
100
AcDbArc
50
358.27390139999983
51
359.89277340000041
0
ARC
5
260
100
AcDbEntity
8
0
100
AcDbCircle
10
33.2831738
20
91.468432400000012
30
0
40
37.474345700000015
210
0
220
0
230
1
100
AcDbArc
50
356.02096100000006
51
356.05574029999997
0
ARC
5
261
100
AcDbEntity
8
0
100
AcDbCircle
10
41.203244500000011
20
90.934137400000012
30
0
40
29.536284600000002
210
0
220
0
230
1
100
AcDbArc
50
356.03292750000003
51
356.64429580000012
0
ARC
5
262
100
AcDbEntity
8
0
100
AcDbCircle
10
75.096965499999996
20
85.763428500000018
30
0
40
5.3736203000000007
210
0
220
0
230
1
100
AcDbArc
50
142.32326840000005
51
144.70764819999999
0
ARC
5
263
100
AcDbEntity
8
0
100
AcDbCircle
10
52.912922399999999
20
90.251225900000009
30
0
40
17.806710699999996
210
0
220
0
230
1
100
AcDbArc
50
356.63245210000019
51
357.49105010000005
0
ARC
5
264
100
AcDbEntity
8
0
100
AcDbCircle
10
59.954073500000007
20
89.940241999999998
30
0
40
10.758695900000003
210
0
220
0
230
1
100
AcDbArc
50
357.50413120000007
51
358.33062279999996
0
ARC
5
265
100
AcDbEntity
8
0
100
AcDbCircle
10
81.688931700000012
20
80.485515100000015
30
0
40
13.819201699999992
210
0
220
0
230
1
100
AcDbArc
50
139.27994020000006
51
140.47035610000003
0
ARC
5
266
100
AcDbEntity
8
0
100
AcDbCircle
10
66.577266600000002
20
88.025258700000023
30
0
40
2.3006696000000031
210
0
220
0
230
1
100
AcDbArc
50
221.79763320000018
51
256.80205539999992
0
ARC
5
267
100
AcDbEntity
8
0
100
AcDbCircle
10
60.160853100000004
20
86.078756300000009
30
0
40
3.2130799999999926
210
0
220
0
230
1
100
AcDbArc
50
101.35680350000018
51
117.07986270000012
0
ARC
5
268
100
AcDbEntity
8
0
100
AcDbCircle
10
59.118353500000005
20
89.778861500000019
30
0
40
2.6074651000000015
210
0
220
0
230
1
100
AcDbArc
50
-0.30666579999881216
51
8.0035473999999045
0
ARC
5
269
100
AcDbEntity
8
0
100
AcDbCircle
10
60.527990500000008
20
88.058195500000011
30
0
40
3.834115399999996
210
0
220
-0
230
1
100
AcDbArc
50
81.567989499999953
51
90.324884299999923
0
LINE
5
270
100
AcDbEntity
8
0
100
AcDbLine
10
69.814062500000006
20
94.3094368
30
0
11
70.7109375
21
94.3094368
31
0
0
ARC
5
271
100
AcDbEntity
8
0
100
AcDbCircle
10
53.200142000000014
20
88.455390299999991
30
0
40
3.4405309000000073
210
0
220
0
230
1
100
AcDbArc
50
335.83061509999976
51
350.82546859999991
0
ARC
5
272
100
AcDbEntity
8
0
100
AcDbCircle
10
54.2391778
20
89.788335900000007
30
0
40
1.3238619999999979
210
0
220
-0
230
1
100
AcDbArc
50
35.54082789999994
51
79.801130900000089
0
ARC
5
273
100
AcDbEntity
8
0
100
AcDbCircle
10
54.183064899999998
20
88.769714099999987
30
0
40
3.0790301000000015
210
0
220
0
230
1
100
AcDbArc
50
269.92261449999995
51
275.54812650000014
0
ARC
5
274
100
AcDbEntity
8
0
100
AcDbCircle
10
53.998432700000009
20
88.561996700000009
30
0
40
2.1085122000000029
210
0
220
0
230
1
100
AcDbArc
50
253.13826339999991
51
266.84828839999989
0
LINE
5
275
100
AcDbEntity
8
0
100
AcDbLine
10
74.6101563
20
85.800061799999995
30
0
11
73.510937500000011
21
85.800061799999995
31
0
0
LINE
5
276
100
AcDbEntity
8
0
100
AcDbLine
10
70.7109375
20
85.800061799999995
30
0
11
69.814062500000006
21
85.800061799999995
31
0
0
ARC
5
277
100
AcDbEntity
8
0
100
AcDbCircle
10
59.711095100000009
20
89.776174699999999
30
0
40
4.0854893000000088
210
0
220
0
230
1
100
AcDbArc
50
269.95396370000003
51
273.14906529999996
0
ARC
5
278
100
AcDbEntity
8
0
100
AcDbCircle
10
66.837836499999995
20
90.283823499999997
30
0
40
3.8002088999999959
210
0
220
0
230
1
100
AcDbArc
50
270.2658426000001
51
286.28915759999995
0
ARC
5
279
100
AcDbEntity
8
0
100
AcDbCircle
10
50.840216399999996
20
88.814820099999991
30
0
40
5.8269843000000021
210
0
220
0
230
1
100
AcDbArc
50
-0.12207080000113747
51
5.4093599999999826
0
ARC
5
280
100
AcDbEntity
8
0
100
AcDbCircle
10
33.370146200000001
20
92.226253900000032
30
0
40
18.927516900000004
210
0
220
0
230
1
100
AcDbArc
50
-1.8876627999998825
51
0.048419799997412277
0
ARC
5
281
100
AcDbEntity
8
0
100
AcDbCircle
10
60.08883440000001
20
87.438981900000016
30
0
40
2.2842186000000035
210
0
220
0
230
1
100
AcDbArc
50
179.54570730000074
51
192.69492989999989
0
ARC
5
282
100
AcDbEntity
8
0
100
AcDbCircle
10
40.989012600000009
20
91.887628500000019
30
0
40
11.300174600000005
210
0
220
0
230
1
100
AcDbArc
50
355.47124960000002
51
355.6530492
0
LINE
5
283
100
AcDbEntity
8
0
100
AcDbLine
10
61.7039063
20
88.206311799999995
30
0
11
61.7039063
21
88.74771800000002
31
0
0
ARC
5
284
100
AcDbEntity
8
0
100
AcDbCircle
10
60.551181700000001
20
89.653487800000008
30
0
40
1.4839432999999973
210
0
220
-0
230
1
100
AcDbArc
50
70.571638500000176
51
83.992879100000124
0
ARC
5
285
100
AcDbEntity
8
0
100
AcDbCircle
10
67.413554000000005
20
89.113470200000009
30
0
40
3.2356962000000022
210
0
220
0
230
1
100
AcDbArc
50
153.08751409999996
51
170.10514529999998
0
ARC
5
286
100
AcDbEntity
8
0
100
AcDbCircle
10
66.880344600000001
20
90.668980300000015
30
0
40
4.9782944000000029
210
0
220
0
230
1
100
AcDbArc
50
269.96546330000001
51
272.86431240000007
0
ARC
5
287
100
AcDbEntity
8
0
100
AcDbCircle
10
51.344554799999997
20
88.771004000000019
30
0
40
5.3227254000000022
210
0
220
0
230
1
100
AcDbArc
50
-9.3437143000001033
51
0.33801980000015769
0
ARC
5
288
100
AcDbEntity
8
0
100
AcDbCircle
10
59.319549000000009
20
87.249346200000005
30
0
40
1.492149999999999
210
0
220
0
230
1
100
AcDbArc
50
192.08278589999969
51
227.45205749999968
0
ARC
5
289
100
AcDbEntity
8
0
100
AcDbCircle
10
53.804126100000005
20
87.829645700000015
30
0
40
1.369197600000003
210
0
220
0
230
1
100
AcDbArc
50
208.55364560000044
51
217.56054260000008
0
ARC
5
290
100
AcDbEntity
8
0
100
AcDbCircle
10
38.638132399999996
20
92.049404400000014
30
0
40
13.656564300000003
210
0
220
0
230
1
100
AcDbArc
50
355.7238536000001
51
358.12587270000012
0
ARC
5
291
100
AcDbEntity
8
0
100
AcDbCircle
10
53.8398033
20
89.535256400000009
30
0
40
1.5784492999999937
210
0
220
0
230
1
100
AcDbArc
50
100.44693719999988
51
119.67006840000026
0
ARC
5
292
100
AcDbEntity
8
0
100
AcDbCircle
10
69.485517599999994
20
88.746890199999996
30
0
40
4.3965136999999963
210
0
220
0
230
1
100
AcDbArc
50
179.70413289999954
51
188.07434840000008
0
ARC
5
293
100
AcDbEntity
8
0
100
AcDbCircle
10
69.637599099999989
20
88.752797300000012
30
0
40
5.4891646999999999
210
0
220
0
230
1
100
AcDbArc
50
179.9388519000041
51
183.98149190000001
0
ARC
5
294
100
AcDbEntity
8
0
100
AcDbCircle
10
67.222064700000004
20
88.304315000000017
30
0
40
2.5822421999999943
210
0
220
0
230
1
100
AcDbArc
50
282.03441000000021
51
296.94546159999982
0
ARC
5
295
100
AcDbEntity
8
0
100
AcDbCircle
10
60.129924500000001
20
87.413585000000012
30
0
40
1.6725979000000053
210
0
220
0
230
1
100
AcDbArc
50
294.39326679999999
51
304.73713569999984
0
ARC
5
296
100
AcDbEntity
8
0
100
AcDbCircle
10
60.463960900000004
20
87.694025600000003
30
0
40
4.1856530000000056
210
0
220
0
230
1
100
AcDbArc
50
106.35688560000013
51
118.33496090000004
0
ARC
5
297
100
AcDbEntity
8
0
100
AcDbCircle
10
53.954400900000003
20
89.67100409999999
30
0
40
1.554012500000002
210
0
220
0
230
1
100
AcDbArc
50
143.33820920000039
51
161.25600620000071
0
ARC
5
298
100
AcDbEntity
8
0
100
AcDbCircle
10
54.223346200000009
20
87.774532800000017
30
0
40
1.3055526999999993
210
0
220
0
230
1
100
AcDbArc
50
286.01630470000015
51
326.84973269999978
0
ARC
5
299
100
AcDbEntity
8
0
100
AcDbCircle
10
54.163596400000003
20
88.444232700000001
30
0
40
2.7535884999999958
210
0
220
0
230
1
100
AcDbArc
50
255.77553710000001
51
270.31856300000015
0
ARC
5
300
100
AcDbEntity
8
0
100
AcDbCircle
10
59.777589000000006
20
88.778930599999995
30
0
40
3.0861201999999937
210
0
220
0
230
1
100
AcDbArc
50
272.93349939999985
51
281.41394080000015
0
ARC
5
301
100
AcDbEntity
8
0
100
AcDbCircle
10
66.914736200000007
20
89.0868708
30
0
40
2.0124101000000079
210
0
220
-0
230
1
100
AcDbArc
50
87.674887399999946
51
89.974693700000032
0
ARC
5
302
100
AcDbEntity
8
0
100
AcDbCircle
10
53.932814499999999
20
87.741167000000004
30
0
40
2.0106390999999988
210
0
220
0
230
1
100
AcDbArc
50
215.58501130000005
51
245.83618600000003
0
LINE
5
303
100
AcDbEntity
8
0
100
AcDbLine
10
51.389843800000001
20
85.800061799999995
30
0
11
51.389843800000001
21
94.3094368
31
0
0
ARC
5
304
100
AcDbEntity
8
0
100
AcDbCircle
10
66.686732700000007
20
87.941390599999991
30
0
40
1.4418419000000018
210
0
220
0
230
1
100
AcDbArc
50
216.96955320000012
51
261.31029110000014
0
ARC
5
305
100
AcDbEntity
8
0
100
AcDbCircle
10
53.5744179
20
88.204423500000004
30
0
40
2.0839472000000008
210
0
220
0
230
1
100
AcDbArc
50
326.71051670000003
51
343.66618230000017
0
ARC
5
306
100
AcDbEntity
8
0
100
AcDbCircle
10
68.148932700000003
20
89.002845700000023
30
0
40
3.0480268000000033
210
0
220
0
230
1
100
AcDbArc
50
160.1418314
51
175.13682970000019
0
LINE
5
307
100
AcDbEntity
8
0
100
AcDbLine
10
69.814062500000006
20
85.800061799999995
30
0
11
69.814062500000006
21
94.3094368
31
0
0
ARC
5
308
100
AcDbEntity
8
0
100
AcDbCircle
10
61.41806110000001
20
85.2174373
30
0
40
6.079866900000007
210
0
220
0
230
1
100
AcDbArc
50
112.21223779999993
51
115.96407250000003
0
ARC
5
309
100
AcDbEntity
8
0
100
AcDbCircle
10
60.745339000000001
20
90.181405900000001
30
0
40
0.92153429999999714
210
0
220
-0
230
1
100
AcDbArc
50
42.729543699999098
51
71.038027799999398
0
ARC
5
310
100
AcDbEntity
8
0
100
AcDbCircle
10
66.751941399999993
20
89.429608500000001
30
0
40
2.5027050999999996
210
0
220
0
230
1
100
AcDbArc
50
138.6549958999999
51
152.6853860999997
0
ARC
5
311
100
AcDbEntity
8
0
100
AcDbCircle
10
55.165963600000012
20
89.240858900000006
30
0
40
2.8395984999999992
210
0
220
0
230
1
100
AcDbArc
50
160.89264560000018
51
171.23340360000009
0
ARC
5
312
100
AcDbEntity
8
0
100
AcDbCircle
10
53.917465900000003
20
89.423727999999997
30
0
40
2.6750564000000026
210
0
220
-0
230
1
100
AcDbArc
50
16.470925500000224
51
38.407524599999945
0
ARC
5
313
100
AcDbEntity
8
0
100
AcDbCircle
10
54.088896200000008
20
88.260457500000001
30
0
40
1.8097181000000067
210
0
220
0
230
1
100
AcDbArc
50
269.3868920000001
51
285.86304200000023
0
ARC
5
314
100
AcDbEntity
8
0
100
AcDbCircle
10
67.901945699999999
20
88.515198500000011
30
0
40
2.7961059999999982
210
0
220
0
230
1
100
AcDbArc
50
187.93153329999978
51
200.38852640000025
0
LINE
5
315
100
AcDbEntity
8
0
100
AcDbLine
10
52.297656200000013
20
94.3094368
30
0
11
52.297656200000013
21
92.242249299999997
31
0
0
ARC
5
316
100
AcDbEntity
8
0
100
AcDbCircle
10
60.1698223
20
87.997641200000004
30
0
40
1.5156257999999956
210
0
220
0
230
1
100
AcDbArc
50
306.98806230000048
51
313.85604130000036
0
LINE
5
317
100
AcDbEntity
8
0
100
AcDbLine
10
52.232031300000003
20
86.571155500000003
30
0
11
52.040624999999999
21
85.800061799999995
31
0
0
ARC
5
318
100
AcDbEntity
8
0
100
AcDbCircle
10
66.911950399999995
20
88.339745899999997
30
0
40
3.5635324000000006
210
0
220
-0
230
1
100
AcDbArc
50
89.589200199999894
51
102.17875529999981
0
ARC
5
319
100
AcDbEntity
8
0
100
AcDbCircle
10
60.792633900000013
20
83.126390799999996
30
0
40
6.232163300000007
210
0
220
0
230
1
100
AcDbArc
50
92.469639999999984
51
101.70649139999998
0
ARC
5
320
100
AcDbEntity
8
0
100
AcDbCircle
10
67.045683499999996
20
88.197996400000008
30
0
40
1.8829790999999998
210
0
220
0
230
1
100
AcDbArc
50
200.41829920000023
51
216.63931200000027
0
LINE
5
321
100
AcDbEntity
8
0
100
AcDbLine
10
72.012500000000003
20
89.239905500000006
30
0
11
74.6101563
21
85.800061799999995
31
0
0
LINE
5
322
100
AcDbEntity
8
0
100
AcDbLine
10
70.7109375
20
94.3094368
30
0
11
70.7109375
21
89.797718000000003
31
0
0
ARC
5
323
100
AcDbEntity
8
0
100
AcDbCircle
10
54.028650600000006
20
88.581129400000009
30
0
40
2.5510343999999963
210
0
220
-0
230
1
100
AcDbArc
50
89.573132999999999
51
100.73240229999988
0
ARC
5
324
100
AcDbEntity
8
0
100
AcDbCircle
10
60.822258400000003
20
86.721788299999986
30
0
40
4.4619505000000013
210
0
220
0
230
1
100
AcDbArc
50
103.62262739999993
51
112.43200659999998
0
ARC
5
325
100
AcDbEntity
8
0
100
AcDbCircle
10
54.016388200000009
20
88.103088499999998
30
0
40
2.551624700000001
210
0
220
0
230
1
100
AcDbArc
50
321.31614090000016
51
335.54360749999984
0
LINE
5
326
100
AcDbEntity
8
0
100
AcDbLine
10
68.479687499999997
20
91.591468000000006
30
0
11
68.200781300000003
21
90.820374299999997
31
0
0
ARC
5
327
100
AcDbEntity
8
0
100
AcDbCircle
10
66.628464100000002
20
89.51959029999999
30
0
40
2.3506056000000051
210
0
220
0
230
1
100
AcDbArc
50
101.49128380000009
51
138.31338929999987
0
ARC
5
328
100
AcDbEntity
8
0
100
AcDbCircle
10
60.974240199999997
20
80.495776000000006
30
0
40
8.8684214999999949
210
0
220
0
230
1
100
AcDbArc
50
91.716505799999979
51
92.909513600000011
0
ARC
5
329
100
AcDbEntity
8
0
100
AcDbCircle
10
50.363173900000007
20
88.835052900000008
30
0
40
5.3634324999999992
210
0
220
0
230
1
100
AcDbArc
50
-0.23191999999877361
51
6.3095265999999022
0
ARC
5
330
100
AcDbEntity
8
0
100
AcDbCircle
10
52.55730890000001
20
88.997222300000004
30
0
40
4.1003908999999972
210
0
220
-0
230
1
100
AcDbArc
50
5.1338353999997883
51
16.797340400000152
0
ARC
5
331
100
AcDbEntity
8
0
100
AcDbCircle
10
52.383451700000009
20
89.066890599999994
30
0
40
3.3299239000000007
210
0
220
-0
230
1
100
AcDbArc
50
6.1648951000001144
51
16.039623200000083
0
ARC
5
332
100
AcDbEntity
8
0
100
AcDbCircle
10
60.511491600000006
20
87.688069400000018
30
0
40
4.2041830000000031
210
0
220
0
230
1
100
AcDbArc
50
90.071433300000066
51
104.65209880000012
0
ARC
5
333
100
AcDbEntity
8
0
100
AcDbCircle
10
68.159367300000014
20
88.622569700000014
30
0
40
4.0055511000000035
210
0
220
0
230
1
100
AcDbArc
50
183.59136710000001
51
196.35395819999999
0
LINE
5
334
100
AcDbEntity
8
0
100
AcDbLine
10
61.725781299999994
20
89.393030500000009
30
0
11
61.725781299999994
21
89.764905500000012
31
0
0
ARC
5
335
100
AcDbEntity
8
0
100
AcDbCircle
10
60.053570500000006
20
87.435436100000004
30
0
40
1.2973647999999962
210
0
220
0
230
1
100
AcDbArc
50
179.52658960000139
51
192.77876180000013
0
LINE
5
336
100
AcDbEntity
8
0
100
AcDbLine
10
51.389843800000001
20
94.3094368
30
0
11
52.297656200000013
21
94.3094368
31
0
0
ARC
5
337
100
AcDbEntity
8
0
100
AcDbCircle
10
66.727537900000002
20
89.559195500000015
30
0
40
1.5227019999999938
210
0
220
0
230
1
100
AcDbArc
50
114.42657430000017
51
161.66327660000022
0
LINE
5
338
100
AcDbEntity
8
0
100
AcDbLine
10
74.440624999999997
20
91.7938118
30
0
11
72.012500000000003
21
89.239905500000006
31
0
0
ARC
5
339
100
AcDbEntity
8
0
100
AcDbCircle
10
61.058441600000002
20
90.2706479
30
0
40
1.5450548999999925
210
0
220
-0
230
1
100
AcDbArc
50
47.868293200000231
51
68.29341140000021
0
ARC
5
340
100
AcDbEntity
8
0
100
AcDbCircle
10
61.108554700000006
20
90.370707400000015
30
0
40
1.4375449000000007
210
0
220
-0
230
1
100
AcDbArc
50
19.233090300000384
51
46.674120199999756
0
ARC
5
341
100
AcDbEntity
8
0
100
AcDbCircle
10
66.848388200000002
20
89.08342660000001
30
0
40
3.3928633999999951
210
0
220
0
230
1
100
AcDbArc
50
256.42439030000014
51
270.48898210000004
0
ARC
5
342
100
AcDbEntity
8
0
100
AcDbCircle
10
66.883261899999994
20
88.498606400000014
30
0
40
2.6014781000000005
210
0
220
-0
230
1
100
AcDbArc
50
81.691033200000049
51
87.507885999999772
0
ARC
5
343
100
AcDbEntity
8
0
100
AcDbCircle
10
60.642211700000018
20
87.143394099999995
30
0
40
4.7642239999999951
210
0
220
0
230
1
100
AcDbArc
50
104.51612860000012
51
106.54891830000008
0
ARC
5
344
100
AcDbEntity
8
0
100
AcDbCircle
10
58.300025300000009
20
88.778969100000012
30
0
40
6.0024148000000039
210
0
220
0
230
1
100
AcDbArc
50
179.77628830000162
51
185.70751380000016
0
LINE
5
345
100
AcDbEntity
8
0
100
AcDbLine
10
68.392187500000006
20
86.806311800000003
30
0
11
68.392187500000006
21
86.002405500000009
31
0
0
ARC
5
346
100
AcDbEntity
8
0
100
AcDbCircle
10
59.361259799999999
20
87.307574700000004
30
0
40
1.5632766000000036
210
0
220
0
230
1
100
AcDbArc
50
227.76893090000027
51
237.80500279999981
0
ARC
5
347
100
AcDbEntity
8
0
100
AcDbCircle
10
55.933481399999998
20
88.535132700000005
30
0
40
3.6233606999999997
210
0
220
0
230
1
100
AcDbArc
50
185.59248670000005
51
194.2050382000001
0
ARC
5
348
100
AcDbEntity
8
0
100
AcDbCircle
10
66.709485600000008
20
87.067304000000007
30
0
40
4.0385021000000059
210
0
220
-0
230
1
100
AcDbArc
50
68.329427199999941
51
74.883149700000061
0
LINE
5
349
100
AcDbEntity
8
0
100
AcDbLine
10
52.040624999999999
20
85.800061799999995
30
0
11
51.389843800000001
21
85.800061799999995
31
0
0
ARC
5
350
100
AcDbEntity
8
0
100
AcDbCircle
10
69.15729540000001
20
88.790904800000007
30
0
40
5.0089616999999969
210
0
220
0
230
1
100
AcDbArc
50
169.89785820000009
51
180.36889049999934
0
ARC
5
351
100
AcDbEntity
8
0
100
AcDbCircle
10
66.720093899999995
20
87.361682200000018
30
0
40
3.7500489000000052
210
0
220
-0
230
1
100
AcDbArc
50
77.299947599999925
51
81.734467799999933
0
ARC
5
352
100
AcDbEntity
8
0
100
AcDbCircle
10
66.496420099999995
20
86.3117941
30
0
40
4.8234410999999913
210
0
220
-0
230
1
100
AcDbArc
50
74.780229699999879
51
77.4497771999999
0
ARC
5
353
100
AcDbEntity
8
0
100
AcDbCircle
10
59.374173100000007
20
87.521688900000015
30
0
40
1.5708143999999988
210
0
220
0
230
1
100
AcDbArc
50
115.49045699999998
51
182.3568128999996
0
LINE
5
354
100
AcDbEntity
8
0
100
AcDbLine
10
73.510937500000011
20
85.800061799999995
30
0
11
71.394531299999997
21
88.632874299999997
31
0
0
ARC
5
355
100
AcDbEntity
8
0
100
AcDbCircle
10
59.688133299999997
20
88.47657670000001
30
0
40
2.7859594999999975
210
0
220
0
230
1
100
AcDbArc
50
258.67197559999994
51
270.40472469999992
0
ARC
5
356
100
AcDbEntity
8
0
100
AcDbCircle
10
66.933748899999998
20
87.806492500000019
30
0
40
4.0966960000000032
210
0
220
-0
230
1
100
AcDbArc
50
77.770233399999896
51
89.947537499999996
0
LINE
5
357
100
AcDbEntity
8
0
100
AcDbLine
10
60.708593800000003
20
89.360218000000003
30
0
11
61.725781299999994
21
89.393030500000009
31
0
0
ARC
5
358
100
AcDbEntity
8
0
100
AcDbCircle
10
66.606822600000001
20
91.145363500000002
30
0
40
4.6920036000000058
210
0
220
0
230
1
100
AcDbArc
50
286.0460468
51
292.36541670000003
0
ARC
5
359
100
AcDbEntity
8
0
100
AcDbCircle
10
60.474697500000005
20
88.187472099999994
30
0
40
2.955649000000002
210
0
220
0
230
1
100
AcDbArc
50
90.448479700000135
51
103.76652620000009
0
ARC
5
360
100
AcDbEntity
8
0
100
AcDbCircle
10
53.754156399999999
20
87.808863299999999
30
0
40
1.3169914999999943
210
0
220
0
230
1
100
AcDbArc
50
218.16906490000025
51
253.80468929999978
0
LINE
5
361
100
AcDbEntity
8
0
100
AcDbLine
10
73.363281299999997
20
91.7938118
30
0
11
74.440624999999997
21
91.7938118
31
0
0
ARC
5
362
100
AcDbEntity
8
0
100
AcDbCircle
10
60.088955599999998
20
88.130622700000018
30
0
40
1.6705707000000045
210
0
220
0
230
1
100
AcDbArc
50
281.71211409999984
51
306.45936600000022
0
ARC
5
363
100
AcDbEntity
8
0
100
AcDbCircle
10
53.990687000000008
20
89.814778300000015
30
0
40
2.0640155000000044
210
0
220
0
230
1
100
AcDbArc
50
95.183512400000211
51
145.11089639999994
0
ARC
5
364
100
AcDbEntity
8
0
100
AcDbCircle
10
66.845148600000002
20
88.679951100000011
30
0
40
2.1963199000000082
210
0
220
0
230
1
100
AcDbArc
50
260.13593860000015
51
270.26922499999984
0
ARC
5
365
100
AcDbEntity
8
0
100
AcDbCircle
10
60.104708000000002
20
89.922550300000012
30
0
40
1.610719300000002
210
0
220
-0
230
1
100
AcDbArc
50
7.8273001999998399
51
20.604168799999897
0
ARC
5
366
100
AcDbEntity
8
0
100
AcDbCircle
10
60.303391000000005
20
86.382094100000003
30
0
40
2.2662013000000067
210
0
220
0
230
1
100
AcDbArc
50
102.79959309999984
51
113.24325619999999
0
ARC
5
367
100
AcDbEntity
8
0
100
AcDbCircle
10
58.761173999999997
20
88.985254099999992
30
0
40
3.7633367
210
0
220
0
230
1
100
AcDbArc
50
314.74450660000002
51
321.7071747999999
0
ARC
5
368
100
AcDbEntity
8
0
100
AcDbCircle
10
57.188509200000013
20
88.914577700000009
30
0
40
4.8882645999999994
210
0
220
0
230
1
100
AcDbArc
50
171.06680190000014
51
177.84569259999998
0
ARC
5
369
100
AcDbEntity
8
0
100
AcDbCircle
10
60.273748400000002
20
90.060156300000003
30
0
40
2.3281281999999974
210
0
220
-0
230
1
100
AcDbArc
50
6.3379195000000648
51
19.68156549999987
0
ARC
5
370
100
AcDbEntity
8
0
100
AcDbCircle
10
54.206140100000013
20
89.117794499999988
30
0
40
2.7745884000000021
210
0
220
-0
230
1
100
AcDbArc
50
74.239336000000023
51
90.562392799999955
0
LINE
5
371
100
AcDbEntity
8
0
100
AcDbLine
10
71.427343800000003
20
89.743030500000017
30
0
11
73.363281299999997
21
91.7938118
31
0
0
ARC
5
372
100
AcDbEntity
8
0
100
AcDbCircle
10
53.684904400000008
20
89.450426100000001
30
0
40
1.9731846000000031
210
0
220
-0
230
1
100
AcDbArc
50
15.777974700000252
51
32.015102300000002
0
LINE
5
373
100
AcDbEntity
8
0
100
AcDbLine
10
70.7109375
20
88.042249300000009
30
0
11
70.7109375
21
85.800061799999995
31
0
0
ARC
5
374
100
AcDbEntity
8
0
100
AcDbCircle
10
66.839817699999998
20
88.2192474
30
0
40
2.6258717000000011
210
0
220
0
230
1
100
AcDbArc
50
196.01666919999997
51
221.13492009999987
0
ARC
5
375
100
AcDbEntity
8
0
100
AcDbCircle
10
67.673455700000005
20
89.987939800000007
30
0
40
1.7948387999999971
210
0
220
-0
230
1
100
AcDbArc
50
63.503444200000168
51
70.186108299999944
0
ARC
5
376
100
AcDbEntity
8
0
100
AcDbCircle
10
67.8619798
20
90.382852600000007
30
0
40
1.3573188000000025
210
0
220
-0
230
1
100
AcDbArc
50
62.929014800000168
51
63.188275399999696
0
LINE
5
377
100
AcDbEntity
8
0
100
AcDbLine
10
62.611718799999998
20
85.800061799999995
30
0
11
61.939062500000006
21
85.800061799999995
31
0
0
ARC
5
378
100
AcDbEntity
8
0
100
AcDbCircle
10
54.389604500000004
20
89.790843299999992
30
0
40
2.0770199000000078
210
0
220
-0
230
1
100
AcDbArc
50
38.563122900000067
51
74.067031099999895
0
LINE
5
379
100
AcDbEntity
8
0
100
AcDbLine
10
58.756250000000001
20
90.683655500000015
30
0
11
58.4773438
21
91.378186800000009
31
0
0
ARC
5
380
100
AcDbEntity
8
0
100
AcDbCircle
10
66.856222000000002
20
87.378767699999997
30
0
40
4.5311609999999973
210
0
220
-0
230
1
100
AcDbArc
50
74.679669099999856
51
77.957864599999866
0
LINE
5
381
100
AcDbEntity
8
0
100
AcDbLine
10
61.7585938
20
86.6531868
30
0
11
61.714843799999997
21
86.6531868
31
0
0
ARC
5
382
100
AcDbEntity
8
0
100
AcDbCircle
10
60.458423799999998
20
88.899998099999991
30
0
40
2.243042899999999
210
0
220
-0
230
1
100
AcDbArc
50
83.650733799999998
51
90.175262499999874
0
ARC
5
383
100
AcDbEntity
8
0
100
AcDbCircle
10
59.614697800000009
20
87.329051100000015
30
0
40
0.84585790000000438
210
0
220
0
230
1
100
AcDbArc
50
192.32647640000076
51
222.0579907000006
0
ARC
5
384
100
AcDbEntity
8
0
100
AcDbCircle
10
67.275069900000005
20
88.896164599999992
30
0
40
2.9570224000000058
210
0
220
-0
230
1
100
AcDbArc
50
70.094534999999865
51
74.73865389999979
0
ARC
5
385
100
AcDbEntity
8
0
100
AcDbCircle
10
59.039692899999999
20
89.902990200000005
30
0
40
3.5720469000000001
210
0
220
0
230
1
100
AcDbArc
50
-0.19734769999932955
51
6.6583290999998672
0
ARC
5
386
100
AcDbEntity
8
0
100
AcDbCircle
10
60.662869900000011
20
90.136074400000012
30
0
40
1.013125600000004
210
0
220
-0
230
1
100
AcDbArc
50
20.409445000000499
51
41.447963499999808
0
ARC
5
387
100
AcDbEntity
8
0
100
AcDbCircle
10
59.582044799999998
20
87.309519499999993
30
0
40
0.80856399999999773
210
0
220
0
230
1
100
AcDbArc
50
222.58039410000001
51
229.25467619999941
0
ARC
5
388
100
AcDbEntity
8
0
100
AcDbCircle
10
60.749672500000003
20
89.502399699999998
30
0
40
2.3730277000000015
210
0
220
-0
230
1
100
AcDbArc
50
68.227376999999919
51
81.749409099999937
0
LINE
5
389
100
AcDbEntity
8
0
100
AcDbLine
10
61.7039063
20
88.74771800000002
30
0
11
60.796093800000001
21
88.70943680000002
31
0
0
ARC
5
390
100
AcDbEntity
8
0
100
AcDbCircle
10
59.398596800000007
20
88.185765000000004
30
0
40
2.3053227999999999
210
0
220
0
230
1
100
AcDbArc
50
-13.082249099999705
51
0.28247610000018364
0
LINE
5
391
100
AcDbEntity
8
0
100
AcDbLine
10
61.939062500000006
20
85.800061799999995
30
0
11
61.7585938
21
86.6531868
31
0
0
ARC
5
392
100
AcDbEntity
8
0
100
AcDbCircle
10
59.839284300000003
20
87.941144899999998
30
0
40
1.4993310000000086
210
0
220
0
230
1
100
AcDbArc
50
253.93964370000012
51
266.45342499999998
0
ARC
5
393
100
AcDbEntity
8
0
100
AcDbCircle
10
54.090421200000016
20
89.682617500000021
30
0
40
1.5063577999999931
210
0
220
-0
230
1
100
AcDbArc
50
32.703751799999893
51
35.523847899999787
0
LINE
5
394
100
AcDbEntity
8
0
100
AcDbLine
10
71.394531299999997
20
88.632874299999997
30
0
11
70.7109375
21
88.042249300000009
31
0
0
ARC
5
395
100
AcDbEntity
8
0
100
AcDbCircle
10
52.359654400000004
20
88.575615099999993
30
0
40
3.3541052999999987
210
0
220
0
230
1
100
AcDbArc
50
343.41715009999996
51
353.6368951000004
0
ARC
5
396
100
AcDbEntity
8
0
100
AcDbCircle
10
59.291957000000004
20
88.807597799999996
30
0
40
6.9943026000000046
210
0
220
0
230
1
100
AcDbArc
50
177.61768359999999
51
180.04253399999732
0
ARC
5
397
100
AcDbEntity
8
0
100
AcDbCircle
10
54.085018500000004
20
88.095116099999998
30
0
40
2.3958864999999916
210
0
220
0
230
1
100
AcDbArc
50
245.98015679999997
51
255.54556419999989
0
ARC
5
398
100
AcDbEntity
8
0
100
AcDbCircle
10
59.685785700000018
20
88.045773700000026
30
0
40
2.4451952000000028
210
0
220
0
230
1
100
AcDbArc
50
304.84851189999995
51
314.85313450000012
0
ARC
5
399
100
AcDbEntity
8
0
100
AcDbCircle
10
54.328442099999997
20
87.848811700000027
30
0
40
2.1491074000000046
210
0
220
0
230
1
100
AcDbArc
50
274.06400519999988
51
321.40810060000013
0
LINE
5
400
100
AcDbEntity
8
0
100
AcDbLine
10
70.667187499999997
20
88.868030500000003
30
0
11
70.7109375
21
88.868030500000003
31
0
0
LINE
5
401
100
AcDbEntity
8
0
100
AcDbLine
10
62.611718799999998
20
89.890686800000012
30
0
11
62.611718799999998
21
85.800061799999995
31
0
0
ARC
5
402
100
AcDbEntity
8
0
100
AcDbCircle
10
66.870621600000007
20
89.086122799999998
30
0
40
2.0136607000000066
210
0
220
-0
230
1
100
AcDbArc
50
88.719387799999652
51
112.56676170000004
0
ARC
5
403
100
AcDbEntity
8
0
100
AcDbCircle
10
61.012040899999995
20
82.047178000000002
30
0
40
6.6657577000000074
210
0
220
0
230
1
100
AcDbArc
50
91.856507099999973
51
96.447827200000035
0
ARC
5
404
100
AcDbEntity
8
0
100
AcDbCircle
10
59.886181000000008
20
88.481750000000005
30
0
40
2.0418456000000043
210
0
220
0
230
1
100
AcDbArc
50
266.07838680000026
51
270.05893390000017
0
ARC
5
405
100
AcDbEntity
8
0
100
AcDbCircle
10
50.5249302
20
88.793318800000009
30
0
40
5.2016709000000052
210
0
220
0
230
1
100
AcDbArc
50
-6.5065404999999998
51
0.22056449999903285
0
ARC
5
406
100
AcDbEntity
8
0
100
AcDbCircle
10
58.859518500000014
20
88.206244300000009
30
0
40
2.8443877000000031
210
0
220
0
230
1
100
AcDbArc
50
-0.1835830999990653
51
0.0013591998686374712
0
ARC
5
407
100
AcDbEntity
8
0
100
AcDbCircle
10
60.190092600000007
20
87.451305100000013
30
0
40
1.4338520999999991
210
0
220
0
230
1
100
AcDbArc
50
171.21215479999969
51
180.20577569999827
0
ARC
5
408
100
AcDbEntity
8
0
100
AcDbCircle
10
60.711428299999994
20
84.648460799999995
30
0
40
4.0471763000000065
210
0
220
0
230
1
100
AcDbArc
50
96.354517199999918
51
102.99532940000005
0
ARC
5
409
100
AcDbEntity
8
0
100
AcDbCircle
10
54.417500799999992
20
88.141685800000005
30
0
40
2.0572053999999982
210
0
220
0
230
1
100
AcDbArc
50
193.94306169999993
51
208.02181970000004
0
ARC
5
410
100
AcDbEntity
8
0
100
AcDbCircle
10
59.733291100000002
20
87.542549900000012
30
0
40
0.96868750000000214
210
0
220
0
230
1
100
AcDbArc
50
120.97340310000044
51
172.41798600000016
0
ARC
5
411
100
AcDbEntity
8
0
100
AcDbCircle
10
66.956493899999998
20
89.501143299999995
30
0
40
3.8081522000000021
210
0
220
0
230
1
100
AcDbArc
50
272.59806029999987
51
282.18782449999998
0
ARC
5
412
100
AcDbEntity
8
0
100
AcDbCircle
10
60.160181200000011
20
87.994915299999988
30
0
40
1.5203657999999944
210
0
220
0
230
1
100
AcDbArc
50
314.1892065000003
51
347.42696969999992
0
ARC
5
413
100
AcDbEntity
8
0
100
AcDbCircle
10
54.066927299999996
20
89.369769900000023
30
0
40
2.9189278999999972
210
0
220
0
230
1
100
AcDbArc
50
266.37758559999992
51
270.05111220000009
0
ARC
5
414
100
AcDbEntity
8
0
100
AcDbCircle
10
59.978182500000003
20
87.806761300000019
30
0
40
2.0934850000000034
210
0
220
0
230
1
100
AcDbArc
50
281.29794939999999
51
293.73135600000001
0
ARC
5
415
100
AcDbEntity
8
0
100
AcDbCircle
10
54.172104500000003
20
88.791745999999989
30
0
40
3.1005106000000064
210
0
220
-0
230
1
100
AcDbArc
50
89.874306899999908
51
96.814521899999832
0
LINE
5
416
100
AcDbEntity
8
0
100
AcDbLine
10
52.297656200000013
20
86.571155500000003
30
0
11
52.232031300000003
21
86.571155500000003
31
0
0
ARC
5
417
100
AcDbEntity
8
0
100
AcDbCircle
10
59.692365599999995
20
87.451554299999998
30
0
40
0.98822030000000549
210
0
220
0
230
1
100
AcDbArc
50
229.78372589999998
51
254.27241090000012
0
ARC
5
418
100
AcDbEntity
8
0
100
AcDbCircle
10
53.664686000000003
20
89.862659900000011
30
0
40
1.2073281999999996
210
0
220
0
230
1
100
AcDbArc
50
120.1403063000003
51
142.42488470000015
0
ARC
5
419
100
AcDbEntity
8
0
100
AcDbCircle
10
70.105294299999997
20
88.783160700000025
30
0
40
5.0162499999999968
210
0
220
0
230
1
100
AcDbArc
50
174.53098510000007
51
180.15497029999827
0
ARC
5
420
100
AcDbEntity
8
0
100
AcDbCircle
10
59.494614900000002
20
87.550865000000016
30
0
40
1.8402868999999942
210
0
220
0
230
1
100
AcDbArc
50
238.32729449999971
51
258.91839549999997
0
ARC
5
421
100
AcDbEntity
8
0
100
AcDbCircle
10
59.967008900000003
20
87.186600900000002
30
0
40
1.3942671000000058
210
0
220
0
230
1
100
AcDbArc
50
113.58871609999984
51
121.6804616000002
0
ARC
5
422
100
AcDbEntity
8
0
100
AcDbCircle
10
59.906637100000005
20
88.939318700000015
30
0
40
2.4994806000000076
210
0
220
0
230
1
100
AcDbArc
50
269.57922430000008
51
282.04133500000017
0
ARC
5
423
100
AcDbEntity
8
0
100
AcDbCircle
10
54.061395499999996
20
89.03254410000001
30
0
40
2.0995939000000039
210
0
220
-0
230
1
100
AcDbArc
50
78.678154099999944
51
90.374932399999906
0
LINE
5
424
100
AcDbEntity
8
0
100
AcDbLine
10
52.253906299999997
20
90.995374299999995
30
0
11
52.297656200000013
21
90.995374299999995
31
0
0
LWPOLYLINE
5
425
100
AcDbEntity
8
0
100
AcDbPolyline
90
22
70
1
43
0.0
10
159.3125
20
65
10
183.68750000000003
20
65
10
183.68750000000003
20
62
10
208.06250000000003
20
62
10
211
20
62
10
211
20
77.8125
10
214.00000000000003
20
77.8125
10
214.00000000000003
20
102.1875
10
211
20
102.1875
10
211
20
118
10
183.68750000000003
20
118
10
183.68750000000003
20
115
10
159.3125
20
115
10
159.3125
20
118
10
134.9375
20
118
10
132
20
118
10
132
20
102.1875
10
129
20
102.1875
10
129
20
77.8125
10
132
20
77.8125
10
132
20
62
10
159.3125
20
62
0
LWPOLYLINE
5
426
100
AcDbEntity
8
0
100
AcDbPolyline
90
30
70
1
43
0.0
10
243.4375
20
176
10
243.4375
20
173
10
220
20
173
10
220
20
145.6875
10
217.00000000000003
20
145.6875
10
217.00000000000003
20
121.31250000000001
10
220
20
121.31250000000001
10
220
20
96.937500000000014
10
220
20
94
10
243.4375
20
94
10
243.4375
20
91
10
267.8125
20
91
10
267.8125
20
94
10
292.1875
20
94
10
292.1875
20
91
10
316.5625
20
91
10
316.5625
20
94
10
340
20
94
10
340
20
121.31250000000001
10
343.00000000000006
20
121.31250000000001
10
343.00000000000006
20
145.6875
10
340
20
145.6875
10
340
20
170.0625
10
340
20
173
10
316.5625
20
173
10
316.5625
20
176
10
292.1875
20
176
10
292.1875
20
173
10
267.8125
20
173
10
267.8125
20
176
0
LWPOLYLINE
5
427
100
AcDbEntity
8
0
100
AcDbPolyline
90
4
70
1
43
0.0
10
230
20
70
10
300
20
70
10
300
20
46.999999999999993
10
230
20
46.999999999999993
0
LWPOLYLINE
5
428
100
AcDbEntity
8
0
100
AcDbPolyline
90
4
70
1
43
0.0
10
132
20
6.0000000000000009
10
152
20
6.0000000000000009
10
152
20
25.999999999999996
10
132
20
25.999999999999996
0
LWPOLYLINE
5
429
100
AcDbEntity
8
0
100
AcDbPolyline
90
4
70
1
43
0.0
10
211
20
6.0000000000000009
10
186
20
6.0000000000000009
10
186
20
36
10
211
20
36
0
LINE
5
430
100
AcDbEntity
8
0
100
AcDbLine
10
211
20
6.0000000000000009
30
0
11
206
21
6.0000000000000009
31
0
0
LWPOLYLINE
5
431
100
AcDbEntity
8
0
100
AcDbPolyline
90
4
70
1
43
0.0
10
135.40734855221459
20
95.207547304875646
10
206.82514016193755
20
95.207547304875646
10
206.82514016193755
20
66.160229489080393
10
135.40734855221459
20
66.160229489080393
0
ENDSEC
0
SECTION
2
OBJECTS
0
DICTIONARY
5
C
100
AcDbDictionary
3
ACAD_GROUP
350
D
3
ACAD_MLINESTYLE
350
17
0
DICTIONARY
5
D
100
AcDbDictionary
0
DICTIONARY
5
1A
330
C
100
AcDbDictionary
0
DICTIONARY
5
17
100
AcDbDictionary
0
ENDSEC
0
EOF
